0
SECTION
2
HEADER
9
$INSUNITS
70
4
9
$ACADVER
1
AC1014
9
$HANDSEED
5
FFFF
0
ENDSEC
0
SECTION
2
TABLES
0
TABLE
2
VPORT
5
8
100
AcDbSymbolTable
0
ENDTAB
0
TABLE
2
LTYPE
5
5
100
AcDbSymbolTable
0
LTYPE
5
14
100
AcDbSymbolTableRecord
100
AcDbLinetypeTableRecord
2
BYBLOCK
70
0
0
LTYPE
5
15
100
AcDbSymbolTableRecord
100
AcDbLinetypeTableRecord
2
BYLAYER
70
0
0
ENDTAB
0
TABLE
2
LAYER
5
2
100
AcDbSymbolTable
70
2
0
LAYER
5
50
100
AcDbSymbolTableRecord
100
AcDbLayerTableRecord
2
0
70
0
6
CONTINUOUS
0
ENDTAB
0
TABLE
2
STYLE
5
3
100
AcDbSymbolTable
70
1
0
STYLE
5
11
100
AcDbSymbolTableRecord
100
AcDbTextStyleTableRecord
2
STANDARD
70
0
0
ENDTAB
0
TABLE
2
VIEW
5
6
100
AcDbSymbolTable
70
0
0
ENDTAB
0
TABLE
2
UCS
5
7
100
AcDbSymbolTable
70
0
0
ENDTAB
0
TABLE
2
APPID
5
9
100
AcDbSymbolTable
70
2
0
APPID
5
12
100
AcDbSymbolTableRecord
100
AcDbRegAppTableRecord
2
ACAD
70
0
0
ENDTAB
0
TABLE
2
DIMSTYLE
5
A
100
AcDbSymbolTable
70
1
0
ENDTAB
0
TABLE
2
BLOCK_RECORD
5
1
100
AcDbSymbolTable
70
1
0
BLOCK_RECORD
5
1F
100
AcDbSymbolTableRecord
100
AcDbBlockTableRecord
2
*MODEL_SPACE
0
BLOCK_RECORD
5
1B
100
AcDbSymbolTableRecord
100
AcDbBlockTableRecord
2
*PAPER_SPACE
0
ENDTAB
0
ENDSEC
0
SECTION
2
BLOCKS
0
BLOCK
5
20
100
AcDbEntity
100
AcDbBlockBegin
2
*MODEL_SPACE
0
ENDBLK
5
21
100
AcDbEntity
100
AcDbBlockEnd
0
BLOCK
5
1C
100
AcDbEntity
100
AcDbBlockBegin
2
*PAPER_SPACE
0
ENDBLK
5
1D
100
AcDbEntity
100
AcDbBlockEnd
0
ENDSEC
0
SECTION
2
ENTITIES
0
LWPOLYLINE
5
100
100
AcDbEntity
8
0
100
AcDbPolyline
90
6
70
1
43
0.0
10
26.499999999999662
20
9.4999999999997122
10
27.999999999999631
20
9.499999999999714
42
-0.41421356237309503
10
28.999999999999631
20
8.499999999999714
10
28.999999999999631
20
-4.5000000000002851
42
-0.41421356237309653
10
27.999999999999623
20
-5.500000000000286
10
26.499999999999591
20
-5.500000000000278
0
LWPOLYLINE
5
101
100
AcDbEntity
8
0
100
AcDbPolyline
90
6
70
1
43
0.0
10
-45.000000000000369
20
9.4999999999997122
10
-43.500000000000334
20
9.4999999999997122
10
-43.500000000000405
20
-5.4999999999999698
10
-45.000000000000391
20
-5.4999999999999591
42
-0.41421356237309537
10
-46.000000000000384
20
-4.4999999999999618
10
-46.000000000000369
20
8.499999999999714
42
-0.4142135623730947
0
LWPOLYLINE
5
102
100
AcDbEntity
8
0
100
AcDbPolyline
90
28
70
1
43
0.0
10
41.499999999999631
20
-18.000000000000153
42
0.41421356237309531
10
31.499999999999627
20
-8.0000000000001563
10
31.499999999999631
20
7.9999999999998517
42
0.41421356237309498
10
41.499999999999631
20
17.999999999999854
10
41.499999999999631
20
20.499999999999851
10
31.49999999999882
20
20.499999999999851
10
31.49999999999882
20
23.649999999999849
10
11.499999999998822
20
23.649999999999849
10
11.499999999998822
20
20.499999999999851
10
-18.500000000001169
20
20.499999999999851
10
-18.50000000000118
20
23.649999999999849
10
-38.50000000000118
20
23.64999999999986
10
-38.500000000001165
20
20.499999999999851
10
-51.500000000000384
20
20.499999999999851
10
-51.500000000000384
20
7.499999999999849
10
-54.650000000000389
20
7.499999999999849
10
-54.650000000000389
20
-7.500000000000151
10
-51.500000000000384
20
-7.500000000000151
10
-51.500000000000384
20
-20.500000000000153
10
-38.500000000000369
20
-20.500000000000153
10
-38.500000000000377
20
-23.650000000000162
10
-18.500000000000377
20
-23.650000000000158
10
-18.500000000000387
20
-20.500000000000153
10
11.499999999999622
20
-20.500000000000153
10
11.499999999999623
20
-23.650000000000162
10
31.499999999999623
20
-23.650000000000155
10
31.499999999999613
20
-20.500000000000153
10
41.499999999999631
20
-20.500000000000153
0
CIRCLE
5
103
100
AcDbEntity
8
0
100
AcDbCircle
10
-44.500000000000384
20
-11.500000000000149
30
0
40
1.749999999999998
210
0
220
0
230
1
0
CIRCLE
5
104
100
AcDbEntity
8
0
100
AcDbCircle
10
29.49999999999962
20
-11.500000000000149
30
0
40
1.749999999999998
210
0
220
0
230
1
0
CIRCLE
5
105
100
AcDbEntity
8
0
100
AcDbCircle
10
-44.500000000000384
20
15.499999999999851
30
0
40
1.749999999999998
210
0
220
0
230
1
0
CIRCLE
5
106
100
AcDbEntity
8
0
100
AcDbCircle
10
29.49999999999962
20
15.499999999999851
30
0
40
1.749999999999998
210
0
220
0
230
1
0
ENDSEC
0
SECTION
2
OBJECTS
0
DICTIONARY
5
C
100
AcDbDictionary
3
ACAD_GROUP
350
D
3
ACAD_MLINESTYLE
350
17
0
DICTIONARY
5
D
100
AcDbDictionary
0
DICTIONARY
5
1A
330
C
100
AcDbDictionary
0
DICTIONARY
5
17
100
AcDbDictionary
0
ENDSEC
0
EOF
