0
SECTION
2
HEADER
9
$INSUNITS
70
4
9
$ACADVER
1
AC1014
9
$HANDSEED
5
FFFF
0
ENDSEC
0
SECTION
2
TABLES
0
TABLE
2
VPORT
5
8
100
AcDbSymbolTable
0
ENDTAB
0
TABLE
2
LTYPE
5
5
100
AcDbSymbolTable
0
LTYPE
5
14
100
AcDbSymbolTableRecord
100
AcDbLinetypeTableRecord
2
BYBLOCK
70
0
0
LTYPE
5
15
100
AcDbSymbolTableRecord
100
AcDbLinetypeTableRecord
2
BYLAYER
70
0
0
ENDTAB
0
TABLE
2
LAYER
5
2
100
AcDbSymbolTable
70
2
0
LAYER
5
50
100
AcDbSymbolTableRecord
100
AcDbLayerTableRecord
2
0
70
0
6
CONTINUOUS
0
ENDTAB
0
TABLE
2
STYLE
5
3
100
AcDbSymbolTable
70
1
0
STYLE
5
11
100
AcDbSymbolTableRecord
100
AcDbTextStyleTableRecord
2
STANDARD
70
0
0
ENDTAB
0
TABLE
2
VIEW
5
6
100
AcDbSymbolTable
70
0
0
ENDTAB
0
TABLE
2
UCS
5
7
100
AcDbSymbolTable
70
0
0
ENDTAB
0
TABLE
2
APPID
5
9
100
AcDbSymbolTable
70
2
0
APPID
5
12
100
AcDbSymbolTableRecord
100
AcDbRegAppTableRecord
2
ACAD
70
0
0
ENDTAB
0
TABLE
2
DIMSTYLE
5
A
100
AcDbSymbolTable
70
1
0
ENDTAB
0
TABLE
2
BLOCK_RECORD
5
1
100
AcDbSymbolTable
70
1
0
BLOCK_RECORD
5
1F
100
AcDbSymbolTableRecord
100
AcDbBlockTableRecord
2
*MODEL_SPACE
0
BLOCK_RECORD
5
1B
100
AcDbSymbolTableRecord
100
AcDbBlockTableRecord
2
*PAPER_SPACE
0
ENDTAB
0
ENDSEC
0
SECTION
2
BLOCKS
0
BLOCK
5
20
100
AcDbEntity
100
AcDbBlockBegin
2
*MODEL_SPACE
0
ENDBLK
5
21
100
AcDbEntity
100
AcDbBlockEnd
0
BLOCK
5
1C
100
AcDbEntity
100
AcDbBlockBegin
2
*PAPER_SPACE
0
ENDBLK
5
1D
100
AcDbEntity
100
AcDbBlockEnd
0
ENDSEC
0
SECTION
2
ENTITIES
0
CIRCLE
5
100
100
AcDbEntity
8
0
100
AcDbCircle
10
-44.500000000000384
20
-11.500000000000149
30
0
40
1.749999999999998
210
0
220
0
230
1
0
CIRCLE
5
101
100
AcDbEntity
8
0
100
AcDbCircle
10
29.49999999999962
20
-11.500000000000149
30
0
40
1.749999999999998
210
0
220
0
230
1
0
CIRCLE
5
102
100
AcDbEntity
8
0
100
AcDbCircle
10
-44.500000000000384
20
15.499999999999851
30
0
40
1.749999999999998
210
0
220
0
230
1
0
CIRCLE
5
103
100
AcDbEntity
8
0
100
AcDbCircle
10
29.49999999999962
20
15.499999999999851
30
0
40
1.749999999999998
210
0
220
0
230
1
0
LWPOLYLINE
5
104
100
AcDbEntity
8
0
100
AcDbPolyline
90
62
70
1
43
0.0
10
37.49999999999882
20
-7.000000000000222
42
0.41421356237309398
10
34.499999999998828
20
-4.0000000000002167
10
-36.500000000001208
20
-3.9999999999999174
42
-0.41421356237309431
10
-40.500000000001194
20
8.9552630049500934e-14
10
-40.500000000001194
20
3.9999999999997686
42
-0.41421356237309492
10
-36.500000000001194
20
7.9999999999997664
10
34.49999999999882
20
7.9999999999997673
42
0.41421356237309465
10
37.49999999999882
20
10.999999999999769
10
37.499999999998813
20
12.999999999999513
42
-0.3178372451957826
10
39.49999999999882
20
15.828427124745708
42
0.31783724519578249
10
41.49999999999882
20
18.656854249491897
10
41.49999999999882
20
28.000000000000149
42
0.41421356237309243
10
39.49999999999882
20
30.000000000000149
10
28.499999999998824
20
30.000000000000149
42
0.4142135623730937
10
26.49999999999882
20
28.000000000000149
10
26.49999999999882
20
20.499999999999993
10
17.499999999999638
20
20.499999999999851
42
-0.41421356237309437
10
15.499999999999636
20
18.499999999999858
10
5.4999999999996341
20
18.499999999999858
42
-0.41421356237309437
10
3.4999999999996341
20
20.499999999999851
10
-2.5000000000003681
20
20.499999999999851
42
-0.41421356237309453
10
-4.5000000000003677
20
18.499999999999858
10
-14.500000000000373
20
18.499999999999858
42
-0.41421356237309437
10
-16.500000000000373
20
20.499999999999851
10
-22.500000000000373
20
20.499999999999851
42
-0.41421356237309503
10
-24.500000000000377
20
18.499999999999851
10
-34.500000000000377
20
18.499999999999851
42
-0.41421356237309503
10
-36.500000000000377
20
20.499999999999851
10
-38.500000000001165
20
20.499999999999851
10
-38.50000000000118
20
23.649999999999849
10
-48.50000000000118
20
23.649999999999856
10
-48.500000000001165
20
20.499999999999851
10
-51.500000000000384
20
20.499999999999851
10
-51.500000000000384
20
7.499999999999849
10
-54.650000000000389
20
7.499999999999849
10
-54.650000000000389
20
-7.500000000000151
10
-51.500000000000384
20
-7.500000000000151
10
-51.500000000000384
20
-20.500000000000153
10
-48.500000000000369
20
-20.499999999999897
10
-48.500000000000377
20
-23.649999999999906
10
-38.500000000000377
20
-23.649999999999899
10
-38.500000000000384
20
-20.499999999999897
10
-36.500000000000377
20
-20.499999999999851
42
-0.41421356237309503
10
-34.500000000000377
20
-18.499999999999851
10
-24.500000000000377
20
-18.499999999999851
42
-0.41421356237309503
10
-22.500000000000373
20
-20.499999999999851
10
-16.500000000000373
20
-20.499999999999851
42
-0.41421356237309437
10
-14.500000000000373
20
-18.499999999999858
10
-4.5000000000003686
20
-18.499999999999854
42
-0.41421356237309459
10
-2.5000000000003664
20
-20.499999999999851
10
3.4999999999996345
20
-20.499999999999851
42
-0.41421356237309437
10
5.4999999999996341
20
-18.499999999999858
10
15.499999999999636
20
-18.499999999999858
42
-0.41421356237309437
10
17.499999999999638
20
-20.499999999999851
10
26.499999999998249
20
-20.499999999999851
10
26.499999999998249
20
-28.000000000000355
42
0.41421356237308721
10
28.499999999998217
20
-30.000000000000355
10
39.499999999999602
20
-30.000000000000561
42
0.41421356237310025
10
41.499999999999645
20
-28.000000000000554
10
41.499999999999289
20
-18.656854249493144
42
0.31783724519582096
10
39.499999999999218
20
-15.828427124746817
42
-0.31783724519582163
10
37.49999999999882
20
-13.000000000000487
0
ENDSEC
0
SECTION
2
OBJECTS
0
DICTIONARY
5
C
100
AcDbDictionary
3
ACAD_GROUP
350
D
3
ACAD_MLINESTYLE
350
17
0
DICTIONARY
5
D
100
AcDbDictionary
0
DICTIONARY
5
1A
330
C
100
AcDbDictionary
0
DICTIONARY
5
17
100
AcDbDictionary
0
ENDSEC
0
EOF
