0
SECTION
2
HEADER
9
$INSUNITS
70
4
9
$ACADVER
1
AC1014
9
$HANDSEED
5
FFFF
0
ENDSEC
0
SECTION
2
TABLES
0
TABLE
2
VPORT
5
8
100
AcDbSymbolTable
0
ENDTAB
0
TABLE
2
LTYPE
5
5
100
AcDbSymbolTable
0
LTYPE
5
14
100
AcDbSymbolTableRecord
100
AcDbLinetypeTableRecord
2
BYBLOCK
70
0
0
LTYPE
5
15
100
AcDbSymbolTableRecord
100
AcDbLinetypeTableRecord
2
BYLAYER
70
0
0
ENDTAB
0
TABLE
2
LAYER
5
2
100
AcDbSymbolTable
70
2
0
LAYER
5
50
100
AcDbSymbolTableRecord
100
AcDbLayerTableRecord
2
0
70
0
6
CONTINUOUS
0
ENDTAB
0
TABLE
2
STYLE
5
3
100
AcDbSymbolTable
70
1
0
STYLE
5
11
100
AcDbSymbolTableRecord
100
AcDbTextStyleTableRecord
2
STANDARD
70
0
0
ENDTAB
0
TABLE
2
VIEW
5
6
100
AcDbSymbolTable
70
0
0
ENDTAB
0
TABLE
2
UCS
5
7
100
AcDbSymbolTable
70
0
0
ENDTAB
0
TABLE
2
APPID
5
9
100
AcDbSymbolTable
70
2
0
APPID
5
12
100
AcDbSymbolTableRecord
100
AcDbRegAppTableRecord
2
ACAD
70
0
0
ENDTAB
0
TABLE
2
DIMSTYLE
5
A
100
AcDbSymbolTable
70
1
0
ENDTAB
0
TABLE
2
BLOCK_RECORD
5
1
100
AcDbSymbolTable
70
1
0
BLOCK_RECORD
5
1F
100
AcDbSymbolTableRecord
100
AcDbBlockTableRecord
2
*MODEL_SPACE
0
BLOCK_RECORD
5
1B
100
AcDbSymbolTableRecord
100
AcDbBlockTableRecord
2
*PAPER_SPACE
0
ENDTAB
0
ENDSEC
0
SECTION
2
BLOCKS
0
BLOCK
5
20
100
AcDbEntity
100
AcDbBlockBegin
2
*MODEL_SPACE
0
ENDBLK
5
21
100
AcDbEntity
100
AcDbBlockEnd
0
BLOCK
5
1C
100
AcDbEntity
100
AcDbBlockBegin
2
*PAPER_SPACE
0
ENDBLK
5
1D
100
AcDbEntity
100
AcDbBlockEnd
0
ENDSEC
0
SECTION
2
ENTITIES
0
CIRCLE
5
100
100
AcDbEntity
8
0
100
AcDbCircle
10
-42.000000000000014
20
-8.5
30
0
40
1.749999999999998
210
0
220
0
230
1
0
CIRCLE
5
101
100
AcDbEntity
8
0
100
AcDbCircle
10
30.999999999999996
20
-8.5
30
0
40
1.749999999999998
210
0
220
0
230
1
0
CIRCLE
5
102
100
AcDbEntity
8
0
100
AcDbCircle
10
-42.000000000000014
20
15.500000000000004
30
0
40
1.749999999999998
210
0
220
0
230
1
0
CIRCLE
5
103
100
AcDbEntity
8
0
100
AcDbCircle
10
30.999999999999996
20
15.500000000000004
30
0
40
1.749999999999998
210
0
220
0
230
1
0
LWPOLYLINE
5
104
100
AcDbEntity
8
0
100
AcDbPolyline
90
60
70
1
43
0.0
10
34.99999999999919
20
-6.150000000000329
42
0.41421356237309398
10
31.999999999999204
20
-3.1500000000003237
10
-39.000000000000846
20
-3.1500000000000243
42
-0.41421356237309365
10
-43.000000000000824
20
0.84999999999998244
10
-43.000000000000824
20
4.8499999999996621
42
-0.41421356237309492
10
-39.000000000000824
20
8.8499999999996604
10
31.999999999999194
20
8.8499999999996604
42
0.41421356237309465
10
34.99999999999919
20
11.849999999999664
10
34.99999999999919
20
12.999999999999666
42
-0.3178372451957826
10
36.99999999999919
20
15.828427124745858
42
0.31783724519578199
10
38.999999999999197
20
18.656854249492049
10
38.999999999999197
20
30.649999999999995
42
0.4142135623730937
10
36.99999999999919
20
32.649999999999999
10
25.999999999999197
20
32.649999999999999
42
0.4142135623730957
10
23.999999999999201
20
30.649999999999999
10
23.999999999999197
20
20.500000000000004
10
20.000000000000007
20
20.500000000000004
42
-0.41421356237309437
10
18.000000000000011
20
18.500000000000007
10
8.0000000000000071
20
18.500000000000007
42
-0.41421356237309437
10
6.0000000000000071
20
20.500000000000004
10
4.9960036108132044e-15
20
20.500000000000004
42
-0.41421356237309453
10
-1.9999999999999951
20
18.500000000000007
10
-12
20
18.500000000000007
42
-0.41421356237309437
10
-14
20
20.500000000000004
10
-20
20
20.500000000000004
42
-0.41421356237309503
10
-22
20
18.500000000000004
10
-32
20
18.5
42
-0.41421356237309503
10
-34
20
20.500000000000004
10
-36.000000000000803
20
20.500000000000004
10
-36.000000000000803
20
23.650000000000002
10
-46.000000000000803
20
23.650000000000006
10
-46.000000000000796
20
20.500000000000004
10
-49.000000000000014
20
20.500000000000004
10
-49.000000000000021
20
7.5
10
-52.150000000000027
20
7.5
10
-52.150000000000027
20
-7.5
10
-49.000000000000021
20
-7.5
10
-49.000000000000028
20
-20.500000000000004
10
-46.000000000000007
20
-20.500000000000004
10
-46.000000000000014
20
-23.650000000000006
10
-36
20
-23.650000000000002
10
-36.000000000000007
20
-20.500000000000004
10
-34
20
-20.500000000000004
42
-0.41421356237309503
10
-32
20
-18.500000000000004
10
-22
20
-18.5
42
-0.41421356237309503
10
-20
20
-20.500000000000004
10
-14
20
-20.500000000000004
42
-0.41421356237309437
10
-12
20
-18.500000000000007
10
-1.9999999999999951
20
-18.500000000000007
42
-0.41421356237309437
10
4.9960036108132044e-15
20
-20.500000000000004
10
6.0000000000000071
20
-20.500000000000004
42
-0.41421356237309437
10
8.0000000000000071
20
-18.500000000000007
10
18.000000000000007
20
-18.500000000000007
42
-0.41421356237309437
10
20.000000000000007
20
-20.500000000000004
10
24
20
-20.500000000000004
10
24
20
-23.650000000000006
10
39
20
-23.650000000000002
10
38.999999999999666
20
-18.656854249492994
42
0.31783724519582207
10
36.999999999999595
20
-15.828427124746671
42
-0.31783724519582118
10
34.99999999999919
20
-13.000000000000336
0
ENDSEC
0
SECTION
2
OBJECTS
0
DICTIONARY
5
C
100
AcDbDictionary
3
ACAD_GROUP
350
D
3
ACAD_MLINESTYLE
350
17
0
DICTIONARY
5
D
100
AcDbDictionary
0
DICTIONARY
5
1A
330
C
100
AcDbDictionary
0
DICTIONARY
5
17
100
AcDbDictionary
0
ENDSEC
0
EOF
