0
SECTION
2
HEADER
9
$INSUNITS
70
4
9
$ACADVER
1
AC1014
9
$HANDSEED
5
FFFF
0
ENDSEC
0
SECTION
2
TABLES
0
TABLE
2
VPORT
5
8
100
AcDbSymbolTable
0
ENDTAB
0
TABLE
2
LTYPE
5
5
100
AcDbSymbolTable
0
LTYPE
5
14
100
AcDbSymbolTableRecord
100
AcDbLinetypeTableRecord
2
BYBLOCK
70
0
0
LTYPE
5
15
100
AcDbSymbolTableRecord
100
AcDbLinetypeTableRecord
2
BYLAYER
70
0
0
ENDTAB
0
TABLE
2
LAYER
5
2
100
AcDbSymbolTable
70
2
0
LAYER
5
50
100
AcDbSymbolTableRecord
100
AcDbLayerTableRecord
2
0
70
0
6
CONTINUOUS
0
ENDTAB
0
TABLE
2
STYLE
5
3
100
AcDbSymbolTable
70
1
0
STYLE
5
11
100
AcDbSymbolTableRecord
100
AcDbTextStyleTableRecord
2
STANDARD
70
0
0
ENDTAB
0
TABLE
2
VIEW
5
6
100
AcDbSymbolTable
70
0
0
ENDTAB
0
TABLE
2
UCS
5
7
100
AcDbSymbolTable
70
0
0
ENDTAB
0
TABLE
2
APPID
5
9
100
AcDbSymbolTable
70
2
0
APPID
5
12
100
AcDbSymbolTableRecord
100
AcDbRegAppTableRecord
2
ACAD
70
0
0
ENDTAB
0
TABLE
2
DIMSTYLE
5
A
100
AcDbSymbolTable
70
1
0
ENDTAB
0
TABLE
2
BLOCK_RECORD
5
1
100
AcDbSymbolTable
70
1
0
BLOCK_RECORD
5
1F
100
AcDbSymbolTableRecord
100
AcDbBlockTableRecord
2
*MODEL_SPACE
0
BLOCK_RECORD
5
1B
100
AcDbSymbolTableRecord
100
AcDbBlockTableRecord
2
*PAPER_SPACE
0
ENDTAB
0
ENDSEC
0
SECTION
2
BLOCKS
0
BLOCK
5
20
100
AcDbEntity
100
AcDbBlockBegin
2
*MODEL_SPACE
0
ENDBLK
5
21
100
AcDbEntity
100
AcDbBlockEnd
0
BLOCK
5
1C
100
AcDbEntity
100
AcDbBlockBegin
2
*PAPER_SPACE
0
ENDBLK
5
1D
100
AcDbEntity
100
AcDbBlockEnd
0
ENDSEC
0
SECTION
2
ENTITIES
0
LWPOLYLINE
5
100
100
AcDbEntity
8
0
100
AcDbPolyline
90
36
70
1
43
0.0
10
-31.500000000000536
20
-3.2500000000000022
10
-31.500000000000536
20
-0.25000000000000189
10
-33.500000000000526
20
-0.250000000000003
42
-0.41421356237309515
10
-35.500000000000533
20
1.7499999999999993
10
-35.500000000000533
20
4.2499999999999964
42
0.41421356237309553
10
-46.000000000000526
20
14.749999999999993
10
-51.50000000000054
20
14.749999999999998
10
-51.50000000000054
20
9.7499999999999982
10
-58.50000000000054
20
9.7499999999999982
10
-58.50000000000054
20
-10.250000000000004
10
-51.50000000000054
20
-10.250000000000002
10
-51.50000000000054
20
-19.75000000000021
10
-37.50000000000054
20
-19.750000000000206
42
0.41421356237309764
10
-35.50000000000054
20
-17.75000000000021
10
-35.500000000000533
20
-14.250000000000199
42
-0.41421356237309503
10
-33.500000000000533
20
-12.250000000000199
10
39.499999999999474
20
-12.250000000000201
42
-0.41421356237309437
10
41.499999999999474
20
-14.250000000000203
10
41.499999999999474
20
-17.750000000000203
42
0.41421356237309537
10
43.49999999999946
20
-19.750000000000195
10
51.499999999999474
20
-19.750000000000199
10
51.499999999999474
20
-15.249999999999995
10
54.649999999999473
20
-15.249999999999995
10
54.649999999999473
20
4.7500000000000053
10
51.499999999999474
20
4.7500000000000044
10
51.499999999999474
20
14.749999999999998
10
43.499999999999474
20
14.75
42
0.41421356237309404
10
41.499999999999474
20
12.750000000000002
10
41.499999999999474
20
1.7499999999999982
42
-0.41421356237309503
10
39.499999999999467
20
-0.25000000000000189
10
38.49999999999946
20
-0.25000000000000189
10
38.49999999999946
20
-3.25
10
18.499999999999464
20
-3.25
10
18.499999999999464
20
-0.25000000000000189
10
-11.500000000000536
20
-0.25000000000000189
10
-11.500000000000536
20
-3.25
0
ENDSEC
0
SECTION
2
OBJECTS
0
DICTIONARY
5
C
100
AcDbDictionary
3
ACAD_GROUP
350
D
3
ACAD_MLINESTYLE
350
17
0
DICTIONARY
5
D
100
AcDbDictionary
0
DICTIONARY
5
1A
330
C
100
AcDbDictionary
0
DICTIONARY
5
17
100
AcDbDictionary
0
ENDSEC
0
EOF
