0
SECTION
2
HEADER
9
$INSUNITS
70
4
9
$ACADVER
1
AC1014
9
$HANDSEED
5
FFFF
0
ENDSEC
0
SECTION
2
TABLES
0
TABLE
2
VPORT
5
8
100
AcDbSymbolTable
0
ENDTAB
0
TABLE
2
LTYPE
5
5
100
AcDbSymbolTable
0
LTYPE
5
14
100
AcDbSymbolTableRecord
100
AcDbLinetypeTableRecord
2
BYBLOCK
70
0
0
LTYPE
5
15
100
AcDbSymbolTableRecord
100
AcDbLinetypeTableRecord
2
BYLAYER
70
0
0
ENDTAB
0
TABLE
2
LAYER
5
2
100
AcDbSymbolTable
70
2
0
LAYER
5
50
100
AcDbSymbolTableRecord
100
AcDbLayerTableRecord
2
0
70
0
6
CONTINUOUS
0
ENDTAB
0
TABLE
2
STYLE
5
3
100
AcDbSymbolTable
70
1
0
STYLE
5
11
100
AcDbSymbolTableRecord
100
AcDbTextStyleTableRecord
2
STANDARD
70
0
0
ENDTAB
0
TABLE
2
VIEW
5
6
100
AcDbSymbolTable
70
0
0
ENDTAB
0
TABLE
2
UCS
5
7
100
AcDbSymbolTable
70
0
0
ENDTAB
0
TABLE
2
APPID
5
9
100
AcDbSymbolTable
70
2
0
APPID
5
12
100
AcDbSymbolTableRecord
100
AcDbRegAppTableRecord
2
ACAD
70
0
0
ENDTAB
0
TABLE
2
DIMSTYLE
5
A
100
AcDbSymbolTable
70
1
0
ENDTAB
0
TABLE
2
BLOCK_RECORD
5
1
100
AcDbSymbolTable
70
1
0
BLOCK_RECORD
5
1F
100
AcDbSymbolTableRecord
100
AcDbBlockTableRecord
2
*MODEL_SPACE
0
BLOCK_RECORD
5
1B
100
AcDbSymbolTableRecord
100
AcDbBlockTableRecord
2
*PAPER_SPACE
0
ENDTAB
0
ENDSEC
0
SECTION
2
BLOCKS
0
BLOCK
5
20
100
AcDbEntity
100
AcDbBlockBegin
2
*MODEL_SPACE
0
ENDBLK
5
21
100
AcDbEntity
100
AcDbBlockEnd
0
BLOCK
5
1C
100
AcDbEntity
100
AcDbBlockBegin
2
*PAPER_SPACE
0
ENDBLK
5
1D
100
AcDbEntity
100
AcDbBlockEnd
0
ENDSEC
0
SECTION
2
ENTITIES
0
LWPOLYLINE
5
100
100
AcDbEntity
8
0
100
AcDbPolyline
90
4
70
1
43
0.0
10
-26.500000000000536
20
-0.25000000000019895
10
-26.500000000000536
20
-3.250000000000199
10
-41.50000000000054
20
-3.250000000000199
10
-41.50000000000054
20
-0.25000000000019895
0
LWPOLYLINE
5
101
100
AcDbEntity
8
0
100
AcDbPolyline
90
4
70
1
43
0.0
10
38.49999999999946
20
-0.25000000000019895
10
48.49999999999946
20
-0.25000000000019895
10
48.49999999999946
20
-3.2500000000001981
10
38.49999999999946
20
-3.2500000000001981
0
LWPOLYLINE
5
102
100
AcDbEntity
8
0
100
AcDbPolyline
90
32
70
1
43
0.0
10
-39.621320343560186
20
18.871320343559439
42
0.19891236737965648
10
-41.742640687119817
20
19.749999999999801
10
-51.50000000000054
20
19.749999999999794
10
-51.50000000000054
20
9.9999999999999964
10
-58.50000000000054
20
9.9999999999999964
10
-58.50000000000054
20
-10.000000000000004
10
-51.50000000000054
20
-10.000000000000004
10
-51.50000000000054
20
-19.75000000000021
10
-41.742640687119817
20
-19.75000000000021
42
0.19891236737965823
10
-39.621320343560178
20
-18.871320343559855
10
-36.378679656440895
20
-15.628679656440562
42
0.1989123673796592
10
-35.50000000000054
20
-13.507359312880922
10
-35.500000000000533
20
-10.250000000000199
42
-0.41421356237309503
10
-32.500000000000533
20
-7.250000000000199
10
38.499999999999474
20
-7.2500000000002052
42
-0.41421356237309503
10
41.499999999999474
20
-10.250000000000203
10
41.499999999999474
20
-16.750000000000199
42
0.41421356237309531
10
44.499999999999474
20
-19.750000000000206
10
51.499999999999474
20
-19.750000000000199
10
51.499999999999474
20
-10.000000000000316
10
54.649999999999473
20
-10.000000000000316
10
54.649999999999473
20
9.9999999999996838
10
51.499999999999474
20
9.9999999999996838
10
51.499999999999474
20
19.749999999999797
10
44.499999999999467
20
19.749999999999797
42
0.41421356237309725
10
41.499999999999474
20
16.749999999999797
10
41.499999999999474
20
5.7499999999997939
42
-0.41421356237309498
10
38.499999999999474
20
2.7499999999997939
10
-32.500000000000533
20
2.7499999999997948
42
-0.41421356237309503
10
-35.500000000000533
20
5.7499999999997931
10
-35.500000000000533
20
13.507359312880514
42
0.19891236737965734
10
-36.378679656440895
20
15.628679656440161
0
ENDSEC
0
SECTION
2
OBJECTS
0
DICTIONARY
5
C
100
AcDbDictionary
3
ACAD_GROUP
350
D
3
ACAD_MLINESTYLE
350
17
0
DICTIONARY
5
D
100
AcDbDictionary
0
DICTIONARY
5
1A
330
C
100
AcDbDictionary
0
DICTIONARY
5
17
100
AcDbDictionary
0
ENDSEC
0
EOF
