<svg version="1.1" xmlns="http://www.w3.org/2000/svg" xmlns:xlink="http://www.w3.org/1999/xlink" stroke-linecap="round" stroke-linejoin="round" stroke-width="0" fill-rule="evenodd" width="9.392299999999999mm" height="9.3147mm" viewBox="-4643 -4573 9392.3 9314.7" id="PpSdqSXt-aP587nn07b4"><defs><mask id="PpSdqSXt-aP587nn07b4_clear-1" fill="#000" stroke="#000"><g><rect x="-4643" y="-4573" width="9392.3" height="9314.7" fill="#fff"/><path d="M 1102.3 3152.3 1102.3 3152.3 1102.3 4004.1 1633.4 4004.1 1698.1 3986.8 1756 3953.3 1803.3 3906 1836.8 3848.1 1854.1 3783.4 1854.1 3152.3 1102.3 3152.3"/></g></mask><mask id="PpSdqSXt-aP587nn07b4_clear-2" fill="#000" stroke="#000"><g><rect x="-4643" y="-4573" width="9392.3" height="9314.7" fill="#fff"/><path d="M 1102.3 152.3 1102.3 152.3 1102.3 1004.1 1633.4 1004.1 1698.1 986.8 1756 953.3 1803.3 906 1836.8 848.1 1854.1 783.4 1854.1 152.3 1102.3 152.3"/></g></mask><mask id="PpSdqSXt-aP587nn07b4_clear-3" fill="#000" stroke="#000"><g><rect x="-4643" y="-4573" width="9392.3" height="9314.7" fill="#fff"/><path d="M 1102.3 -1004.1 1102.3 -1004.1 1102.3 -152.3 1854.1 -152.3 1854.1 -783.4 1836.8 -848.1 1803.3 -906 1756 -953.3 1698.1 -986.8 1633.4 -1004.1 1102.3 -1004.1"/></g></mask><mask id="PpSdqSXt-aP587nn07b4_clear-4" fill="#000" stroke="#000"><g><rect x="-4643" y="-4573" width="9392.3" height="9314.7" fill="#fff"/><path d="M 1102.3 1995.9 1102.3 1995.9 1102.3 2847.7 1854.1 2847.7 1854.1 2216.6 1836.8 2151.9 1803.3 2094 1756 2046.7 1698.1 2013.2 1633.4 1995.9 1102.3 1995.9"/></g></mask><mask id="PpSdqSXt-aP587nn07b4_clear-5" fill="#000" stroke="#000"><g><rect x="-4643" y="-4573" width="9392.3" height="9314.7" fill="#fff"/><path d="M 1102.3 -2847.7 1102.3 -2847.7 1102.3 -1995.9 1633.4 -1995.9 1698.1 -2013.2 1756 -2046.7 1803.3 -2094 1836.8 -2151.9 1854.1 -2216.6 1854.1 -2847.7 1102.3 -2847.7"/></g></mask><mask id="PpSdqSXt-aP587nn07b4_clear-6" fill="#000" stroke="#000"><g><rect x="-4643" y="-4573" width="9392.3" height="9314.7" fill="#fff"/><path d="M -3657.7 -2387.7 -3657.7 -2387.7 -3657.7 -1535.4 -3572.1 -1548.9 -3420 -1598.4 -3277.5 -1671 -3148.1 -1765 -3035 -1878.1 -2941 -2007.5 -2868.4 -2150 -2818.9 -2302.1 -2805.4 -2387.7 -3657.7 -2387.7"/></g></mask><rect x="-650" y="-750" width="1300" height="1500" id="PpSdqSXt-aP587nn07b4_pad-10"/><circle cx="0" cy="0" r="762" id="PpSdqSXt-aP587nn07b4_pad-11"/></defs><g transform="translate(0,168.70000000000073) scale(1,-1)" fill="currentColor" stroke="currentColor"><g mask="url(#PpSdqSXt-aP587nn07b4_clear-6)"><g mask="url(#PpSdqSXt-aP587nn07b4_clear-5)"><g mask="url(#PpSdqSXt-aP587nn07b4_clear-4)"><g mask="url(#PpSdqSXt-aP587nn07b4_clear-3)"><g mask="url(#PpSdqSXt-aP587nn07b4_clear-2)"><g mask="url(#PpSdqSXt-aP587nn07b4_clear-1)"><path d="M -1224.5 -4572.7 -1224.5 -4572.7 -1213.6 -4572.9 -1212.2 -4572.4 -1210.8 -4572.4 -1200.6 -4568.7 -1190.2 -4565.3 -1189.1 -4564.4 -1187.7 -4563.9 -1179.2 -4557.2 -1170.5 -4550.7 -1169.6 -4549.5 -1168.5 -4548.6 -1162.6 -4539.4 -1156.4 -4530.5 -1156 -4529.1 -1155.2 -4527.9 -1152.5 -4517.4 -1149.5 -4506.9 -1149.5 -4505.4 -1149.2 -4504 -1150 -4493.2 -1150.4 -4482.3 -1151 -4481 -1151.1 -4479.5 -1155.3 -4469.5 -1159.2 -4459.4 -1160.1 -4458.2 -1160.7 -4456.9 -1171.2 -4443.8 -1197.9 -4417 -1416.2 -4198.8 -1416.2 -4131 -1416.5 -4129 -1416.3 -4127.1 -1418.5 -4116.9 -1420.1 -4106.7 -1421.1 -4105 -1421.5 -4103 -1426.8 -4094.1 -1431.6 -4085 -1433.1 -4083.6 -1434.1 -4081.9 -1442 -4075.2 -1449.5 -4068 -1451.3 -4067.2 -1452.8 -4065.9 -1462.4 -4062 -1471.8 -4057.7 -1473.8 -4057.5 -1475.6 -4056.7 -1492.3 -4054.9 -1726.3 -4054.9 -1904.9 -3876.3 -1904.9 -2123.7 -1726.3 -1945.1 -173.7 -1945.1 -17.9 -2100.9 -16.3 -2102.1 -15 -2103.7 -6.3 -2109.3 2.1 -2115.3 4 -2115.9 5.7 -2117 15.7 -2119.5 25.6 -2122.5 27.6 -2122.5 29.5 -2123 39.8 -2122.2 50.2 -2121.9 52 -2121.2 54 -2121 63.5 -2117 73.3 -2113.4 74.8 -2112.2 76.7 -2111.4 89.8 -2100.9 144 -2046.7 201.9 -2013.2 266.6 -1995.9 797.7 -1995.9 797.7 -2923.8 798 -2925.8 797.8 -2927.7 800 -2937.9 801.7 -2948.1 802.6 -2949.8 803 -2951.8 808.3 -2960.7 813.2 -2969.8 814.6 -2971.2 815.6 -2972.9 823.5 -2979.6 831 -2986.7 832.8 -2987.6 834.3 -2988.9 843.9 -2992.8 853.3 -2997.1 855.3 -2997.3 857.1 -2998.1 873.8 -2999.9 950.1 -2999.9 950.1 -3076.2 950.4 -3078.2 950.2 -3080.1 952.4 -3090.3 954.1 -3100.5 955 -3102.2 955.4 -3104.2 960.7 -3113.1 965.6 -3122.2 967 -3123.6 968 -3125.3 975.9 -3132 983.4 -3139.1 985.2 -3140 986.7 -3141.3 996.3 -3145.2 1005.7 -3149.5 1007.7 -3149.7 1009.5 -3150.5 1026.2 -3152.3 1854.1 -3152.3 1854.1 -3478.8 1855.2 -3485.8 1855.4 -3493 1857.2 -3497.9 1858 -3503 1861.4 -3509.4 1863.9 -3516.1 1867.1 -3520.2 1869.6 -3524.8 1874.7 -3529.7 1879.2 -3535.3 1883.6 -3538.1 1887.4 -3541.7 1893.9 -3544.7 1899.9 -3548.6 1905 -3549.9 1909.7 -3552.1 1916.8 -3552.9 1923.8 -3554.6 1929 -3554.2 1934.1 -3554.8 1941.2 -3553.3 1948.3 -3552.7 1953.1 -3550.7 1958.2 -3549.6 1964.3 -3545.9 1970.9 -3543.1 1976.5 -3538.6 1979.3 -3537 1980.8 -3535.2 1984 -3532.6 2720.8 -2795.8 2726.1 -2788.4 2732.1 -2781.5 2733.3 -2778.4 2735.2 -2775.8 2737.9 -2767.1 2741.3 -2758.6 2741.7 -2754.5 2742.4 -2752.3 2742.3 -2749.1 2743.1 -2742 2743.1 -2327.8 2905.5 -1935.7 3205.7 -1635.5 3597.8 -1473.1 4022.2 -1473.1 4350.7 -1609.2 4354.2 -1610 4357.5 -1611.6 4366.2 -1612.8 4374.6 -1614.8 4378.3 -1614.5 4381.9 -1614.9 4390.4 -1613.3 4399.1 -1612.5 4402.5 -1611 4406.1 -1610.3 4413.6 -1606 4421.6 -1602.5 4424.3 -1600 4427.5 -1598.2 4433.3 -1591.7 4439.7 -1585.8 4441.5 -1582.6 4443.9 -1579.9 4451.4 -1564.9 4619.2 -1103.8 4619.2 -1103.4 4619.5 -1103 4620.2 -1100 4620.9 -1098.3 4621.3 -1095 4623.2 -1086.6 4749.2 -8.8 4749.2 -8.4 4749.3 -7.9 4749.2 8.8 4623.2 1086.6 4623.1 1087.1 4623.1 1087.5 4619.2 1103.8 4451.4 1564.9 4449.6 1568.1 4448.5 1571.6 4443.6 1578.7 4439.3 1586.3 4436.6 1588.8 4434.5 1591.8 4427.5 1597 4421.1 1602.8 4417.7 1604.3 4414.8 1606.5 4406.5 1609.2 4398.5 1612.6 4394.9 1613 4391.4 1614.1 4382.7 1614 4374 1614.8 4370.5 1613.9 4366.8 1613.9 4350.7 1609.2 4022.2 1473.1 3597.8 1473.1 3205.7 1635.5 2905.5 1935.7 2743.1 2327.8 2743.1 2752.2 2905.5 3144.3 3159.3 3398.1 3161.2 3400.6 3163.5 3402.7 3168.3 3410.6 3173.7 3418.1 3174.6 3421.1 3176.2 3423.7 3178.2 3432.8 3180.9 3441.6 3180.9 3444.7 3181.5 3447.7 3180.5 3457 3180.3 3466.2 3179.2 3469.1 3178.9 3472.2 3175 3480.6 3171.9 3489.3 3169.9 3491.7 3168.6 3494.5 3157.8 3507.3 2843.1 3804.2 2842.7 3804.4 2842.5 3804.8 2828.9 3814.7 1889.2 4357.3 1888.8 4357.5 1888.4 4357.8 1873 4364.3 833.4 4675.5 832.9 4675.6 832.5 4675.8 816 4678.6 -267.3 4741.7 -267.8 4741.6 -268.2 4741.7 -285 4740.7 -1353.6 4552.2 -1354.1 4552.1 -1354.5 4552.1 -1370.6 4547.2 -2366.9 4117.4 -2367.3 4117.1 -2367.8 4117 -2382.3 4108.5 -3164.3 3526.3 -3169.5 3520.9 -3175.4 3516.2 -3178 3512.1 -3181.4 3508.6 -3184.6 3501.9 -3188.7 3495.5 -3189.9 3490.8 -3191.9 3486.4 -3192.8 3479 -3194.7 3471.7 -3194.3 3466.8 -3194.9 3462 -3193.3 3454.6 -3192.8 3447.2 -3190.9 3442.7 -3189.9 3437.9 -3186.1 3431.4 -3183.1 3424.5 -3179 3419.4 -3177.4 3416.7 -3175.5 3415 -3172.7 3411.4 -3164.5 3403.3 -3162.1 3401.6 -3160.3 3399.4 -3154.4 3395.8 -3150.1 3392.1 -3147.4 3391 -3144.5 3389 -3141.8 3388.1 -3139.3 3386.6 -3132.7 3385.1 -3127.3 3382.9 -3123.6 3382.5 -3121 3381.7 -3118.1 3381.8 -3115.3 3381.1 -3113.2 3381.4 -3110.6 3381.1 -1981 3381.1 -1979 3381.4 -1977.1 3381.2 -1966.9 3383.4 -1956.7 3385 -1955 3386 -1953 3386.4 -1944.1 3391.7 -1935 3396.6 -1933.6 3398 -1931.9 3399 -1925.2 3406.9 -1918 3414.4 -1917.2 3416.2 -1915.9 3417.7 -1912 3427.3 -1907.7 3436.7 -1907.5 3438.7 -1906.7 3440.5 -1904.9 3457.2 -1904.9 3876.3 -1726.3 4054.9 -173.7 4054.9 -17.9 3899.1 -16.3 3897.9 -15 3896.3 -6.3 3890.7 2.1 3884.7 4 3884.1 5.6 3883 15.7 3880.5 25.6 3877.5 27.6 3877.5 29.5 3877 39.8 3877.8 50.2 3878.1 52 3878.8 54 3879 63.5 3883 73.3 3886.6 74.8 3887.8 76.7 3888.6 89.7 3899.1 144 3953.3 201.9 3986.8 266.6 4004.1 797.7 4004.1 797.7 3076.2 798 3074.2 797.8 3072.3 800 3062.1 801.7 3051.9 802.6 3050.2 803 3048.2 808.3 3039.3 813.2 3030.2 814.6 3028.8 815.6 3027.1 823.5 3020.4 831 3013.3 832.8 3012.4 834.3 3011.1 843.9 3007.2 853.3 3002.9 855.3 3002.7 857.1 3001.9 873.8 3000.1 950.1 3000.1 950.1 2999.9 873.8 2999.9 871.8 2999.6 869.9 2999.8 859.7 2997.6 849.5 2995.9 847.8 2995 845.8 2994.6 836.9 2989.3 827.8 2984.4 826.4 2983 824.7 2982 818 2974.1 810.9 2966.6 810 2964.8 808.7 2963.3 804.8 2953.7 800.5 2944.3 800.3 2942.3 799.5 2940.5 797.7 2923.8 797.7 1995.9 266.6 1995.9 201.9 2013.2 144 2046.7 89.7 2100.9 88.1 2102.1 86.9 2103.7 78.2 2109.3 69.8 2115.3 67.9 2115.9 66.2 2117 56.2 2119.5 46.3 2122.5 44.3 2122.5 42.3 2123 32 2122.2 21.7 2121.9 19.8 2121.2 17.8 2121 8.3 2117 -1.4 2113.4 -3 2112.2 -4.8 2111.4 -17.9 2100.9 -173.7 1945.1 -1726.3 1945.1 -1904.9 2123.7 -1904.9 2542.8 -1905.2 2544.8 -1905 2546.7 -1907.2 2556.9 -1908.8 2567.1 -1909.8 2568.8 -1910.2 2570.8 -1915.5 2579.7 -1920.4 2588.8 -1921.8 2590.2 -1922.8 2591.9 -1930.7 2598.6 -1938.2 2605.8 -1940 2606.6 -1941.5 2607.9 -1951.1 2611.8 -1960.5 2616.1 -1962.5 2616.3 -1964.3 2617.1 -1981 2618.9 -2667 2618.9 -2669 2618.6 -2670.9 2618.8 -2681.1 2616.6 -2691.3 2615 -2693 2614 -2695 2613.6 -2703.9 2608.3 -2713 2603.4 -2714.4 2602 -2716.1 2601 -2722.8 2593.1 -2730 2585.6 -2730.8 2583.8 -2732.1 2582.3 -2736 2572.7 -2740.3 2563.3 -2740.5 2561.3 -2741.3 2559.5 -2743.1 2542.8 -2743.1 2327.8 -2905.5 1935.7 -3205.7 1635.5 -3597.8 1473.1 -4022.2 1473.1 -4374.4 1619 -4382.3 1620.9 -4389.9 1623.6 -4394.2 1623.6 -4398.4 1624.6 -4406.4 1623.9 -4414.4 1624 -4418.6 1622.7 -4422.9 1622.3 -4430.2 1619 -4437.9 1616.6 -4441.4 1614.1 -4445.3 1612.3 -4451.3 1606.9 -4457.8 1602.1 -4460.3 1598.6 -4463.4 1595.7 -4467.3 1588.6 -4472 1582 -4473.9 1576.7 -4475.3 1574.1 -4475.8 1571.3 -4477.6 1566.2 -4640.9 877.1 -4641.2 873.5 -4642.3 869.9 -4642.1 861.2 -4642.7 852.6 -4641.7 849 -4641.7 845.3 -4638.7 837.2 -4636.5 828.8 -4634.5 825.7 -4633.2 822.2 -4627.8 815.5 -4623 808.2 -4620.1 805.9 -4617.8 803 -4610.6 798.3 -4603.7 793 -4600.2 791.7 -4597.1 789.7 -4588.7 787.6 -4580.6 784.7 -4576.9 784.6 -4573.3 783.7 -4564.7 784.4 -4556 784.2 -4552.4 785.3 -4548.8 785.6 -4540.8 789 -4532.5 791.6 -4529.5 793.8 -4526.1 795.3 -4513 805.7 -4414.3 904.5 -4022.2 1066.9 -3597.8 1066.9 -3205.7 904.5 -2905.5 604.3 -2832.5 428.1 -2826.3 418.1 -2820.4 408.1 -2819.9 407.7 -2819.6 407.2 -2810.5 399.7 -2801.7 392.1 -2801.1 391.9 -2800.6 391.5 -2789.8 387.3 -2778.9 382.9 -2778.1 382.8 -2777.7 382.7 -2775.8 382.6 -2762.2 381.1 -1981 381.1 -1979 381.4 -1977.1 381.2 -1966.9 383.4 -1956.7 385 -1955 386 -1953 386.4 -1944.1 391.7 -1935 396.6 -1933.6 398 -1931.9 399 -1925.2 406.9 -1918 414.4 -1917.2 416.2 -1915.9 417.7 -1912 427.3 -1907.7 436.7 -1907.5 438.7 -1906.7 440.5 -1904.9 457.2 -1904.9 876.3 -1726.3 1054.9 -173.7 1054.9 -17.9 899.1 -16.3 897.9 -15 896.3 -6.3 890.7 2.1 884.7 4 884.1 5.6 883 15.7 880.5 25.6 877.5 27.6 877.5 29.5 877 39.8 877.8 50.2 878.1 52 878.8 54 879 63.5 883 73.3 886.6 74.8 887.8 76.7 888.6 89.7 899.1 144 953.3 201.9 986.8 266.6 1004.1 797.7 1004.1 797.7 76.2 798 74.2 797.8 72.3 800 62.1 801.7 51.9 802.6 50.2 803 48.2 808.3 39.3 813.2 30.2 814.6 28.8 815.6 27.1 823.5 20.4 831 13.3 832.8 12.4 834.3 11.1 843.9 7.2 853.3 2.9 855.3 2.7 857.1 1.9 873.8 0.1 950.1 0.1 950.1 -0.1 873.8 -0.1 871.8 -0.4 869.9 -0.2 859.7 -2.4 849.5 -4.1 847.8 -5 845.8 -5.4 836.9 -10.7 827.8 -15.6 826.4 -17 824.7 -18 818 -25.9 810.9 -33.4 810 -35.2 808.7 -36.7 804.8 -46.3 800.5 -55.7 800.3 -57.7 799.5 -59.5 797.7 -76.2 797.7 -1004.1 266.6 -1004.1 201.9 -986.8 144 -953.3 89.7 -899.1 88.1 -897.9 86.9 -896.3 78.2 -890.7 69.8 -884.7 67.9 -884.1 66.2 -883 56.2 -880.5 46.3 -877.5 44.3 -877.5 42.3 -877 32 -877.8 21.7 -878.1 19.8 -878.8 17.8 -879 8.3 -883 -1.4 -886.6 -3 -887.8 -4.8 -888.6 -17.9 -899.1 -173.7 -1054.9 -1726.3 -1054.9 -1904.9 -876.3 -1904.9 -457.2 -1905.2 -455.2 -1905 -453.3 -1907.2 -443.1 -1908.8 -432.9 -1909.8 -431.2 -1910.2 -429.2 -1915.5 -420.3 -1920.4 -411.2 -1921.8 -409.8 -1922.8 -408.1 -1930.7 -401.4 -1938.2 -394.2 -1940 -393.4 -1941.5 -392.1 -1951.1 -388.2 -1960.5 -383.9 -1962.5 -383.7 -1964.3 -382.9 -1981 -381.1 -2762.2 -381.1 -2773.7 -383 -2785.3 -384.7 -2785.9 -384.9 -2786.5 -385 -2796.7 -390.5 -2807.2 -395.8 -2807.7 -396.3 -2808.2 -396.6 -2816.2 -405 -2824.4 -413.4 -2824.8 -414 -2825.2 -414.4 -2825.9 -416.1 -2832.5 -428.1 -2905.5 -604.3 -3205.7 -904.5 -3597.8 -1066.9 -4022.2 -1066.9 -4414.3 -904.5 -4513 -805.7 -4516 -803.6 -4518.5 -800.8 -4526 -796.4 -4533 -791.4 -4536.5 -790.3 -4539.7 -788.4 -4548.2 -786.7 -4556.5 -784.2 -4560.2 -784.3 -4563.8 -783.5 -4572.4 -784.6 -4581.1 -784.8 -4584.6 -786.1 -4588.2 -786.5 -4596.1 -790.3 -4604.2 -793.2 -4607.1 -795.5 -4610.4 -797.1 -4616.6 -803.2 -4623.4 -808.6 -4625.4 -811.7 -4628.1 -814.3 -4632 -822 -4636.7 -829.3 -4637.6 -832.9 -4639.3 -836.2 -4640.6 -844.7 -4642.7 -853.1 -4642.4 -856.8 -4643 -860.5 -4640.9 -877.1 -4465.8 -1616 -4465.6 -1616.4 -4465.6 -1616.9 -4459.8 -1632.6 -4454.6 -1643 -4449.8 -1649.6 -4445.7 -1656.7 -4442.6 -1659.5 -4440.1 -1662.9 -4433.4 -1667.7 -4427.3 -1673.1 -4423.5 -1674.8 -4420.1 -1677.2 -4412.2 -1679.6 -4404.7 -1682.8 -4400.6 -1683.1 -4396.5 -1684.3 -4388.3 -1684.1 -4380.2 -1684.7 -4376.1 -1683.7 -4372 -1683.6 -4364.3 -1680.7 -4356.3 -1678.7 -4351.6 -1676 -4348.9 -1675 -4346.6 -1673.2 -4344.5 -1672 -4200 -1598.4 -4047.9 -1548.9 -3962.3 -1535.4 -3962.3 -2463.8 -3962 -2465.8 -3962.2 -2467.7 -3960 -2477.9 -3958.3 -2488.1 -3957.4 -2489.8 -3957 -2491.8 -3951.7 -2500.7 -3946.8 -2509.8 -3945.4 -2511.2 -3944.4 -2512.9 -3936.5 -2519.6 -3929 -2526.7 -3927.2 -2527.6 -3925.7 -2528.9 -3916.1 -2532.7 -3906.7 -2537.1 -3904.7 -2537.3 -3902.9 -2538.1 -3886.2 -2539.9 -3809.9 -2539.9 -3809.9 -2616.2 -3809.6 -2618.2 -3809.8 -2620.1 -3807.6 -2630.3 -3805.9 -2640.5 -3805 -2642.2 -3804.6 -2644.2 -3799.3 -2653.1 -3794.4 -2662.2 -3793 -2663.6 -3792 -2665.3 -3784.1 -2672 -3776.6 -2679.1 -3774.8 -2680 -3773.3 -2681.3 -3763.7 -2685.2 -3754.3 -2689.5 -3752.3 -2689.7 -3750.5 -2690.5 -3733.8 -2692.3 -2805.4 -2692.3 -2818.9 -2777.9 -2868.4 -2930 -2941 -3072.5 -3035 -3201.9 -3148.1 -3315 -3216.2 -3364.5 -3217 -3365.3 -3218 -3365.9 -3225.6 -3374 -3233.5 -3382 -3234 -3383 -3234.8 -3383.9 -3239.4 -3394 -3244.3 -3404.1 -3244.5 -3405.2 -3244.9 -3406.3 -3246.1 -3417.4 -3247.5 -3428.5 -3247.3 -3429.6 -3247.4 -3430.7 -3245 -3441.6 -3242.8 -3452.6 -3242.2 -3453.6 -3242 -3454.7 -3236.2 -3464.2 -3230.6 -3474 -3229.8 -3474.7 -3229.2 -3475.7 -3216.9 -3487.2 -2382.3 -4108.5 -2381.9 -4108.7 -2381.5 -4109.1 -2367 -4117.4 -1370.6 -4547.2 -1370.1 -4547.3 -1369.7 -4547.5 -1353.6 -4552.2 -1238.2 -4572.6 -1236.8 -4572.6 -1235.4 -4573 -1224.5 -4572.7"/></g></g></g></g></g></g><use xlink:href="#PpSdqSXt-aP587nn07b4_pad-10" x="950" y="-3000"/><use xlink:href="#PpSdqSXt-aP587nn07b4_pad-10" x="-950" y="-3000"/><use xlink:href="#PpSdqSXt-aP587nn07b4_pad-11" x="3810" y="-2540"/><use xlink:href="#PpSdqSXt-aP587nn07b4_pad-10" x="-950" y="0"/><use xlink:href="#PpSdqSXt-aP587nn07b4_pad-10" x="950" y="0"/><use xlink:href="#PpSdqSXt-aP587nn07b4_pad-10" x="-950" y="3000"/><use xlink:href="#PpSdqSXt-aP587nn07b4_pad-10" x="950" y="3000"/><use xlink:href="#PpSdqSXt-aP587nn07b4_pad-11" x="-3810" y="2540"/><use xlink:href="#PpSdqSXt-aP587nn07b4_pad-11" x="-3810" y="0"/><use xlink:href="#PpSdqSXt-aP587nn07b4_pad-11" x="3810" y="2540"/><use xlink:href="#PpSdqSXt-aP587nn07b4_pad-11" x="-3810" y="-2540"/><path d="M -958.9 -4009.4 -718.4 -4249.9 M -958.9 -3008.9 -950 -3000 M -958.9 -3008.9 -958.9 -4009.4 M -718.4 -4249.9 1913.4 -4249.9 M 3623.3 -2540 3810 -2540 M 3623.3 -2540 1913.4 -4249.9" fill="none" stroke-width="304.8"/><path d="M -950 0 -3810 0 M -2921.2 3000 -950 3000 M -2921.2 3000 -3381.2 2540 -3810 2540" fill="none" stroke-width="152.4"/></g></svg>