<svg version="1.1" xmlns="http://www.w3.org/2000/svg" xmlns:xlink="http://www.w3.org/1999/xlink" stroke-linecap="round" stroke-linejoin="round" stroke-width="0" fill-rule="evenodd" width="7.7485mm" height="8.75mm" viewBox="-3788.5 -4600 7748.5 8750" id="rBlSy9rwQLT9c69sXjDE"><g transform="translate(0,-450) scale(1,-1)" fill="currentColor" stroke="currentColor"><path d="M 155.2 -4574.6 299.4 -4574.6 307 -4574.4 314.5 -4573.8 322 -4572.8 329.4 -4571.4 336.7 -4569.7 344 -4567.5 351.1 -4565 358.1 -4562.1 364.9 -4558.9 371.6 -4555.3 378 -4551.3 384.2 -4547 390.2 -4542.4 396 -4537.5 401.4 -4532.3 406.6 -4526.9 411.5 -4521.1 416.1 -4515.1 420.4 -4508.9 424.4 -4502.4 428 -4495.8 431.2 -4489 434.1 -4482 436.6 -4474.9 438.8 -4467.6 440.5 -4460.3 441.9 -4452.9 442.9 -4445.4 443.5 -4437.9 443.7 -4430.3 443.7 -4069.7 443.5 -4062.1 442.9 -4054.6 441.9 -4047.1 440.5 -4039.7 438.8 -4032.4 436.6 -4025.1 434.1 -4018 431.2 -4011 428 -4004.2 424.4 -3997.6 420.4 -3991.1 416.1 -3984.9 411.5 -3978.9 406.6 -3973.1 401.4 -3967.7 396 -3962.5 390.2 -3957.6 384.2 -3953 378 -3948.7 371.6 -3944.7 364.9 -3941.1 358.1 -3937.9 351.1 -3935 344 -3932.5 336.8 -3930.3 329.4 -3928.6 322 -3927.2 314.5 -3926.2 307 -3925.6 299.4 -3925.4 155.2 -3925.4 M -83 -4069.7 -263.4 -3925.4 -263.4 -4574.6 M -443.7 -4574.6 -83 -4574.6 M 3573.9 -1283.9 3682.1 -1283.9 M 3573.9 -1283.9 3573.9 -1644.6 3790.3 -1644.6 3797.9 -1644.4 3805.4 -1643.8 3812.9 -1642.8 3820.3 -1641.4 3827.6 -1639.7 3834.9 -1637.5 3842 -1635 3849 -1632.1 3855.8 -1628.9 3862.5 -1625.3 3868.9 -1621.3 3875.1 -1617 3881.1 -1612.4 3886.9 -1607.5 3892.3 -1602.3 3897.5 -1596.9 3902.4 -1591.1 3907 -1585.1 3911.3 -1578.9 3915.3 -1572.4 3918.9 -1565.8 3922.1 -1559 3925 -1552 3927.5 -1544.9 3929.7 -1537.6 3931.4 -1530.3 3932.8 -1522.9 3933.8 -1515.4 3934.4 -1507.9 3934.6 -1500.3 3934.6 -1139.7 3934.4 -1132.1 3933.8 -1124.6 3932.8 -1117.1 3931.4 -1109.7 3929.7 -1102.4 3927.5 -1095.1 3925 -1088 3922.1 -1081 3918.9 -1074.2 3915.3 -1067.6 3911.3 -1061.1 3907 -1054.9 3902.4 -1048.9 3897.5 -1043.1 3892.3 -1037.7 3886.9 -1032.5 3881.1 -1027.6 3875.1 -1023 3868.9 -1018.7 3862.5 -1014.7 3855.8 -1011.1 3849 -1007.9 3842 -1005 3834.9 -1002.5 3827.7 -1000.3 3820.3 -998.6 3812.9 -997.2 3805.4 -996.2 3797.9 -995.6 3790.3 -995.4 3573.9 -995.4 M 3262.6 -995.4 3262.6 -1644.6 M 2901.9 -1644.6 3262.6 -995.4 M 2901.9 -995.4 2901.9 -1644.6 M 2590.6 -1644.6 2590.6 -995.4 2410.3 -995.4 2402 -995.6 2393.7 -996.2 2385.4 -997.1 2377.2 -998.5 2369 -1000.2 2361 -1002.3 2353 -1004.7 2345.2 -1007.6 2337.5 -1010.8 2329.9 -1014.3 2322.6 -1018.2 2315.4 -1022.4 2308.4 -1027 2301.6 -1031.8 2295.1 -1037 2288.8 -1042.5 2282.8 -1048.2 2277.1 -1054.2 2271.6 -1060.5 2266.4 -1067 2261.6 -1073.8 2257 -1080.8 2252.8 -1088 2248.9 -1095.3 2245.4 -1102.9 2242.2 -1110.6 2239.3 -1118.4 2236.9 -1126.4 2234.8 -1134.4 2233.1 -1142.6 2231.7 -1150.8 2230.8 -1159.1 2230.2 -1167.4 2230 -1175.7 M 2229.9 -1175.7 2229.9 -1464.3 M 2230 -1464.3 2230.2 -1472.6 2230.8 -1480.9 2231.7 -1489.2 2233.1 -1497.4 2234.8 -1505.6 2236.9 -1513.6 2239.3 -1521.6 2242.2 -1529.4 2245.4 -1537.1 2248.9 -1544.7 2252.8 -1552 2257 -1559.2 2261.6 -1566.2 2266.4 -1573 2271.6 -1579.5 2277.1 -1585.8 2282.8 -1591.8 2288.8 -1597.5 2295.1 -1603 2301.6 -1608.2 2308.4 -1613 2315.4 -1617.6 2322.6 -1621.8 2329.9 -1625.7 2337.5 -1629.2 2345.2 -1632.4 2353 -1635.3 2361 -1637.7 2369 -1639.8 2377.2 -1641.5 2385.4 -1642.9 2393.7 -1643.8 2402 -1644.4 2410.3 -1644.6 2590.6 -1644.6 M 493.4 -1574.6 493.4 -925.4 313.1 -925.4 304.8 -925.6 296.5 -926.2 288.2 -927.1 280 -928.5 271.8 -930.2 263.8 -932.3 255.8 -934.7 248 -937.6 240.3 -940.8 232.7 -944.3 225.4 -948.2 218.2 -952.4 211.2 -957 204.4 -961.8 197.9 -967 191.6 -972.5 185.6 -978.2 179.9 -984.2 174.4 -990.5 169.2 -997 164.4 -1003.8 159.8 -1010.8 155.6 -1018 151.7 -1025.3 148.2 -1032.9 145 -1040.6 142.1 -1048.4 139.7 -1056.4 137.6 -1064.4 135.9 -1072.6 134.5 -1080.8 133.6 -1089.1 133 -1097.4 132.8 -1105.7 133 -1114 133.6 -1122.3 134.5 -1130.6 135.9 -1138.8 137.6 -1147 139.7 -1155 142.1 -1163 145 -1170.8 148.2 -1178.5 151.7 -1186.1 155.6 -1193.4 159.8 -1200.6 164.4 -1207.6 169.2 -1214.4 174.4 -1220.9 179.9 -1227.2 185.6 -1233.2 191.6 -1238.9 197.9 -1244.4 204.4 -1249.6 211.2 -1254.4 218.2 -1259 225.4 -1263.2 232.7 -1267.1 240.3 -1270.6 248 -1273.8 255.8 -1276.7 263.8 -1279.1 271.8 -1281.2 280 -1282.9 288.2 -1284.3 296.5 -1285.2 304.8 -1285.8 313.1 -1286 M 313.1 -1286.1 493.4 -1286.1 M 277 -1286.1 132.7 -1574.6 M -132.7 -1069.7 -313.1 -925.4 -313.1 -1574.6 M -493.4 -1574.6 -132.7 -1574.6 M 482.2 1425.4 482.2 2074.6 301.9 2074.6 293.6 2074.4 285.3 2073.8 277 2072.9 268.8 2071.5 260.6 2069.8 252.6 2067.7 244.6 2065.3 236.8 2062.4 229.1 2059.2 221.5 2055.7 214.2 2051.8 207 2047.6 200 2043 193.2 2038.2 186.7 2033 180.4 2027.5 174.4 2021.8 168.7 2015.8 163.2 2009.5 158 2003 153.2 1996.2 148.6 1989.2 144.4 1982 140.5 1974.7 137 1967.1 133.8 1959.4 130.9 1951.6 128.5 1943.6 126.4 1935.6 124.7 1927.4 123.3 1919.2 122.4 1910.9 121.8 1902.6 121.6 1894.3 121.8 1886 122.4 1877.7 123.3 1869.4 124.7 1861.2 126.4 1853 128.5 1845 130.9 1837 133.8 1829.2 137 1821.5 140.5 1813.9 144.4 1806.6 148.6 1799.4 153.2 1792.4 158 1785.6 163.2 1779.1 168.7 1772.8 174.4 1766.8 180.4 1761.1 186.7 1755.6 193.2 1750.4 200 1745.6 207 1741 214.2 1736.8 221.5 1732.9 229.1 1729.4 236.8 1726.2 244.6 1723.3 252.6 1720.9 260.6 1718.8 268.8 1717.1 277 1715.7 285.3 1714.8 293.6 1714.2 301.9 1714 M 301.9 1713.9 482.2 1713.9 M 265.8 1713.9 121.6 1425.4 M -504.6 1912.3 -504.4 1920.3 -503.8 1928.2 -502.8 1936.1 -501.5 1944 -499.7 1951.7 -497.6 1959.4 -495.1 1967 -492.2 1974.4 -489 1981.7 -485.4 1988.8 -481.5 1995.7 -477.2 2002.5 -472.7 2009 -467.8 2015.3 -462.6 2021.3 -457.1 2027.1 -451.3 2032.6 -445.3 2037.8 -439 2042.7 -432.5 2047.2 -425.7 2051.5 -418.8 2055.4 -411.7 2059 -404.4 2062.2 -397 2065.1 -389.4 2067.6 -381.7 2069.7 -374 2071.5 -366.1 2072.8 -358.2 2073.8 -350.3 2074.4 -342.3 2074.6 -333.3 2074.4 -324.2 2073.8 -315.3 2072.8 -306.3 2071.5 -297.4 2069.7 -288.7 2067.6 -280 2065.1 -271.4 2062.2 -263 2058.9 -254.7 2055.3 -246.6 2051.3 -238.6 2047 -230.9 2042.3 -223.3 2037.3 -216 2032 -209 2026.4 -202.1 2020.5 -195.6 2014.2 -189.3 2007.7 -183.3 2001 -177.6 1994 -172.2 1986.7 -167.1 1979.2 -162.4 1971.5 -158 1963.6 -154 1955.5 -150.3 1947.3 -146.9 1938.9 -143.9 1930.3 M -450.4 1786.1 -456 1791.6 -461.3 1797.4 -466.3 1803.4 -471.1 1809.6 -475.5 1816.1 -479.7 1822.7 -483.6 1829.5 -487.2 1836.5 -490.4 1843.6 -493.3 1850.9 -495.9 1858.3 -498.2 1865.8 -500.1 1873.4 -501.7 1881.1 -502.9 1888.8 -503.8 1896.6 -504.3 1904.5 -504.5 1912.3 M -450.5 1786.1 -143.9 1425.4 -504.6 1425.4 M -2301.8 3425.4 -2309.4 3425.6 -2316.9 3426.2 -2324.4 3427.2 -2331.8 3428.6 -2339.2 3430.3 -2346.4 3432.5 -2353.5 3435 -2360.5 3437.9 -2367.3 3441.1 -2374 3444.7 -2380.4 3448.7 -2386.6 3453 -2392.6 3457.6 -2398.4 3462.5 -2403.8 3467.7 -2409 3473.1 -2413.9 3478.9 -2418.5 3484.9 -2422.8 3491.1 -2426.8 3497.6 -2430.4 3504.2 -2433.6 3511 -2436.5 3518 -2439 3525.1 -2441.2 3532.4 -2442.9 3539.7 -2444.3 3547.1 -2445.3 3554.6 -2445.9 3562.1 -2446.1 3569.7 M -2301.8 3425.4 -2290.9 3425.6 -2280 3426.2 -2269.1 3427.2 -2258.2 3428.5 -2247.4 3430.3 -2236.7 3432.4 -2226.1 3435 -2215.5 3437.9 -2205.1 3441.2 -2194.8 3444.8 -2184.6 3448.8 -2174.6 3453.2 -2164.7 3458 -2155.1 3463.1 -2145.6 3468.5 -2136.3 3474.3 -2127.2 3480.4 -2118.4 3486.8 -2109.8 3493.5 -2101.4 3500.6 -2093.3 3507.9 -2085.4 3515.6 M -2103.4 3930.3 -2103.6 3937.9 -2104.2 3945.4 -2105.2 3952.9 -2106.6 3960.3 -2108.3 3967.6 -2110.5 3974.9 -2113 3982 -2115.9 3989 -2119.1 3995.8 -2122.7 4002.5 -2126.7 4008.9 -2131 4015.1 -2135.6 4021.1 -2140.5 4026.9 -2145.7 4032.3 -2151.1 4037.5 -2156.9 4042.4 -2162.9 4047 -2169.1 4051.3 -2175.6 4055.3 -2182.2 4058.9 -2189 4062.1 -2196 4065 -2203.1 4067.5 -2210.4 4069.7 -2217.7 4071.4 -2225.1 4072.8 -2232.6 4073.8 -2240.1 4074.4 -2247.7 4074.6 -2257.9 4074.4 -2268.2 4073.8 -2278.4 4072.9 -2288.5 4071.5 -2298.6 4069.8 -2308.6 4067.7 -2318.5 4065.2 -2328.4 4062.3 -2338.1 4059.1 -2347.7 4055.5 -2357.1 4051.5 -2366.4 4047.2 -2375.5 4042.5 -2384.4 4037.5 -2393.2 4032.2 -2401.7 4026.5 -2410 4020.5 M -2175.5 3804.1 -2169.1 3808.1 -2162.8 3812.5 -2156.8 3817.1 -2151.1 3822.1 -2145.6 3827.4 -2140.4 3833 -2135.5 3838.8 -2130.9 3844.8 -2126.6 3851.1 -2122.7 3857.6 -2119.1 3864.3 -2115.9 3871.2 -2113 3878.2 -2110.5 3885.4 -2108.3 3892.7 -2106.5 3900.1 -2105.2 3907.6 -2104.2 3915.1 -2103.6 3922.7 -2103.4 3930.3 M -2373.9 3695.9 -2380.3 3691.9 -2386.6 3687.5 -2392.6 3682.9 -2398.3 3677.9 -2403.8 3672.6 -2409 3667 -2413.9 3661.2 -2418.5 3655.2 -2422.8 3648.9 -2426.7 3642.4 -2430.3 3635.7 -2433.5 3628.8 -2436.4 3621.8 -2439 3614.6 -2441.1 3607.3 -2442.9 3599.9 -2444.2 3592.4 -2445.2 3584.9 -2445.8 3577.3 -2446 3569.7 M -2373.9 3695.9 -2175.6 3804.1 M -2836.9 3425.4 -2981.2 3425.4 M -2836.9 3425.4 -2829.3 3425.6 -2821.8 3426.2 -2814.3 3427.2 -2806.9 3428.6 -2799.6 3430.3 -2792.3 3432.5 -2785.2 3435 -2778.2 3437.9 -2771.4 3441.1 -2764.7 3444.7 -2758.3 3448.7 -2752.1 3453 -2746.1 3457.6 -2740.3 3462.5 -2734.9 3467.7 -2729.7 3473.1 -2724.8 3478.9 -2720.2 3484.9 -2715.9 3491.1 -2711.9 3497.6 -2708.3 3504.2 -2705.1 3511 -2702.2 3518 -2699.7 3525.1 -2697.5 3532.4 -2695.8 3539.7 -2694.4 3547.1 -2693.4 3554.6 -2692.8 3562.1 -2692.6 3569.7 M -2692.7 3569.7 -2692.7 3930.3 M -2692.6 3930.3 -2692.8 3937.9 -2693.4 3945.4 -2694.4 3952.9 -2695.8 3960.3 -2697.5 3967.6 -2699.7 3974.9 -2702.2 3982 -2705.1 3989 -2708.3 3995.8 -2711.9 4002.4 -2715.9 4008.9 -2720.2 4015.1 -2724.8 4021.1 -2729.7 4026.9 -2734.9 4032.3 -2740.3 4037.5 -2746.1 4042.4 -2752.1 4047 -2758.3 4051.3 -2764.7 4055.3 -2771.4 4058.9 -2778.2 4062.1 -2785.2 4065 -2792.3 4067.5 -2799.5 4069.7 -2806.9 4071.4 -2814.3 4072.8 -2821.8 4073.8 -2829.3 4074.4 -2836.9 4074.6 -2981.2 4074.6 M -3241.6 4074.6 -3241.6 3425.4 -3530.1 3425.4 M -2446.1 969.7 -2445.9 962.1 -2445.3 954.6 -2444.3 947.1 -2442.9 939.7 -2441.2 932.4 -2439 925.1 -2436.5 918 -2433.6 911 -2430.4 904.2 -2426.8 897.6 -2422.8 891.1 -2418.5 884.9 -2413.9 878.9 -2409 873.1 -2403.8 867.7 -2398.4 862.5 -2392.6 857.6 -2386.6 853 -2380.4 848.7 -2374 844.7 -2367.3 841.1 -2360.5 837.9 -2353.5 835 -2346.4 832.5 -2339.2 830.3 -2331.8 828.6 -2324.4 827.2 -2316.9 826.2 -2309.4 825.6 -2301.8 825.4 -2290.9 825.6 -2280 826.2 -2269.1 827.2 -2258.2 828.5 -2247.4 830.3 -2236.7 832.4 -2226.1 835 -2215.5 837.9 -2205.1 841.2 -2194.8 844.8 -2184.6 848.8 -2174.6 853.2 -2164.7 858 -2155.1 863.1 -2145.6 868.5 -2136.3 874.3 -2127.2 880.4 -2118.4 886.8 -2109.8 893.5 -2101.4 900.6 -2093.3 907.9 -2085.4 915.6 M -2103.4 1330.3 -2103.6 1337.9 -2104.2 1345.4 -2105.2 1352.9 -2106.6 1360.3 -2108.3 1367.6 -2110.5 1374.9 -2113 1382 -2115.9 1389 -2119.1 1395.8 -2122.7 1402.5 -2126.7 1408.9 -2131 1415.1 -2135.6 1421.1 -2140.5 1426.9 -2145.7 1432.3 -2151.1 1437.5 -2156.9 1442.4 -2162.9 1447 -2169.1 1451.3 -2175.6 1455.3 -2182.2 1458.9 -2189 1462.1 -2196 1465 -2203.1 1467.5 -2210.4 1469.7 -2217.7 1471.4 -2225.1 1472.8 -2232.6 1473.8 -2240.1 1474.4 -2247.7 1474.6 -2257.9 1474.4 -2268.2 1473.8 -2278.4 1472.9 -2288.5 1471.5 -2298.6 1469.8 -2308.6 1467.7 -2318.5 1465.2 -2328.4 1462.3 -2338.1 1459.1 -2347.7 1455.5 -2357.1 1451.5 -2366.4 1447.2 -2375.5 1442.5 -2384.4 1437.5 -2393.2 1432.2 -2401.7 1426.5 -2410 1420.5 M -2175.5 1204.1 -2169.1 1208.1 -2162.8 1212.5 -2156.8 1217.1 -2151.1 1222.1 -2145.6 1227.4 -2140.4 1233 -2135.5 1238.8 -2130.9 1244.8 -2126.6 1251.1 -2122.7 1257.6 -2119.1 1264.3 -2115.9 1271.2 -2113 1278.2 -2110.5 1285.4 -2108.3 1292.7 -2106.5 1300.1 -2105.2 1307.6 -2104.2 1315.1 -2103.6 1322.7 -2103.4 1330.3 M -2373.9 1095.9 -2380.3 1091.9 -2386.6 1087.5 -2392.6 1082.9 -2398.3 1077.9 -2403.8 1072.6 -2409 1067 -2413.9 1061.2 -2418.5 1055.2 -2422.8 1048.9 -2426.7 1042.4 -2430.3 1035.7 -2433.5 1028.8 -2436.4 1021.8 -2439 1014.6 -2441.1 1007.3 -2442.9 999.9 -2444.2 992.4 -2445.2 984.9 -2445.8 977.3 -2446 969.7 M -2373.9 1095.9 -2175.6 1204.1 M -2715.4 1474.6 -2715.4 825.4 M -2715.4 1474.6 -2895.7 1474.6 -2904 1474.4 -2912.3 1473.8 -2920.6 1472.9 -2928.8 1471.5 -2937 1469.8 -2945 1467.7 -2953 1465.3 -2960.8 1462.4 -2968.5 1459.2 -2976.1 1455.7 -2983.4 1451.8 -2990.6 1447.6 -2997.6 1443 -3004.4 1438.2 -3010.9 1433 -3017.2 1427.5 -3023.2 1421.8 -3028.9 1415.8 -3034.4 1409.5 -3039.6 1403 -3044.4 1396.2 -3049 1389.2 -3053.2 1382 -3057.1 1374.7 -3060.6 1367.1 -3063.8 1359.4 -3066.7 1351.6 -3069.1 1343.6 -3071.2 1335.6 -3072.9 1327.4 -3074.3 1319.2 -3075.2 1310.9 -3075.8 1302.6 -3076 1294.3 M -3076.1 1294.3 -3076.1 1005.7 M -3076 1005.7 -3075.8 997.4 -3075.2 989.1 -3074.3 980.8 -3072.9 972.6 -3071.2 964.4 -3069.1 956.4 -3066.7 948.4 -3063.8 940.6 -3060.6 932.9 -3057.1 925.3 -3053.2 918 -3049 910.8 -3044.4 903.8 -3039.6 897 -3034.4 890.5 -3028.9 884.2 -3023.2 878.2 -3017.2 872.5 -3010.9 867 -3004.4 861.8 -2997.6 857 -2990.6 852.4 -2983.4 848.2 -2976.1 844.3 -2968.5 840.8 -2960.8 837.6 -2953 834.7 -2945 832.3 -2937 830.2 -2928.8 828.5 -2920.6 827.1 -2912.3 826.2 -2904 825.6 -2895.7 825.4 -2715.4 825.4 M -3330.3 825.4 -3546.7 1474.6 -3763.1 825.4 M -3709 987.7 -3384.4 987.7 M 3646.1 3475.4 3934.6 3475.4 3934.6 4124.6 3646.1 4124.6 M 3718.2 3836.1 3934.6 3836.1 M 3268.3 3475.4 3124 3475.4 M 3268.3 3475.4 3275.6 3475.6 3282.9 3476.1 3290.2 3477.1 3297.3 3478.4 3304.5 3480 3311.5 3482 3318.4 3484.4 3325.2 3487.1 3331.8 3490.1 3338.3 3493.5 3344.6 3497.2 3350.7 3501.3 3356.6 3505.6 3362.3 3510.2 3367.7 3515.1 3372.9 3520.3 3377.8 3525.7 3382.4 3531.4 3386.7 3537.3 3390.8 3543.4 3394.5 3549.7 3397.9 3556.2 3400.9 3562.8 3403.6 3569.6 3406 3576.5 3408 3583.5 3409.6 3590.7 3410.9 3597.9 3411.9 3605.1 3412.4 3612.4 3412.6 3619.7 M 3412.5 3619.7 3412.5 3980.3 M 3412.6 3980.3 3412.4 3987.9 3411.8 3995.4 3410.8 4002.9 3409.4 4010.3 3407.7 4017.6 3405.5 4024.9 3403 4032 3400.1 4039 3396.9 4045.8 3393.3 4052.4 3389.3 4058.9 3385 4065.1 3380.4 4071.1 3375.5 4076.9 3370.3 4082.3 3364.9 4087.5 3359.1 4092.4 3353.1 4097 3346.9 4101.3 3340.5 4105.3 3333.8 4108.9 3327 4112.1 3320 4115 3312.9 4117.5 3305.7 4119.7 3298.3 4121.4 3290.9 4122.8 3283.4 4123.8 3275.9 4124.4 3268.3 4124.6 3124 4124.6 M -2085.4 -1025.4 -2301.8 -1674.6 -2518.2 -1025.4 M -2894 -1674.6 -3038.3 -1674.6 M -2894 -1674.6 -2886.4 -1674.4 -2878.9 -1673.8 -2871.4 -1672.8 -2864 -1671.4 -2856.7 -1669.7 -2849.4 -1667.5 -2842.3 -1665 -2835.3 -1662.1 -2828.5 -1658.9 -2821.9 -1655.3 -2815.4 -1651.3 -2809.2 -1647 -2803.2 -1642.4 -2797.4 -1637.5 -2792 -1632.3 -2786.8 -1626.9 -2781.9 -1621.1 -2777.3 -1615.1 -2773 -1608.9 -2769 -1602.5 -2765.4 -1595.8 -2762.2 -1589 -2759.3 -1582 -2756.8 -1574.9 -2754.6 -1567.7 -2752.9 -1560.3 -2751.5 -1552.9 -2750.5 -1545.4 -2749.9 -1537.9 -2749.7 -1530.3 -2749.7 -1169.7 -2749.9 -1162.1 -2750.5 -1154.6 -2751.5 -1147.1 -2752.9 -1139.7 -2754.6 -1132.4 -2756.8 -1125.1 -2759.3 -1118 -2762.2 -1111 -2765.4 -1104.2 -2769 -1097.6 -2773 -1091.1 -2777.3 -1084.9 -2781.9 -1078.9 -2786.8 -1073.1 -2792 -1067.7 -2797.4 -1062.5 -2803.2 -1057.6 -2809.2 -1053 -2815.4 -1048.7 -2821.8 -1044.7 -2828.5 -1041.1 -2835.3 -1037.9 -2842.3 -1035 -2849.4 -1032.5 -2856.6 -1030.3 -2864 -1028.6 -2871.4 -1027.2 -2878.9 -1026.2 -2886.4 -1025.6 -2894 -1025.4 -3038.3 -1025.4 M -3419 -1674.6 -3563.3 -1674.6 M -3419 -1674.6 -3411.4 -1674.4 -3403.9 -1673.8 -3396.4 -1672.8 -3389 -1671.4 -3381.7 -1669.7 -3374.4 -1667.5 -3367.3 -1665 -3360.3 -1662.1 -3353.5 -1658.9 -3346.9 -1655.3 -3340.4 -1651.3 -3334.2 -1647 -3328.2 -1642.4 -3322.4 -1637.5 -3317 -1632.3 -3311.8 -1626.9 -3306.9 -1621.1 -3302.3 -1615.1 -3298 -1608.9 -3294 -1602.5 -3290.4 -1595.8 -3287.2 -1589 -3284.3 -1582 -3281.8 -1574.9 -3279.6 -1567.7 -3277.9 -1560.3 -3276.5 -1552.9 -3275.5 -1545.4 -3274.9 -1537.9 -3274.7 -1530.3 -3274.7 -1169.7 -3274.9 -1162.1 -3275.5 -1154.6 -3276.5 -1147.1 -3277.9 -1139.7 -3279.6 -1132.4 -3281.8 -1125.1 -3284.3 -1118 -3287.2 -1111 -3290.4 -1104.2 -3294 -1097.6 -3298 -1091.1 -3302.3 -1084.9 -3306.9 -1078.9 -3311.8 -1073.1 -3317 -1067.7 -3322.4 -1062.5 -3328.2 -1057.6 -3334.2 -1053 -3340.4 -1048.7 -3346.8 -1044.7 -3353.5 -1041.1 -3360.3 -1037.9 -3367.3 -1035 -3374.4 -1032.5 -3381.6 -1030.3 -3389 -1028.6 -3396.4 -1027.2 -3403.9 -1026.2 -3411.4 -1025.6 -3419 -1025.4 -3563.3 -1025.4" fill="none" stroke-width="50.8"/></g></svg>