G04 EAGLE Gerber RS-274X export*
G75*
%MOMM*%
%FSLAX34Y34*%
%LPD*%
%IN*%
%IPPOS*%
%AMOC8*
5,1,8,0,0,1.08239X$1,22.5*%
G01*
%ADD10C,0.254000*%


D10*
X135000Y97500D02*
X135019Y97064D01*
X135076Y96632D01*
X135170Y96206D01*
X135302Y95790D01*
X135468Y95387D01*
X135670Y95000D01*
X135904Y94632D01*
X136170Y94286D01*
X136464Y93964D01*
X136786Y93670D01*
X137132Y93404D01*
X137500Y93170D01*
X137887Y92968D01*
X138290Y92802D01*
X138706Y92670D01*
X139132Y92576D01*
X139564Y92519D01*
X140000Y92500D01*
X250000Y92500D01*
X250436Y92519D01*
X250868Y92576D01*
X251294Y92670D01*
X251710Y92802D01*
X252113Y92968D01*
X252500Y93170D01*
X252868Y93404D01*
X253214Y93670D01*
X253536Y93964D01*
X253830Y94286D01*
X254096Y94632D01*
X254330Y95000D01*
X254532Y95387D01*
X254698Y95790D01*
X254830Y96206D01*
X254924Y96632D01*
X254981Y97064D01*
X255000Y97500D01*
X255000Y217500D01*
X254971Y218154D01*
X254886Y218802D01*
X254744Y219441D01*
X254548Y220065D01*
X254297Y220670D01*
X253995Y221250D01*
X253644Y221802D01*
X253245Y222321D01*
X252803Y222803D01*
X252321Y223245D01*
X251802Y223644D01*
X251250Y223995D01*
X250670Y224297D01*
X250065Y224548D01*
X249441Y224744D01*
X248802Y224886D01*
X248154Y224971D01*
X247500Y225000D01*
X140000Y225000D01*
X139564Y224981D01*
X139132Y224924D01*
X138706Y224830D01*
X138290Y224698D01*
X137887Y224532D01*
X137500Y224330D01*
X137132Y224096D01*
X136786Y223830D01*
X136464Y223536D01*
X136170Y223214D01*
X135904Y222868D01*
X135670Y222500D01*
X135468Y222113D01*
X135302Y221710D01*
X135170Y221294D01*
X135076Y220868D01*
X135019Y220436D01*
X135000Y220000D01*
X135000Y97500D01*
M02*
