G04 EAGLE Gerber RS-274X export*
G75*
%MOMM*%
%FSLAX34Y34*%
%LPD*%
%INSilkscreen Top*%
%IPPOS*%
%AMOC8*
5,1,8,0,0,1.08239X$1,22.5*%
G01*
%ADD10C,0.050800*%
%ADD11C,0.127000*%
%ADD12C,0.030000*%


D10*
X174191Y102412D02*
X174191Y105297D01*
X174192Y105297D02*
X174194Y105380D01*
X174200Y105463D01*
X174209Y105546D01*
X174223Y105628D01*
X174240Y105710D01*
X174261Y105790D01*
X174285Y105870D01*
X174314Y105948D01*
X174346Y106025D01*
X174381Y106101D01*
X174420Y106174D01*
X174462Y106246D01*
X174508Y106316D01*
X174556Y106384D01*
X174608Y106449D01*
X174663Y106512D01*
X174720Y106572D01*
X174780Y106629D01*
X174843Y106684D01*
X174908Y106736D01*
X174976Y106784D01*
X175046Y106830D01*
X175118Y106872D01*
X175191Y106911D01*
X175267Y106946D01*
X175344Y106978D01*
X175422Y107007D01*
X175502Y107031D01*
X175582Y107052D01*
X175664Y107069D01*
X175746Y107083D01*
X175829Y107092D01*
X175912Y107098D01*
X175995Y107100D01*
X176078Y107098D01*
X176161Y107092D01*
X176244Y107083D01*
X176326Y107069D01*
X176408Y107052D01*
X176488Y107031D01*
X176568Y107007D01*
X176646Y106978D01*
X176723Y106946D01*
X176799Y106911D01*
X176872Y106872D01*
X176944Y106830D01*
X177014Y106784D01*
X177082Y106736D01*
X177147Y106684D01*
X177210Y106629D01*
X177270Y106572D01*
X177327Y106512D01*
X177382Y106449D01*
X177434Y106384D01*
X177482Y106316D01*
X177528Y106246D01*
X177570Y106174D01*
X177609Y106101D01*
X177644Y106025D01*
X177676Y105948D01*
X177705Y105870D01*
X177729Y105790D01*
X177750Y105710D01*
X177767Y105628D01*
X177781Y105546D01*
X177790Y105463D01*
X177796Y105380D01*
X177798Y105297D01*
X177798Y102412D01*
X177796Y102329D01*
X177790Y102246D01*
X177781Y102163D01*
X177767Y102081D01*
X177750Y101999D01*
X177729Y101919D01*
X177705Y101839D01*
X177676Y101761D01*
X177644Y101684D01*
X177609Y101608D01*
X177570Y101535D01*
X177528Y101463D01*
X177482Y101393D01*
X177434Y101325D01*
X177382Y101260D01*
X177327Y101197D01*
X177270Y101137D01*
X177210Y101080D01*
X177147Y101025D01*
X177082Y100973D01*
X177014Y100925D01*
X176944Y100879D01*
X176872Y100837D01*
X176799Y100798D01*
X176723Y100763D01*
X176646Y100731D01*
X176568Y100702D01*
X176488Y100678D01*
X176408Y100657D01*
X176326Y100640D01*
X176244Y100626D01*
X176161Y100617D01*
X176078Y100611D01*
X175995Y100609D01*
X175912Y100611D01*
X175829Y100617D01*
X175746Y100626D01*
X175664Y100640D01*
X175582Y100657D01*
X175502Y100678D01*
X175422Y100702D01*
X175344Y100731D01*
X175267Y100763D01*
X175191Y100798D01*
X175118Y100837D01*
X175046Y100879D01*
X174976Y100925D01*
X174908Y100973D01*
X174843Y101025D01*
X174780Y101080D01*
X174720Y101137D01*
X174663Y101197D01*
X174608Y101260D01*
X174556Y101325D01*
X174508Y101393D01*
X174462Y101463D01*
X174420Y101535D01*
X174381Y101608D01*
X174346Y101684D01*
X174314Y101761D01*
X174285Y101839D01*
X174261Y101919D01*
X174240Y101999D01*
X174223Y102081D01*
X174209Y102163D01*
X174200Y102246D01*
X174194Y102329D01*
X174192Y102412D01*
X180790Y100608D02*
X180790Y107100D01*
X182594Y107100D01*
X182677Y107098D01*
X182760Y107092D01*
X182843Y107083D01*
X182925Y107069D01*
X183007Y107052D01*
X183087Y107031D01*
X183167Y107007D01*
X183245Y106978D01*
X183322Y106946D01*
X183398Y106911D01*
X183471Y106872D01*
X183543Y106830D01*
X183613Y106784D01*
X183681Y106736D01*
X183746Y106684D01*
X183809Y106629D01*
X183869Y106572D01*
X183926Y106512D01*
X183981Y106449D01*
X184033Y106384D01*
X184081Y106316D01*
X184127Y106246D01*
X184169Y106174D01*
X184208Y106101D01*
X184243Y106025D01*
X184275Y105948D01*
X184304Y105870D01*
X184328Y105790D01*
X184349Y105710D01*
X184366Y105628D01*
X184380Y105546D01*
X184389Y105463D01*
X184395Y105380D01*
X184397Y105297D01*
X184395Y105214D01*
X184389Y105131D01*
X184380Y105048D01*
X184366Y104966D01*
X184349Y104884D01*
X184328Y104804D01*
X184304Y104724D01*
X184275Y104646D01*
X184243Y104569D01*
X184208Y104493D01*
X184169Y104420D01*
X184127Y104348D01*
X184081Y104278D01*
X184033Y104210D01*
X183981Y104145D01*
X183926Y104082D01*
X183869Y104022D01*
X183809Y103965D01*
X183746Y103910D01*
X183681Y103858D01*
X183613Y103810D01*
X183543Y103764D01*
X183471Y103722D01*
X183398Y103683D01*
X183322Y103648D01*
X183245Y103616D01*
X183167Y103587D01*
X183087Y103563D01*
X183007Y103542D01*
X182925Y103525D01*
X182843Y103511D01*
X182760Y103502D01*
X182677Y103496D01*
X182594Y103494D01*
X180790Y103494D01*
X187013Y100608D02*
X189898Y100608D01*
X187013Y100608D02*
X187013Y107100D01*
X189898Y107100D01*
X189177Y104215D02*
X187013Y104215D01*
X192402Y104936D02*
X192402Y100608D01*
X192402Y104936D02*
X194205Y104936D01*
X194268Y104934D01*
X194331Y104929D01*
X194393Y104920D01*
X194455Y104907D01*
X194515Y104891D01*
X194575Y104871D01*
X194634Y104848D01*
X194691Y104821D01*
X194746Y104791D01*
X194800Y104758D01*
X194851Y104722D01*
X194900Y104683D01*
X194948Y104641D01*
X194992Y104597D01*
X195034Y104549D01*
X195073Y104500D01*
X195109Y104449D01*
X195142Y104395D01*
X195172Y104340D01*
X195199Y104283D01*
X195222Y104224D01*
X195242Y104164D01*
X195258Y104104D01*
X195271Y104042D01*
X195280Y103980D01*
X195285Y103917D01*
X195287Y103854D01*
X195287Y100608D01*
X200085Y100608D02*
X200161Y100610D01*
X200236Y100616D01*
X200311Y100626D01*
X200385Y100640D01*
X200459Y100657D01*
X200531Y100679D01*
X200602Y100704D01*
X200672Y100733D01*
X200740Y100765D01*
X200807Y100801D01*
X200871Y100841D01*
X200933Y100884D01*
X200993Y100930D01*
X201051Y100979D01*
X201105Y101031D01*
X201157Y101085D01*
X201206Y101143D01*
X201252Y101203D01*
X201295Y101265D01*
X201335Y101330D01*
X201371Y101396D01*
X201403Y101464D01*
X201432Y101534D01*
X201457Y101605D01*
X201479Y101678D01*
X201496Y101751D01*
X201510Y101825D01*
X201520Y101900D01*
X201526Y101975D01*
X201528Y102051D01*
X200085Y100609D02*
X199976Y100611D01*
X199867Y100617D01*
X199758Y100627D01*
X199649Y100640D01*
X199541Y100658D01*
X199434Y100679D01*
X199328Y100705D01*
X199222Y100734D01*
X199118Y100767D01*
X199015Y100803D01*
X198913Y100843D01*
X198813Y100887D01*
X198714Y100935D01*
X198618Y100986D01*
X198523Y101040D01*
X198430Y101098D01*
X198339Y101159D01*
X198251Y101223D01*
X198165Y101290D01*
X198081Y101361D01*
X198000Y101434D01*
X197921Y101511D01*
X198101Y105658D02*
X198103Y105734D01*
X198109Y105809D01*
X198119Y105884D01*
X198133Y105958D01*
X198150Y106031D01*
X198172Y106104D01*
X198197Y106175D01*
X198226Y106245D01*
X198258Y106313D01*
X198294Y106380D01*
X198334Y106444D01*
X198377Y106506D01*
X198423Y106566D01*
X198472Y106624D01*
X198524Y106678D01*
X198578Y106730D01*
X198636Y106779D01*
X198696Y106825D01*
X198758Y106868D01*
X198823Y106908D01*
X198889Y106944D01*
X198957Y106976D01*
X199027Y107005D01*
X199098Y107030D01*
X199171Y107052D01*
X199244Y107069D01*
X199318Y107083D01*
X199393Y107093D01*
X199468Y107099D01*
X199544Y107101D01*
X199544Y107100D02*
X199646Y107098D01*
X199749Y107092D01*
X199851Y107083D01*
X199952Y107069D01*
X200053Y107052D01*
X200153Y107031D01*
X200252Y107006D01*
X200351Y106977D01*
X200448Y106945D01*
X200544Y106909D01*
X200638Y106869D01*
X200731Y106826D01*
X200822Y106779D01*
X200911Y106729D01*
X200999Y106676D01*
X201084Y106619D01*
X201167Y106559D01*
X198823Y104396D02*
X198759Y104436D01*
X198696Y104480D01*
X198636Y104526D01*
X198579Y104576D01*
X198524Y104629D01*
X198472Y104685D01*
X198423Y104743D01*
X198377Y104803D01*
X198334Y104866D01*
X198295Y104931D01*
X198259Y104998D01*
X198227Y105067D01*
X198198Y105137D01*
X198173Y105209D01*
X198151Y105282D01*
X198133Y105356D01*
X198120Y105431D01*
X198110Y105506D01*
X198104Y105582D01*
X198102Y105658D01*
X200807Y103313D02*
X200871Y103273D01*
X200934Y103229D01*
X200994Y103183D01*
X201051Y103133D01*
X201106Y103080D01*
X201158Y103024D01*
X201207Y102966D01*
X201253Y102906D01*
X201296Y102843D01*
X201335Y102778D01*
X201371Y102711D01*
X201403Y102642D01*
X201432Y102572D01*
X201458Y102500D01*
X201479Y102427D01*
X201497Y102353D01*
X201510Y102278D01*
X201520Y102203D01*
X201526Y102127D01*
X201528Y102051D01*
X200806Y103313D02*
X198823Y104395D01*
X207102Y104936D02*
X208544Y100608D01*
X209987Y104936D01*
X214395Y107100D02*
X214475Y107098D01*
X214554Y107092D01*
X214633Y107082D01*
X214712Y107069D01*
X214789Y107051D01*
X214866Y107030D01*
X214942Y107005D01*
X215016Y106976D01*
X215089Y106944D01*
X215160Y106908D01*
X215229Y106869D01*
X215297Y106826D01*
X215362Y106781D01*
X215425Y106732D01*
X215485Y106680D01*
X215543Y106625D01*
X215598Y106567D01*
X215650Y106507D01*
X215699Y106444D01*
X215744Y106379D01*
X215787Y106311D01*
X215826Y106242D01*
X215862Y106171D01*
X215894Y106098D01*
X215923Y106024D01*
X215948Y105948D01*
X215969Y105871D01*
X215987Y105794D01*
X216000Y105715D01*
X216010Y105636D01*
X216016Y105557D01*
X216018Y105477D01*
X214395Y107100D02*
X214305Y107098D01*
X214214Y107092D01*
X214125Y107082D01*
X214035Y107069D01*
X213946Y107051D01*
X213859Y107030D01*
X213772Y107005D01*
X213686Y106976D01*
X213602Y106943D01*
X213519Y106907D01*
X213438Y106867D01*
X213358Y106824D01*
X213281Y106777D01*
X213205Y106727D01*
X213132Y106674D01*
X213062Y106618D01*
X212993Y106559D01*
X212928Y106496D01*
X212865Y106431D01*
X212805Y106364D01*
X212748Y106294D01*
X212694Y106221D01*
X212643Y106146D01*
X212596Y106069D01*
X212552Y105990D01*
X212512Y105909D01*
X212475Y105827D01*
X212441Y105743D01*
X212411Y105657D01*
X215476Y104215D02*
X215532Y104270D01*
X215585Y104328D01*
X215635Y104388D01*
X215683Y104450D01*
X215727Y104515D01*
X215769Y104581D01*
X215808Y104649D01*
X215844Y104719D01*
X215876Y104790D01*
X215905Y104863D01*
X215931Y104937D01*
X215954Y105012D01*
X215973Y105088D01*
X215989Y105165D01*
X216001Y105242D01*
X216010Y105320D01*
X216015Y105399D01*
X216017Y105477D01*
X215477Y104215D02*
X212411Y100608D01*
X216018Y100608D01*
X218444Y100608D02*
X218444Y100969D01*
X218805Y100969D01*
X218805Y100608D01*
X218444Y100608D01*
X221231Y103854D02*
X221233Y103997D01*
X221239Y104139D01*
X221248Y104282D01*
X221261Y104424D01*
X221279Y104566D01*
X221299Y104707D01*
X221324Y104847D01*
X221352Y104987D01*
X221385Y105126D01*
X221420Y105265D01*
X221460Y105402D01*
X221503Y105538D01*
X221550Y105673D01*
X221600Y105806D01*
X221654Y105939D01*
X221711Y106069D01*
X221772Y106198D01*
X221772Y106199D02*
X221797Y106266D01*
X221826Y106332D01*
X221858Y106396D01*
X221894Y106459D01*
X221933Y106519D01*
X221975Y106577D01*
X222020Y106633D01*
X222069Y106687D01*
X222120Y106737D01*
X222173Y106785D01*
X222230Y106830D01*
X222288Y106872D01*
X222349Y106911D01*
X222412Y106946D01*
X222476Y106978D01*
X222542Y107006D01*
X222610Y107031D01*
X222679Y107052D01*
X222748Y107069D01*
X222819Y107083D01*
X222890Y107092D01*
X222962Y107098D01*
X223034Y107100D01*
X223106Y107098D01*
X223178Y107092D01*
X223249Y107083D01*
X223320Y107069D01*
X223389Y107052D01*
X223458Y107031D01*
X223526Y107006D01*
X223592Y106978D01*
X223656Y106946D01*
X223719Y106911D01*
X223780Y106872D01*
X223838Y106830D01*
X223895Y106785D01*
X223948Y106737D01*
X223999Y106687D01*
X224048Y106633D01*
X224093Y106577D01*
X224135Y106519D01*
X224174Y106459D01*
X224210Y106396D01*
X224242Y106332D01*
X224271Y106266D01*
X224296Y106199D01*
X224297Y106198D02*
X224358Y106069D01*
X224415Y105939D01*
X224469Y105806D01*
X224519Y105673D01*
X224566Y105538D01*
X224609Y105402D01*
X224649Y105265D01*
X224684Y105126D01*
X224717Y104987D01*
X224745Y104847D01*
X224770Y104707D01*
X224790Y104566D01*
X224808Y104424D01*
X224821Y104282D01*
X224830Y104139D01*
X224836Y103997D01*
X224838Y103854D01*
X221231Y103854D02*
X221233Y103711D01*
X221239Y103569D01*
X221248Y103426D01*
X221261Y103284D01*
X221279Y103142D01*
X221299Y103001D01*
X221324Y102861D01*
X221352Y102721D01*
X221385Y102582D01*
X221420Y102443D01*
X221460Y102306D01*
X221503Y102170D01*
X221550Y102035D01*
X221600Y101902D01*
X221654Y101769D01*
X221711Y101639D01*
X221772Y101510D01*
X221797Y101443D01*
X221826Y101377D01*
X221858Y101313D01*
X221894Y101250D01*
X221933Y101190D01*
X221975Y101132D01*
X222020Y101076D01*
X222069Y101022D01*
X222120Y100972D01*
X222173Y100924D01*
X222230Y100879D01*
X222288Y100837D01*
X222349Y100798D01*
X222412Y100763D01*
X222476Y100731D01*
X222542Y100703D01*
X222610Y100678D01*
X222679Y100657D01*
X222748Y100640D01*
X222819Y100626D01*
X222890Y100617D01*
X222962Y100611D01*
X223034Y100609D01*
X224297Y101510D02*
X224358Y101639D01*
X224415Y101769D01*
X224469Y101902D01*
X224519Y102035D01*
X224566Y102170D01*
X224609Y102306D01*
X224649Y102443D01*
X224684Y102582D01*
X224717Y102721D01*
X224745Y102861D01*
X224770Y103001D01*
X224790Y103142D01*
X224808Y103284D01*
X224821Y103426D01*
X224830Y103569D01*
X224836Y103711D01*
X224838Y103854D01*
X224296Y101510D02*
X224271Y101443D01*
X224242Y101377D01*
X224210Y101313D01*
X224174Y101250D01*
X224135Y101190D01*
X224093Y101132D01*
X224048Y101076D01*
X223999Y101022D01*
X223948Y100972D01*
X223895Y100924D01*
X223838Y100879D01*
X223780Y100837D01*
X223719Y100798D01*
X223656Y100763D01*
X223592Y100731D01*
X223526Y100703D01*
X223458Y100678D01*
X223389Y100657D01*
X223320Y100640D01*
X223249Y100626D01*
X223178Y100617D01*
X223106Y100611D01*
X223034Y100609D01*
X221592Y102051D02*
X224477Y105658D01*
D11*
X215017Y182804D02*
X215019Y182886D01*
X215025Y182968D01*
X215035Y183049D01*
X215049Y183130D01*
X215066Y183210D01*
X215088Y183289D01*
X215113Y183367D01*
X215142Y183444D01*
X215175Y183519D01*
X215211Y183593D01*
X215251Y183664D01*
X215295Y183734D01*
X215341Y183801D01*
X215391Y183867D01*
X215444Y183929D01*
X215500Y183989D01*
X215558Y184047D01*
X215620Y184101D01*
X215684Y184152D01*
X215750Y184201D01*
X215819Y184246D01*
X215889Y184287D01*
X215962Y184325D01*
X216036Y184360D01*
X216112Y184391D01*
X216190Y184418D01*
X216268Y184441D01*
X216348Y184461D01*
X216428Y184477D01*
X216509Y184489D01*
X216591Y184497D01*
X216673Y184501D01*
X216755Y184501D01*
X216837Y184497D01*
X216919Y184489D01*
X217000Y184477D01*
X217080Y184461D01*
X217160Y184441D01*
X217238Y184418D01*
X217316Y184391D01*
X217392Y184360D01*
X217466Y184325D01*
X217539Y184287D01*
X217609Y184246D01*
X217678Y184201D01*
X217744Y184152D01*
X217808Y184101D01*
X217870Y184047D01*
X217928Y183989D01*
X217984Y183929D01*
X218037Y183867D01*
X218087Y183801D01*
X218133Y183734D01*
X218177Y183664D01*
X218217Y183593D01*
X218253Y183519D01*
X218286Y183444D01*
X218315Y183367D01*
X218340Y183289D01*
X218362Y183210D01*
X218379Y183130D01*
X218393Y183049D01*
X218403Y182968D01*
X218409Y182886D01*
X218411Y182804D01*
X218409Y182722D01*
X218403Y182640D01*
X218393Y182559D01*
X218379Y182478D01*
X218362Y182398D01*
X218340Y182319D01*
X218315Y182241D01*
X218286Y182164D01*
X218253Y182089D01*
X218217Y182015D01*
X218177Y181944D01*
X218133Y181874D01*
X218087Y181807D01*
X218037Y181741D01*
X217984Y181679D01*
X217928Y181619D01*
X217870Y181561D01*
X217808Y181507D01*
X217744Y181456D01*
X217678Y181407D01*
X217609Y181362D01*
X217539Y181321D01*
X217466Y181283D01*
X217392Y181248D01*
X217316Y181217D01*
X217238Y181190D01*
X217160Y181167D01*
X217080Y181147D01*
X217000Y181131D01*
X216919Y181119D01*
X216837Y181111D01*
X216755Y181107D01*
X216673Y181107D01*
X216591Y181111D01*
X216509Y181119D01*
X216428Y181131D01*
X216348Y181147D01*
X216268Y181167D01*
X216190Y181190D01*
X216112Y181217D01*
X216036Y181248D01*
X215962Y181283D01*
X215889Y181321D01*
X215819Y181362D01*
X215750Y181407D01*
X215684Y181456D01*
X215620Y181507D01*
X215558Y181561D01*
X215500Y181619D01*
X215444Y181679D01*
X215391Y181741D01*
X215341Y181807D01*
X215295Y181874D01*
X215251Y181944D01*
X215211Y182015D01*
X215175Y182089D01*
X215142Y182164D01*
X215113Y182241D01*
X215088Y182319D01*
X215066Y182398D01*
X215049Y182478D01*
X215035Y182559D01*
X215025Y182640D01*
X215019Y182722D01*
X215017Y182804D01*
D12*
X167514Y178604D02*
X167514Y116604D01*
X231514Y116604D02*
X231514Y178604D01*
X167514Y178604D02*
X167514Y173604D01*
X167514Y178604D02*
X172514Y178604D01*
X167514Y121604D02*
X167514Y116604D01*
X172514Y116604D01*
X226514Y116604D02*
X231514Y116604D01*
X231514Y121604D01*
X231514Y178604D02*
X226514Y178604D01*
X231514Y178604D02*
X231514Y173604D01*
M02*
