0
SECTION
2
HEADER
9
$INSUNITS
70
4
9
$ACADVER
1
AC1014
9
$HANDSEED
5
FFFF
0
ENDSEC
0
SECTION
2
TABLES
0
TABLE
2
VPORT
5
8
100
AcDbSymbolTable
0
ENDTAB
0
TABLE
2
LTYPE
5
5
100
AcDbSymbolTable
0
LTYPE
5
14
100
AcDbSymbolTableRecord
100
AcDbLinetypeTableRecord
2
BYBLOCK
70
0
0
LTYPE
5
15
100
AcDbSymbolTableRecord
100
AcDbLinetypeTableRecord
2
BYLAYER
70
0
0
ENDTAB
0
TABLE
2
LAYER
5
2
100
AcDbSymbolTable
70
2
0
LAYER
5
50
100
AcDbSymbolTableRecord
100
AcDbLayerTableRecord
2
0
70
0
6
CONTINUOUS
0
ENDTAB
0
TABLE
2
STYLE
5
3
100
AcDbSymbolTable
70
1
0
STYLE
5
11
100
AcDbSymbolTableRecord
100
AcDbTextStyleTableRecord
2
STANDARD
70
0
0
ENDTAB
0
TABLE
2
VIEW
5
6
100
AcDbSymbolTable
70
0
0
ENDTAB
0
TABLE
2
UCS
5
7
100
AcDbSymbolTable
70
0
0
ENDTAB
0
TABLE
2
APPID
5
9
100
AcDbSymbolTable
70
2
0
APPID
5
12
100
AcDbSymbolTableRecord
100
AcDbRegAppTableRecord
2
ACAD
70
0
0
ENDTAB
0
TABLE
2
DIMSTYLE
5
A
100
AcDbSymbolTable
70
1
0
ENDTAB
0
TABLE
2
BLOCK_RECORD
5
1
100
AcDbSymbolTable
70
1
0
BLOCK_RECORD
5
1F
100
AcDbSymbolTableRecord
100
AcDbBlockTableRecord
2
*MODEL_SPACE
0
BLOCK_RECORD
5
1B
100
AcDbSymbolTableRecord
100
AcDbBlockTableRecord
2
*PAPER_SPACE
0
ENDTAB
0
ENDSEC
0
SECTION
2
BLOCKS
0
BLOCK
5
20
100
AcDbEntity
100
AcDbBlockBegin
2
*MODEL_SPACE
0
ENDBLK
5
21
100
AcDbEntity
100
AcDbBlockEnd
0
BLOCK
5
1C
100
AcDbEntity
100
AcDbBlockBegin
2
*PAPER_SPACE
0
ENDBLK
5
1D
100
AcDbEntity
100
AcDbBlockEnd
0
ENDSEC
0
SECTION
2
ENTITIES
0
CIRCLE
5
100
100
AcDbEntity
8
0
100
AcDbCircle
10
3.3999999999999946
20
31.250000000000004
30
0
40
1.600000000000001
210
0
220
0
230
1
0
CIRCLE
5
101
100
AcDbEntity
8
0
100
AcDbCircle
10
76.400000000000006
20
7.2500000000000009
30
0
40
1.6000000000000014
210
0
220
0
230
1
0
LWPOLYLINE
5
102
100
AcDbEntity
8
0
100
AcDbPolyline
90
32
70
1
43
0.0
10
13.299361312941036
20
29.754871669266546
10
11.051303593029777
20
29.75230718855936
10
10.541993295658667
20
27.273240453712411
10
8.4633620210919567
20
26.297556386058652
10
6.173019159312009
20
27.772870267560794
10
4.5721630701984397
20
26.128747797660338
10
5.9817308055378193
20
23.943188309763709
10
5.0908888307235216
20
21.885767558406858
10
2.5880470919595222
20
21.249451862110931
10
2.5927261491998657
20
19.022244753419585
10
5.0696783075136542
20
18.470873321618694
10
5.9393097591180988
20
16.307399954212528
10
4.6800009606778614
20
14.199999912381172
10
6.1397761986010648
20
12.622595425907406
10
8.0939967046329944
20
13.883382849153815
10
9.1026266432301188
20
13.489386779389312
10
10.679997947877231
20
17.433699751695965
42
-3.9588497258746429
10
13.595568864134549
20
17.323380852161904
10
15.250729448248562
20
13.528821413720294
10
16.099150376643145
20
13.910610831497854
10
18.114150081580263
20
12.574347869276393
10
19.74736036873982
20
14.122716063596496
10
18.453518452938088
20
16.264978907792795
10
19.386781474172118
20
18.555715414458152
10
21.741149550467071
20
19.022346925075166
10
21.783570596886797
20
21.270662385320797
10
19.323149904542525
20
21.800925465567403
10
18.347465836888766
20
24.006819879393294
10
19.810991938369405
20
26.19150377000933
10
18.120000660270453
20
27.77999960884452
10
15.971887237383948
20
26.297556386058652
10
13.820351963388454
20
27.199590722134968
0
LWPOLYLINE
5
103
100
AcDbEntity
8
0
100
AcDbPolyline
90
30
70
1
43
0.0
10
39.999999999999957
20
1.0652056976363959e-31
10
29.999999999999957
20
0
10
29.999999999999957
20
-3.1749999999999998
10
15.999999999999952
20
-3.1749999999999998
10
15.999999999999952
20
5.2173340292394761e-32
10
11.999999999999957
20
0
10
11.999999999999957
20
-3.1749999999999998
10
3.9999999999999503
20
-3.1749999999999998
10
3.9999999999999503
20
1.6301451479899712e-32
10
0
20
0
10
-1.1102230246251565e-15
20
5.0000000000000009
10
-3.1750000000000012
20
5
10
-3.1750000000000034
20
12.999999999999998
10
-3.1840816777831186e-15
20
13
10
-4.4408920985006262e-15
20
19.000000000000004
10
-3.1750000000000043
20
19.000000000000004
10
-3.1750000000000069
20
27
10
-6.6130927153957075e-15
20
27
10
4.4408920985006262e-15
20
32.144009396470217
42
-0.51191829385248444
10
4.6067971810589192
20
35.464400939647014
10
77.239252713092611
20
11.253582428969134
42
-0.32282280605511032
10
81
20
6.0358242896913019
10
81
20
0
10
70.999999999999957
20
0
10
70.999999999999957
20
-3.1749999999999998
10
62.999999999999957
20
-3.1749999999999998
10
62.999999999999957
20
2.2298939988199066e-31
10
53.999999999999957
20
0
10
53.999999999999957
20
-3.1749999999999998
10
39.999999999999957
20
-3.1749999999999998
0
LWPOLYLINE
5
104
100
AcDbEntity
8
0
100
AcDbPolyline
90
4
70
1
43
0.0
10
42.900000000000006
20
3.2000000000000033
10
42.900000000000027
20
2.2204460492503131e-15
10
51.100000000000001
20
1.1102230246251565e-15
10
51.100000000000001
20
3.2000000000000055
0
LWPOLYLINE
5
105
100
AcDbEntity
8
0
100
AcDbPolyline
90
4
70
1
43
0.0
10
18.900000000000013
20
5.5511151231257827e-16
10
27.100000000000012
20
0
10
27.100000000000012
20
3.2000000000000011
10
18.900000000000013
20
3.2000000000000011
0
ENDSEC
0
SECTION
2
OBJECTS
0
DICTIONARY
5
C
100
AcDbDictionary
3
ACAD_GROUP
350
D
3
ACAD_MLINESTYLE
350
17
0
DICTIONARY
5
D
100
AcDbDictionary
0
DICTIONARY
5
1A
330
C
100
AcDbDictionary
0
DICTIONARY
5
17
100
AcDbDictionary
0
ENDSEC
0
EOF
