0
SECTION
2
HEADER
9
$INSUNITS
70
4
9
$ACADVER
1
AC1014
9
$HANDSEED
5
FFFF
0
ENDSEC
0
SECTION
2
TABLES
0
TABLE
2
VPORT
5
8
100
AcDbSymbolTable
0
ENDTAB
0
TABLE
2
LTYPE
5
5
100
AcDbSymbolTable
0
LTYPE
5
14
100
AcDbSymbolTableRecord
100
AcDbLinetypeTableRecord
2
BYBLOCK
70
0
0
LTYPE
5
15
100
AcDbSymbolTableRecord
100
AcDbLinetypeTableRecord
2
BYLAYER
70
0
0
ENDTAB
0
TABLE
2
LAYER
5
2
100
AcDbSymbolTable
70
2
0
LAYER
5
50
100
AcDbSymbolTableRecord
100
AcDbLayerTableRecord
2
0
70
0
6
CONTINUOUS
0
ENDTAB
0
TABLE
2
STYLE
5
3
100
AcDbSymbolTable
70
1
0
STYLE
5
11
100
AcDbSymbolTableRecord
100
AcDbTextStyleTableRecord
2
STANDARD
70
0
0
ENDTAB
0
TABLE
2
VIEW
5
6
100
AcDbSymbolTable
70
0
0
ENDTAB
0
TABLE
2
UCS
5
7
100
AcDbSymbolTable
70
0
0
ENDTAB
0
TABLE
2
APPID
5
9
100
AcDbSymbolTable
70
2
0
APPID
5
12
100
AcDbSymbolTableRecord
100
AcDbRegAppTableRecord
2
ACAD
70
0
0
ENDTAB
0
TABLE
2
DIMSTYLE
5
A
100
AcDbSymbolTable
70
1
0
ENDTAB
0
TABLE
2
BLOCK_RECORD
5
1
100
AcDbSymbolTable
70
1
0
BLOCK_RECORD
5
1F
100
AcDbSymbolTableRecord
100
AcDbBlockTableRecord
2
*MODEL_SPACE
0
BLOCK_RECORD
5
1B
100
AcDbSymbolTableRecord
100
AcDbBlockTableRecord
2
*PAPER_SPACE
0
ENDTAB
0
ENDSEC
0
SECTION
2
BLOCKS
0
BLOCK
5
20
100
AcDbEntity
100
AcDbBlockBegin
2
*MODEL_SPACE
0
ENDBLK
5
21
100
AcDbEntity
100
AcDbBlockEnd
0
BLOCK
5
1C
100
AcDbEntity
100
AcDbBlockBegin
2
*PAPER_SPACE
0
ENDBLK
5
1D
100
AcDbEntity
100
AcDbBlockEnd
0
ENDSEC
0
SECTION
2
ENTITIES
0
CIRCLE
5
100
100
AcDbEntity
8
0
100
AcDbCircle
10
3.3999999999999946
20
31.250000000000004
30
0
40
1.600000000000001
210
0
220
0
230
1
0
CIRCLE
5
101
100
AcDbEntity
8
0
100
AcDbCircle
10
76.400000000000006
20
7.2500000000000009
30
0
40
1.6000000000000014
210
0
220
0
230
1
0
LWPOLYLINE
5
102
100
AcDbEntity
8
0
100
AcDbPolyline
90
32
70
1
43
0.0
10
12.456686652100748
20
29.910622620904675
10
10.850931137878419
20
29.908790848970973
10
10.487138068327626
20
28.138028895508867
10
9.0024014436371189
20
27.441111704327611
10
7.3664422566514398
20
28.494907333971998
10
6.2229736215703202
20
27.320534141185956
10
7.2298077182413056
20
25.759420221259791
10
6.5934920219453774
20
24.289833970290612
10
4.8057479228282363
20
23.835322758650662
10
4.8090901065713387
20
22.244460538156847
10
6.5783416482240442
20
21.85062380115621
10
7.1995069707986481
20
20.305285681580379
10
6.3000006861984792
20
18.799999937415123
10
7.3426972847150518
20
17.673282447076719
10
8.7385690747378586
20
18.573844892252723
10
9.4590190308786646
20
18.292419128135222
10
10.585712819912317
20
21.109785536925685
42
-3.9588497258746504
10
12.668263474381829
20
21.030986322972787
10
13.850521034463267
20
18.320586724085924
10
14.456535983316536
20
18.593293451069894
10
15.895821486843049
20
17.638819906625997
10
17.062400263385591
20
18.744797188283211
10
16.138227466384354
20
20.274984934137713
10
16.804843910122948
20
21.91122529604154
10
18.486535393190767
20
22.244533517910835
10
18.516836140633433
20
23.850473132371995
10
16.759392788958955
20
24.22923247540529
10
16.062475597777699
20
25.804871342423784
10
17.107851384549583
20
27.365359835720952
10
15.900000471621759
20
28.499999720603228
10
14.365633740988542
20
27.441111704327611
10
12.82882283099176
20
28.085421944382119
0
LWPOLYLINE
5
103
100
AcDbEntity
8
0
100
AcDbPolyline
90
4
70
1
43
0.0
10
18.100000000000058
20
6.600000000000021
10
5.9000000000000572
20
6.600000000000021
10
5.9000000000000563
20
3.4000000000000212
10
18.100000000000062
20
3.4000000000000208
0
LWPOLYLINE
5
104
100
AcDbEntity
8
0
100
AcDbPolyline
90
4
70
1
43
0.0
10
63.100000000000378
20
6.6000000000000245
10
50.900000000000382
20
6.600000000000021
10
50.900000000000404
20
3.4000000000000208
10
63.100000000000378
20
3.4000000000000199
0
LWPOLYLINE
5
105
100
AcDbEntity
8
0
100
AcDbPolyline
90
18
70
1
43
0.0
10
-4.4408920985006262e-15
20
32.144009396470217
42
-0.51191829385248422
10
4.6067971810589192
20
35.464400939647021
10
77.239252713092611
20
11.253582428969134
42
-0.32282280605511032
10
81
20
6.0358242896913019
10
81
20
0
10
75
20
0
10
75
20
-3.1749999999999998
10
63
20
-3.1749999999999998
10
63
20
1.6776989737773254e-31
10
29.999999999999996
20
0
10
29.999999999999996
20
-3.1749999999999998
10
17.999999999999993
20
-3.1749999999999998
10
17.999999999999993
20
4.7934256393637859e-32
10
0
20
0
10
-2.7755575615628914e-15
20
12
10
-3.1750000000000029
20
12
10
-3.1750000000000056
20
24.000000000000004
10
-5.8783046359072966e-15
20
24.000000000000004
0
ENDSEC
0
SECTION
2
OBJECTS
0
DICTIONARY
5
C
100
AcDbDictionary
3
ACAD_GROUP
350
D
3
ACAD_MLINESTYLE
350
17
0
DICTIONARY
5
D
100
AcDbDictionary
0
DICTIONARY
5
1A
330
C
100
AcDbDictionary
0
DICTIONARY
5
17
100
AcDbDictionary
0
ENDSEC
0
EOF
