0
SECTION
2
HEADER
9
$INSUNITS
70
4
9
$ACADVER
1
AC1014
9
$HANDSEED
5
FFFF
0
ENDSEC
0
SECTION
2
TABLES
0
TABLE
2
VPORT
5
8
100
AcDbSymbolTable
0
ENDTAB
0
TABLE
2
LTYPE
5
5
100
AcDbSymbolTable
0
LTYPE
5
14
100
AcDbSymbolTableRecord
100
AcDbLinetypeTableRecord
2
BYBLOCK
70
0
0
LTYPE
5
15
100
AcDbSymbolTableRecord
100
AcDbLinetypeTableRecord
2
BYLAYER
70
0
0
ENDTAB
0
TABLE
2
LAYER
5
2
100
AcDbSymbolTable
70
2
0
LAYER
5
50
100
AcDbSymbolTableRecord
100
AcDbLayerTableRecord
2
0
70
0
6
CONTINUOUS
0
ENDTAB
0
TABLE
2
STYLE
5
3
100
AcDbSymbolTable
70
1
0
STYLE
5
11
100
AcDbSymbolTableRecord
100
AcDbTextStyleTableRecord
2
STANDARD
70
0
0
ENDTAB
0
TABLE
2
VIEW
5
6
100
AcDbSymbolTable
70
0
0
ENDTAB
0
TABLE
2
UCS
5
7
100
AcDbSymbolTable
70
0
0
ENDTAB
0
TABLE
2
APPID
5
9
100
AcDbSymbolTable
70
2
0
APPID
5
12
100
AcDbSymbolTableRecord
100
AcDbRegAppTableRecord
2
ACAD
70
0
0
ENDTAB
0
TABLE
2
DIMSTYLE
5
A
100
AcDbSymbolTable
70
1
0
ENDTAB
0
TABLE
2
BLOCK_RECORD
5
1
100
AcDbSymbolTable
70
1
0
BLOCK_RECORD
5
1F
100
AcDbSymbolTableRecord
100
AcDbBlockTableRecord
2
*MODEL_SPACE
0
BLOCK_RECORD
5
1B
100
AcDbSymbolTableRecord
100
AcDbBlockTableRecord
2
*PAPER_SPACE
0
ENDTAB
0
ENDSEC
0
SECTION
2
BLOCKS
0
BLOCK
5
20
100
AcDbEntity
100
AcDbBlockBegin
2
*MODEL_SPACE
0
ENDBLK
5
21
100
AcDbEntity
100
AcDbBlockEnd
0
BLOCK
5
1C
100
AcDbEntity
100
AcDbBlockBegin
2
*PAPER_SPACE
0
ENDBLK
5
1D
100
AcDbEntity
100
AcDbBlockEnd
0
ENDSEC
0
SECTION
2
ENTITIES
0
CIRCLE
5
100
100
AcDbEntity
8
0
100
AcDbCircle
10
15
20
3.0000000000000004
30
0
40
1.7500000000000004
210
0
220
0
230
1
0
CIRCLE
5
101
100
AcDbEntity
8
0
100
AcDbCircle
10
15
20
-16.999999999999996
30
0
40
1.7500000000000004
210
0
220
0
230
1
0
CIRCLE
5
102
100
AcDbEntity
8
0
100
AcDbCircle
10
-15
20
3.0000000000000004
30
0
40
1.7500000000000004
210
0
220
0
230
1
0
CIRCLE
5
103
100
AcDbEntity
8
0
100
AcDbCircle
10
-15
20
-16.999999999999996
30
0
40
1.7500000000000004
210
0
220
0
230
1
0
LWPOLYLINE
5
104
100
AcDbEntity
8
0
100
AcDbPolyline
90
28
70
1
43
0.0
10
22.716216216216214
20
-20.725250802297076
42
0.18703613953785178
10
23.499999999999996
20
-18.703275114268095
10
23.500000000000007
20
-10.049999999999997
10
19.900000000000006
20
-10.049999999999997
10
19.900000000000006
20
10.050000000000006
10
23.500000000000007
20
10.050000000000006
10
23.499999999999996
20
18.703275114268092
42
0.18703613953785203
10
22.716216216216214
20
20.725250802297076
42
0.07578724515248679
10
15.508695652173909
20
26.55264316726759
42
0.57902740566547439
10
12.5
20
24.825641985656688
10
12.5
20
13.999999999999993
42
-0.41421356237309503
10
6.4999999999999991
20
7.9999999999999929
10
-6.4999999999999938
20
7.9999999999999938
42
-0.41421356237309498
10
-12.499999999999996
20
13.999999999999993
10
-12.5
20
24.825641985656688
42
0.57902740566547539
10
-15.508695652173905
20
26.55264316726759
42
0.075787245152486707
10
-22.716216216216214
20
20.725250802297079
42
0.18703613953785239
10
-23.5
20
18.703275114268095
10
-23.500000000000007
20
10.049999999993641
10
-19.900000000000006
20
10.04999999999364
10
-19.900000000000006
20
-10.049999999993648
10
-23.500000000000007
20
-10.049999999993647
10
-23.5
20
-18.703275114268095
42
0.18703613953785228
10
-22.716216216216218
20
-20.725250802297076
42
0.14000247785950989
10
-8.3442562883179612
20
-29.596214065229127
42
0.068809193944975533
10
-6.7161087198656677
20
-29.821343028111251
10
6.7161087198656775
20
-29.821343028111251
42
0.068809193944974811
10
8.3442562883179701
20
-29.596214065229127
42
0.14000247785950989
0
ENDSEC
0
SECTION
2
OBJECTS
0
DICTIONARY
5
C
100
AcDbDictionary
3
ACAD_GROUP
350
D
3
ACAD_MLINESTYLE
350
17
0
DICTIONARY
5
D
100
AcDbDictionary
0
DICTIONARY
5
1A
330
C
100
AcDbDictionary
0
DICTIONARY
5
17
100
AcDbDictionary
0
ENDSEC
0
EOF
