0
SECTION
2
HEADER
9
$INSUNITS
70
4
9
$ACADVER
1
AC1014
9
$HANDSEED
5
FFFF
0
ENDSEC
0
SECTION
2
TABLES
0
TABLE
2
VPORT
5
8
100
AcDbSymbolTable
0
ENDTAB
0
TABLE
2
LTYPE
5
5
100
AcDbSymbolTable
0
LTYPE
5
14
100
AcDbSymbolTableRecord
100
AcDbLinetypeTableRecord
2
BYBLOCK
70
0
0
LTYPE
5
15
100
AcDbSymbolTableRecord
100
AcDbLinetypeTableRecord
2
BYLAYER
70
0
0
ENDTAB
0
TABLE
2
LAYER
5
2
100
AcDbSymbolTable
70
2
0
LAYER
5
50
100
AcDbSymbolTableRecord
100
AcDbLayerTableRecord
2
0
70
0
6
CONTINUOUS
0
ENDTAB
0
TABLE
2
STYLE
5
3
100
AcDbSymbolTable
70
1
0
STYLE
5
11
100
AcDbSymbolTableRecord
100
AcDbTextStyleTableRecord
2
STANDARD
70
0
0
ENDTAB
0
TABLE
2
VIEW
5
6
100
AcDbSymbolTable
70
0
0
ENDTAB
0
TABLE
2
UCS
5
7
100
AcDbSymbolTable
70
0
0
ENDTAB
0
TABLE
2
APPID
5
9
100
AcDbSymbolTable
70
2
0
APPID
5
12
100
AcDbSymbolTableRecord
100
AcDbRegAppTableRecord
2
ACAD
70
0
0
ENDTAB
0
TABLE
2
DIMSTYLE
5
A
100
AcDbSymbolTable
70
1
0
ENDTAB
0
TABLE
2
BLOCK_RECORD
5
1
100
AcDbSymbolTable
70
1
0
BLOCK_RECORD
5
1F
100
AcDbSymbolTableRecord
100
AcDbBlockTableRecord
2
*MODEL_SPACE
0
BLOCK_RECORD
5
1B
100
AcDbSymbolTableRecord
100
AcDbBlockTableRecord
2
*PAPER_SPACE
0
ENDTAB
0
ENDSEC
0
SECTION
2
BLOCKS
0
BLOCK
5
20
100
AcDbEntity
100
AcDbBlockBegin
2
*MODEL_SPACE
0
ENDBLK
5
21
100
AcDbEntity
100
AcDbBlockEnd
0
BLOCK
5
1C
100
AcDbEntity
100
AcDbBlockBegin
2
*PAPER_SPACE
0
ENDBLK
5
1D
100
AcDbEntity
100
AcDbBlockEnd
0
ENDSEC
0
SECTION
2
ENTITIES
0
CIRCLE
5
100
100
AcDbEntity
8
0
100
AcDbCircle
10
-42.00000000000081
20
-9.0000000000003375
30
0
40
1.749999999999998
210
0
220
0
230
1
0
CIRCLE
5
101
100
AcDbEntity
8
0
100
AcDbCircle
10
30.999999999999197
20
-9.0000000000003375
30
0
40
1.749999999999998
210
0
220
0
230
1
0
CIRCLE
5
102
100
AcDbEntity
8
0
100
AcDbCircle
10
-42.00000000000081
20
14.999999999999666
30
0
40
1.749999999999998
210
0
220
0
230
1
0
CIRCLE
5
103
100
AcDbEntity
8
0
100
AcDbCircle
10
30.999999999999197
20
14.999999999999666
30
0
40
1.749999999999998
210
0
220
0
230
1
0
LWPOLYLINE
5
104
100
AcDbEntity
8
0
100
AcDbPolyline
90
56
70
1
43
0.0
10
34.99999999999919
20
-5.9999999999999858
42
0.41421356237309342
10
31.999999999999208
20
-2.9999999999999813
10
-39.000000000000846
20
-2.9999999999996811
42
-0.41421356237309365
10
-43.000000000000824
20
1.000000000000326
10
-43.000000000000824
20
5.0000000000000053
42
-0.41421356237309481
10
-39.000000000000824
20
9.0000000000000036
10
31.999999999999194
20
9.0000000000000036
42
0.41421356237309437
10
34.99999999999919
20
12.000000000000002
10
34.99999999999919
20
12.999999999999666
42
-0.3178372451957826
10
36.99999999999919
20
15.828427124745858
42
0.31783724519578199
10
38.999999999999197
20
18.656854249492049
10
38.999999999999197
20
30.500000000000327
42
0.4142135623730937
10
36.99999999999919
20
32.500000000000327
10
25.999999999999197
20
32.500000000000334
42
0.4142135623730957
10
23.999999999999201
20
30.50000000000033
10
23.999999999999197
20
20.000000298023224
10
19.999999999999204
20
19.999999999999666
42
-0.41421356237309503
10
17.999999999999204
20
17.999999999999666
10
7.9999999999991989
20
17.99999999999967
42
-0.41421356237309492
10
5.9999999999991971
20
19.999999999999666
10
-8.0324635831630076e-13
20
19.999999999999666
42
-0.41421356237309503
10
-2.0000000000008029
20
17.999999999999666
10
-12.000000000000808
20
17.99999999999967
42
-0.4142135623730947
10
-14.000000000000806
20
19.999999999999666
10
-20.00000000000081
20
19.999999999999666
42
-0.41421356237309503
10
-22.00000000000081
20
17.999999999999666
10
-32.00000000000081
20
17.999999999999666
42
-0.41421356237309503
10
-34.00000000000081
20
19.999999999999666
10
-36.000000000000803
20
19.999999999999666
10
-36.000000000000803
20
23.499999999999666
10
-46.000000000000803
20
23.499999999999677
10
-46.000000000000803
20
19.999999999999666
10
-49.00000000000081
20
19.999999999999666
10
-49.00000000000081
20
-20.000000000000334
10
-46.000000000000803
20
-19.999999999999755
10
-46.000000000000803
20
-23.499999999999751
10
-36.000000000000803
20
-23.499999999999751
10
-36.000000000000803
20
-19.999999999999755
10
-34.00000000000081
20
-19.999999999999666
42
-0.41421356237309503
10
-32.00000000000081
20
-17.999999999999666
10
-22.00000000000081
20
-17.999999999999666
42
-0.41421356237309503
10
-20.00000000000081
20
-19.999999999999666
10
-14.000000000000806
20
-19.999999999999666
42
-0.41421356237309503
10
-12.000000000000808
20
-17.999999999999666
10
-2.0000000000008034
20
-17.99999999999967
42
-0.4142135623730947
10
-8.0324635831630076e-13
20
-19.999999999999666
10
5.9999999999991989
20
-19.999999999999666
42
-0.41421356237309503
10
7.9999999999991989
20
-17.999999999999666
10
17.999999999999204
20
-17.99999999999967
42
-0.4142135623730947
10
19.999999999999204
20
-19.999999999999666
10
23.999999999999197
20
-19.999999999999666
10
23.999999999999197
20
-23.499999999999659
10
38.999999999999197
20
-23.499999999999659
10
38.999999999999197
20
-18.656854249492717
42
0.31783724519578249
10
36.99999999999919
20
-15.828427124746529
42
-0.31783724519578227
10
34.99999999999919
20
-13.000000000000336
0
ENDSEC
0
SECTION
2
OBJECTS
0
DICTIONARY
5
C
100
AcDbDictionary
3
ACAD_GROUP
350
D
3
ACAD_MLINESTYLE
350
17
0
DICTIONARY
5
D
100
AcDbDictionary
0
DICTIONARY
5
1A
330
C
100
AcDbDictionary
0
DICTIONARY
5
17
100
AcDbDictionary
0
ENDSEC
0
EOF
