0
SECTION
2
HEADER
9
$INSUNITS
70
4
9
$ACADVER
1
AC1014
9
$HANDSEED
5
FFFF
0
ENDSEC
0
SECTION
2
TABLES
0
TABLE
2
VPORT
5
8
100
AcDbSymbolTable
0
ENDTAB
0
TABLE
2
LTYPE
5
5
100
AcDbSymbolTable
0
LTYPE
5
14
100
AcDbSymbolTableRecord
100
AcDbLinetypeTableRecord
2
BYBLOCK
70
0
0
LTYPE
5
15
100
AcDbSymbolTableRecord
100
AcDbLinetypeTableRecord
2
BYLAYER
70
0
0
ENDTAB
0
TABLE
2
LAYER
5
2
100
AcDbSymbolTable
70
2
0
LAYER
5
50
100
AcDbSymbolTableRecord
100
AcDbLayerTableRecord
2
0
70
0
6
CONTINUOUS
0
ENDTAB
0
TABLE
2
STYLE
5
3
100
AcDbSymbolTable
70
1
0
STYLE
5
11
100
AcDbSymbolTableRecord
100
AcDbTextStyleTableRecord
2
STANDARD
70
0
0
ENDTAB
0
TABLE
2
VIEW
5
6
100
AcDbSymbolTable
70
0
0
ENDTAB
0
TABLE
2
UCS
5
7
100
AcDbSymbolTable
70
0
0
ENDTAB
0
TABLE
2
APPID
5
9
100
AcDbSymbolTable
70
2
0
APPID
5
12
100
AcDbSymbolTableRecord
100
AcDbRegAppTableRecord
2
ACAD
70
0
0
ENDTAB
0
TABLE
2
DIMSTYLE
5
A
100
AcDbSymbolTable
70
1
0
ENDTAB
0
TABLE
2
BLOCK_RECORD
5
1
100
AcDbSymbolTable
70
1
0
BLOCK_RECORD
5
1F
100
AcDbSymbolTableRecord
100
AcDbBlockTableRecord
2
*MODEL_SPACE
0
BLOCK_RECORD
5
1B
100
AcDbSymbolTableRecord
100
AcDbBlockTableRecord
2
*PAPER_SPACE
0
ENDTAB
0
ENDSEC
0
SECTION
2
BLOCKS
0
BLOCK
5
20
100
AcDbEntity
100
AcDbBlockBegin
2
*MODEL_SPACE
0
ENDBLK
5
21
100
AcDbEntity
100
AcDbBlockEnd
0
BLOCK
5
1C
100
AcDbEntity
100
AcDbBlockBegin
2
*PAPER_SPACE
0
ENDBLK
5
1D
100
AcDbEntity
100
AcDbBlockEnd
0
ENDSEC
0
SECTION
2
ENTITIES
0
LWPOLYLINE
5
100
100
AcDbEntity
8
0
100
AcDbPolyline
90
6
70
1
43
0.0
10
-12.499999999999964
20
-175.38299503480661
42
0.99999999999999989
10
12.500000000000036
20
-175.38299503480661
10
12.5
20
-111.14854924829206
42
-0.24522239408497384
10
40.322878228782287
20
-57.830056988963754
42
3.1825619257844129
10
-40.322878228782301
20
-57.83005698896374
42
-0.24522239408497384
10
-12.499999999999982
20
-111.14854924829204
0
LWPOLYLINE
5
101
100
AcDbEntity
8
0
100
AcDbPolyline
90
72
70
1
43
0.0
10
50.463447169961107
20
-25.41044076210693
42
0.10269748459386802
10
56.40784759277372
20
-3.2256363636363394
42
0.43104490394336825
10
54.910294116859362
20
-1.6400000000000003
10
54.450000000000003
20
-1.6400000000000003
10
54.450000000000003
20
1.6400000000000003
10
54.910294116859362
20
1.6399999999999937
42
0.43104490394336897
10
56.407847592773727
20
3.2256363636363443
42
0.10269748459386779
10
50.4634471699611
20
25.410440762106909
42
0.43104490394337297
10
48.373709634475411
20
26.034865396223196
10
47.975083236062687
20
25.804718337793517
10
46.335083236062687
20
28.645281662206479
10
46.733709634475424
20
28.875428720636144
42
0.43104490394336942
10
47.237810806324767
20
30.997406830666783
42
0.10269748459386793
10
30.997406830666797
20
47.237810806324745
42
0.43104490394336953
10
28.875428720636165
20
46.733709634475417
10
28.645281662206486
20
46.335083236062687
10
25.804718337793524
20
47.975083236062687
10
26.034865396223204
20
48.373709634475411
42
0.43104490394337347
10
25.410440762106905
20
50.463447169961114
42
0.10269748459386759
10
3.2256363636363723
20
56.407847592773706
42
0.43104490394337192
10
1.6400000000000037
20
54.910294116859362
10
1.6400000000000037
20
54.450000000000003
10
-1.639999999999997
20
54.450000000000003
10
-1.6400000000000026
20
54.910294116859362
42
0.43104490394336975
10
-3.2256363636363572
20
56.407847592773734
42
0.10269748459386772
10
-25.410440762106891
20
50.463447169961114
42
0.43104490394337192
10
-26.034865396223189
20
48.373709634475418
10
-25.80471833779351
20
47.975083236062694
10
-28.645281662206475
20
46.335083236062701
10
-28.875428720636155
20
46.733709634475424
42
0.43104490394337536
10
-30.997406830666815
20
47.237810806324745
42
0.10269748459386759
10
-47.237810806324745
20
30.997406830666815
42
0.43104490394337253
10
-46.733709634475403
20
28.875428720636176
10
-46.33508323606268
20
28.645281662206497
10
-47.975083236062673
20
25.804718337793542
10
-48.373709634475404
20
26.034865396223221
42
0.4310449039433692
10
-50.463447169961107
20
25.410440762106951
42
0.10269748459386786
10
-56.407847592773706
20
3.225636363636371
42
0.43104490394337192
10
-54.910294116859362
20
1.640000000000007
10
-54.450000000000003
20
1.640000000000007
10
-54.450000000000003
20
-1.6399999999999937
10
-54.910294116859362
20
-1.6399999999999937
42
0.43104490394337341
10
-56.40784759277372
20
-3.2256363636363665
42
0.10269748459386759
10
-50.463447169961114
20
-25.410440762106891
42
0.43104490394337236
10
-48.373709634475418
20
-26.034865396223186
10
-47.975083236062694
20
-25.804718337793506
10
-46.335083236062701
20
-28.645281662206472
10
-46.733709634475424
20
-28.875428720636151
42
0.43104490394337264
10
-47.237810806324767
20
-30.997406830666808
42
0.10269748459386779
10
-30.997406830666815
20
-47.237810806324738
42
0.43104490394336992
10
-28.875428720636179
20
-46.733709634475403
10
-28.6452816622065
20
-46.33508323606268
10
-25.804718337793545
20
-47.975083236062673
10
-26.034865396223221
20
-48.373709634475404
42
0.43104490394337508
10
-25.410440762106919
20
-50.463447169961114
42
0.10269748459386779
10
-3.225636363636379
20
-56.407847592773706
42
0.43104490394337192
10
-1.6400000000000103
20
-54.910294116859362
10
-1.6400000000000103
20
-54.450000000000003
10
1.6399999999999904
20
-54.450000000000003
10
1.6399999999999959
20
-54.910294116859362
42
0.43104490394337575
10
3.2256363636363812
20
-56.407847592773727
42
0.10269748459386752
10
25.410440762106866
20
-50.463447169961135
42
0.43104490394337153
10
26.034865396223168
20
-48.373709634475439
10
25.804718337793485
20
-47.975083236062702
10
28.645281662206447
20
-46.335083236062708
10
28.875428720636144
20
-46.733709634475431
42
0.43104490394337119
10
30.997406830666794
20
-47.237810806324774
42
0.10269748459386779
10
47.237810806324731
20
-30.997406830666826
42
0.43104490394337086
10
46.733709634475396
20
-28.875428720636179
10
46.335083236062673
20
-28.6452816622065
10
47.975083236062666
20
-25.804718337793545
10
48.373709634475404
20
-26.034865396223232
42
0.43104490394337397
0
ENDSEC
0
SECTION
2
OBJECTS
0
DICTIONARY
5
C
100
AcDbDictionary
3
ACAD_GROUP
350
D
3
ACAD_MLINESTYLE
350
17
0
DICTIONARY
5
D
100
AcDbDictionary
0
DICTIONARY
5
1A
330
C
100
AcDbDictionary
0
DICTIONARY
5
17
100
AcDbDictionary
0
ENDSEC
0
EOF
