0
SECTION
2
HEADER
9
$INSUNITS
70
4
9
$ACADVER
1
AC1014
9
$HANDSEED
5
FFFF
0
ENDSEC
0
SECTION
2
TABLES
0
TABLE
2
VPORT
5
8
100
AcDbSymbolTable
0
ENDTAB
0
TABLE
2
LTYPE
5
5
100
AcDbSymbolTable
0
LTYPE
5
14
100
AcDbSymbolTableRecord
100
AcDbLinetypeTableRecord
2
BYBLOCK
70
0
0
LTYPE
5
15
100
AcDbSymbolTableRecord
100
AcDbLinetypeTableRecord
2
BYLAYER
70
0
0
ENDTAB
0
TABLE
2
LAYER
5
2
100
AcDbSymbolTable
70
2
0
LAYER
5
50
100
AcDbSymbolTableRecord
100
AcDbLayerTableRecord
2
0
70
0
6
CONTINUOUS
0
ENDTAB
0
TABLE
2
STYLE
5
3
100
AcDbSymbolTable
70
1
0
STYLE
5
11
100
AcDbSymbolTableRecord
100
AcDbTextStyleTableRecord
2
STANDARD
70
0
0
ENDTAB
0
TABLE
2
VIEW
5
6
100
AcDbSymbolTable
70
0
0
ENDTAB
0
TABLE
2
UCS
5
7
100
AcDbSymbolTable
70
0
0
ENDTAB
0
TABLE
2
APPID
5
9
100
AcDbSymbolTable
70
2
0
APPID
5
12
100
AcDbSymbolTableRecord
100
AcDbRegAppTableRecord
2
ACAD
70
0
0
ENDTAB
0
TABLE
2
DIMSTYLE
5
A
100
AcDbSymbolTable
70
1
0
ENDTAB
0
TABLE
2
BLOCK_RECORD
5
1
100
AcDbSymbolTable
70
1
0
BLOCK_RECORD
5
1F
100
AcDbSymbolTableRecord
100
AcDbBlockTableRecord
2
*MODEL_SPACE
0
BLOCK_RECORD
5
1B
100
AcDbSymbolTableRecord
100
AcDbBlockTableRecord
2
*PAPER_SPACE
0
ENDTAB
0
ENDSEC
0
SECTION
2
BLOCKS
0
BLOCK
5
20
100
AcDbEntity
100
AcDbBlockBegin
2
*MODEL_SPACE
0
ENDBLK
5
21
100
AcDbEntity
100
AcDbBlockEnd
0
BLOCK
5
1C
100
AcDbEntity
100
AcDbBlockBegin
2
*PAPER_SPACE
0
ENDBLK
5
1D
100
AcDbEntity
100
AcDbBlockEnd
0
ENDSEC
0
SECTION
2
ENTITIES
0
LWPOLYLINE
5
100
100
AcDbEntity
8
0
100
AcDbPolyline
90
16
70
1
43
0.0
10
-43.000000000000149
20
-38.500000000000007
42
0.41421356237309243
10
-45.000000000000149
20
-40.500000000000007
10
-45.000000000000171
20
-53.000000000000171
42
0.4142135623730957
10
-33.000000000000171
20
-65.000000000000199
10
4.9999999999998668
20
-65.000000000000199
42
0.41421356237309509
10
44.999999999999872
20
-25.000000000000213
10
44.999999999999893
20
24.999999999999751
42
0.41421356237309542
10
4.9999999999998739
20
64.999999999999787
10
-33.000000000000092
20
64.999999999999773
42
0.4142135623730947
10
-45.000000000000085
20
52.999999999999773
10
-45.000000000000099
20
40.499999999999986
42
0.41421356237309243
10
-43.000000000000099
20
38.499999999999986
10
-31.250000000000004
20
38.500000000000007
42
-0.4142135623730957
10
-29.25
20
36.5
10
-29.249999999999993
20
-36.5
42
-0.4142135623730957
10
-31.249999999999996
20
-38.500000000000007
0
LWPOLYLINE
5
101
100
AcDbEntity
8
0
100
AcDbPolyline
90
4
70
1
43
0.0
10
-29.499999999999996
20
-61.499999999999993
10
-31.500000000000007
20
-61.499999999999993
42
-0.99999999999999989
10
-31.5
20
-54.999999999999993
10
-29.499999999999989
20
-54.999999999999993
42
-0.99999999999999989
0
LWPOLYLINE
5
102
100
AcDbEntity
8
0
100
AcDbPolyline
90
4
70
1
43
0.0
10
-10.499999999999998
20
-54.999999999999993
10
-8.4999999999999876
20
-54.999999999999993
42
-0.99999999999999989
10
-8.4999999999999964
20
-61.499999999999993
10
-10.500000000000007
20
-61.499999999999993
42
-0.99999999999999989
0
LWPOLYLINE
5
103
100
AcDbEntity
8
0
100
AcDbPolyline
90
4
70
1
43
0.0
10
-29.499999999999996
20
54.999999999999993
10
-31.500000000000007
20
54.999999999999993
42
-0.99999999999999989
10
-31.5
20
61.499999999999993
10
-29.499999999999989
20
61.499999999999993
42
-0.99999999999999989
0
LWPOLYLINE
5
104
100
AcDbEntity
8
0
100
AcDbPolyline
90
4
70
1
43
0.0
10
-10.499999999999998
20
61.499999999999993
10
-8.4999999999999876
20
61.499999999999993
42
-0.99999999999999989
10
-8.4999999999999964
20
54.999999999999993
10
-10.500000000000007
20
54.999999999999993
42
-0.99999999999999989
0
LWPOLYLINE
5
105
100
AcDbEntity
8
0
100
AcDbPolyline
90
4
70
1
43
0.0
10
-4.2499999999999947
20
39.25
10
-4.2499999999999964
20
43.249999999999986
42
-0.99999999999999989
10
4.2500000000000053
20
43.25
10
4.2500000000000062
20
39.25
42
-0.99999999999999989
0
LWPOLYLINE
5
106
100
AcDbEntity
8
0
100
AcDbPolyline
90
4
70
1
43
0.0
10
4.2499999999999964
20
-39.25
10
4.2499999999999938
20
-43.249999999999986
42
-0.99999999999999989
10
-4.2500000000000053
20
-43.25
10
-4.2500000000000053
20
-39.25
42
-0.99999999999999989
0
ENDSEC
0
SECTION
2
OBJECTS
0
DICTIONARY
5
C
100
AcDbDictionary
3
ACAD_GROUP
350
D
3
ACAD_MLINESTYLE
350
17
0
DICTIONARY
5
D
100
AcDbDictionary
0
DICTIONARY
5
1A
330
C
100
AcDbDictionary
0
DICTIONARY
5
17
100
AcDbDictionary
0
ENDSEC
0
EOF
