0
SECTION
2
HEADER
9
$INSUNITS
70
4
9
$ACADVER
1
AC1014
9
$HANDSEED
5
FFFF
0
ENDSEC
0
SECTION
2
TABLES
0
TABLE
2
VPORT
5
8
100
AcDbSymbolTable
0
ENDTAB
0
TABLE
2
LTYPE
5
5
100
AcDbSymbolTable
0
LTYPE
5
14
100
AcDbSymbolTableRecord
100
AcDbLinetypeTableRecord
2
BYBLOCK
70
0
0
LTYPE
5
15
100
AcDbSymbolTableRecord
100
AcDbLinetypeTableRecord
2
BYLAYER
70
0
0
ENDTAB
0
TABLE
2
LAYER
5
2
100
AcDbSymbolTable
70
2
0
LAYER
5
50
100
AcDbSymbolTableRecord
100
AcDbLayerTableRecord
2
0
70
0
6
CONTINUOUS
0
ENDTAB
0
TABLE
2
STYLE
5
3
100
AcDbSymbolTable
70
1
0
STYLE
5
11
100
AcDbSymbolTableRecord
100
AcDbTextStyleTableRecord
2
STANDARD
70
0
0
ENDTAB
0
TABLE
2
VIEW
5
6
100
AcDbSymbolTable
70
0
0
ENDTAB
0
TABLE
2
UCS
5
7
100
AcDbSymbolTable
70
0
0
ENDTAB
0
TABLE
2
APPID
5
9
100
AcDbSymbolTable
70
2
0
APPID
5
12
100
AcDbSymbolTableRecord
100
AcDbRegAppTableRecord
2
ACAD
70
0
0
ENDTAB
0
TABLE
2
DIMSTYLE
5
A
100
AcDbSymbolTable
70
1
0
ENDTAB
0
TABLE
2
BLOCK_RECORD
5
1
100
AcDbSymbolTable
70
1
0
BLOCK_RECORD
5
1F
100
AcDbSymbolTableRecord
100
AcDbBlockTableRecord
2
*MODEL_SPACE
0
BLOCK_RECORD
5
1B
100
AcDbSymbolTableRecord
100
AcDbBlockTableRecord
2
*PAPER_SPACE
0
ENDTAB
0
ENDSEC
0
SECTION
2
BLOCKS
0
BLOCK
5
20
100
AcDbEntity
100
AcDbBlockBegin
2
*MODEL_SPACE
0
ENDBLK
5
21
100
AcDbEntity
100
AcDbBlockEnd
0
BLOCK
5
1C
100
AcDbEntity
100
AcDbBlockBegin
2
*PAPER_SPACE
0
ENDBLK
5
1D
100
AcDbEntity
100
AcDbBlockEnd
0
ENDSEC
0
SECTION
2
ENTITIES
0
LWPOLYLINE
5
100
100
AcDbEntity
8
0
100
AcDbPolyline
90
16
70
1
43
0.0
10
-22.500000000000021
20
5.6000000000001551
42
-0.41421356237309537
10
-17.500000000000021
20
10.600000000000156
10
-11.499999999999966
20
10.600000000000151
42
0.41421356237309503
10
-5.4999999999999645
20
16.600000000000151
10
-5.4999999999999671
20
17.450000000000273
42
0.41421356237309465
10
-11.499999999999961
20
23.450000000000273
10
-12.500000000000028
20
23.450000000000273
42
-0.41421356237309476
10
-22.500000000000021
20
33.450000000000273
10
-22.500000000000018
20
50.500000000000085
42
-0.41421356237309653
10
-18.500000000000011
20
54.500000000000092
10
18.500000000000096
20
54.500000000000064
42
-0.41421356237309814
10
22.500000000000092
20
50.50000000000005
10
22.499999999999982
20
-46.99999999999995
42
-0.4142135623730932
10
14.999999999999979
20
-54.499999999999929
10
-15.000000000000028
20
-54.499999999999915
42
-0.41421356237309515
10
-22.500000000000032
20
-46.999999999999915
0
CIRCLE
5
101
100
AcDbEntity
8
0
100
AcDbCircle
10
15.10799999999997
20
-49.014999999999759
30
0
40
1.6000000000000014
210
0
220
-0
230
1
0
LWPOLYLINE
5
102
100
AcDbEntity
8
0
100
AcDbPolyline
90
4
70
1
43
0.0
10
8.1499999999999773
20
-3.5999999999999055
10
8.1499999999999773
20
10.600000000000094
10
4.8499999999999766
20
10.600000000000094
10
4.8499999999999766
20
-3.5999999999999046
0
LWPOLYLINE
5
103
100
AcDbEntity
8
0
100
AcDbPolyline
90
4
70
1
43
0.0
10
19.199999999999999
20
26.45000000000028
10
19.199999999999999
20
29.750000000000281
10
5
20
29.750000000000281
10
5.0000000000000444
20
26.45000000000028
0
LWPOLYLINE
5
104
100
AcDbEntity
8
0
100
AcDbPolyline
90
4
70
1
43
0.0
10
8.1499999999999773
20
-27.599999999999909
10
8.1499999999999773
20
-13.39999999999991
10
4.8499999999999766
20
-13.39999999999991
10
4.8499999999999766
20
-27.599999999999909
0
CIRCLE
5
105
100
AcDbEntity
8
0
100
AcDbCircle
10
12.108000000000034
20
42.48500000000022
30
0
40
1.6000000000000014
210
0
220
-0
230
1
0
LWPOLYLINE
5
106
100
AcDbEntity
8
0
100
AcDbPolyline
90
4
70
1
43
0.0
10
-3.2999999999999794
20
26.45000000000028
10
-3.2999999999999794
20
29.750000000000281
10
-11.499999999999979
20
29.750000000000281
10
-11.499999999999979
20
26.45000000000028
0
LWPOLYLINE
5
107
100
AcDbEntity
8
0
100
AcDbPolyline
90
4
70
1
43
0.0
10
8.1499999999999773
20
14.400000000000093
10
8.1499999999999773
20
22.600000000000094
10
4.8499999999999766
20
22.600000000000094
10
4.8499999999999766
20
14.400000000000093
0
LWPOLYLINE
5
108
100
AcDbEntity
8
0
100
AcDbPolyline
90
4
70
1
43
0.0
10
8.1499999999999773
20
-44.599999999999909
10
8.1499999999999773
20
-36.399999999999906
10
4.8499999999999766
20
-36.399999999999906
10
4.8499999999999766
20
-44.599999999999909
0
LWPOLYLINE
5
109
100
AcDbEntity
8
0
100
AcDbPolyline
90
4
70
1
43
0.0
10
-1.8999999999999906
20
7.6000000000001506
10
-5.099999999999989
20
7.6000000000001524
10
-5.099999999999989
20
-2.5999999999998478
10
-1.8999999999999888
20
-2.5999999999998491
0
ENDSEC
0
SECTION
2
OBJECTS
0
DICTIONARY
5
C
100
AcDbDictionary
3
ACAD_GROUP
350
D
3
ACAD_MLINESTYLE
350
17
0
DICTIONARY
5
D
100
AcDbDictionary
0
DICTIONARY
5
1A
330
C
100
AcDbDictionary
0
DICTIONARY
5
17
100
AcDbDictionary
0
ENDSEC
0
EOF
