M48
;GenerationSoftware,Autodesk,EAGLE,9.5.1*%
;CreationDate,2022-02-19T19:05:42Z*%
FMAT,2
ICI,OFF
METRIC,TZ,000.000
T7C0.350
T6C0.750
T5C0.800
T4C0.813
T3C0.900
T2C1.016
T1C3.000
%
G90
M71
T1
X15000Y40000
X15000Y16000
X88000Y40000
X88000Y16000
T2
X53150Y35880
X50610Y35880
X48070Y35880
X45530Y35880
X37910Y16060
X40450Y16060
X42990Y16060
X45530Y16060
X58230Y16060
X48070Y16060
X50610Y16060
X53150Y16060
X55690Y16060
X89500Y20460
X89500Y23000
X89500Y25540
X35370Y16060
X73470Y16060
X70930Y16060
X68390Y16060
X65850Y16060
X63310Y16060
X60770Y16060
X63310Y35880
X60770Y35880
X58230Y35880
X55690Y35880
X73470Y35880
X70930Y35880
X68390Y35880
X65850Y35880
T3
X30750Y39750
X33290Y39750
X28210Y39750
X89500Y27940
X47690Y19250
X55310Y19250
X55310Y22750
X47690Y22750
X89500Y35560
X13750Y20940
X13750Y28560
X16000Y27440
X16000Y35060
T4
X79882Y30030
X77342Y30030
X74802Y30030
X72262Y30030
X69722Y30030
X74802Y22410
X84962Y30030
X84962Y22410
X27500Y28190
X27500Y35810
X31000Y28190
X72262Y22410
X69722Y22410
X31000Y35810
X77342Y22410
X82422Y22410
X79882Y22410
X82422Y30030
T5
X20540Y36165
X20540Y38165
T6
X21250Y19250
X21250Y13250
X21250Y15250
X21250Y17250
X21250Y30000
X21250Y28000
X21250Y26000
T7
X43000Y30500
X39000Y30500
X43250Y23500
X51500Y25250
X60500Y27000
X58250Y34000
X84250Y19000
X33250Y25750
X27250Y12500
X25000Y14250
X26750Y21250
X17000Y22750
X19250Y22250
X50255Y31319
X37000Y28250
X68750Y20500
X59500Y19000
X59250Y24500
X27000Y17000
X30000Y25750
X59750Y22750
X78000Y35000
X40000Y12250
X51750Y12250
X63500Y12250
X64750Y26000
X35000Y18750
M30