G04 EAGLE Gerber RS-274X export*
G75*
%MOMM*%
%FSLAX34Y34*%
%LPD*%
%INTop Copper*%
%IPPOS*%
%AMOC8*
5,1,8,0,0,1.08239X$1,22.5*%
G01*
%ADD10C,1.524000*%
%ADD11R,0.900000X2.250000*%
%ADD12R,0.900000X2.800000*%
%ADD13C,0.304800*%
%ADD14C,0.152400*%

G36*
X249686Y97076D02*
X249686Y97076D01*
X249705Y97074D01*
X249807Y97096D01*
X249909Y97112D01*
X249926Y97122D01*
X249946Y97126D01*
X250035Y97179D01*
X250126Y97228D01*
X250140Y97242D01*
X250157Y97252D01*
X250224Y97331D01*
X250296Y97406D01*
X250304Y97424D01*
X250317Y97439D01*
X250356Y97535D01*
X250399Y97629D01*
X250401Y97649D01*
X250409Y97667D01*
X250427Y97834D01*
X250427Y217500D01*
X250423Y217526D01*
X250424Y217575D01*
X250382Y217997D01*
X250375Y218025D01*
X250374Y218053D01*
X250328Y218214D01*
X250004Y218995D01*
X249970Y219051D01*
X249944Y219111D01*
X249892Y219175D01*
X249875Y219204D01*
X249860Y219216D01*
X249839Y219242D01*
X249242Y219839D01*
X249189Y219877D01*
X249142Y219923D01*
X249069Y219964D01*
X249042Y219983D01*
X249023Y219988D01*
X248995Y220004D01*
X248214Y220328D01*
X248186Y220334D01*
X248161Y220347D01*
X247997Y220382D01*
X247575Y220424D01*
X247548Y220422D01*
X247500Y220427D01*
X140334Y220427D01*
X140314Y220424D01*
X140295Y220426D01*
X140193Y220404D01*
X140091Y220388D01*
X140074Y220378D01*
X140054Y220374D01*
X139965Y220321D01*
X139874Y220272D01*
X139860Y220258D01*
X139843Y220248D01*
X139776Y220169D01*
X139704Y220094D01*
X139696Y220076D01*
X139683Y220061D01*
X139644Y219964D01*
X139601Y219871D01*
X139599Y219851D01*
X139591Y219833D01*
X139573Y219666D01*
X139573Y97834D01*
X139576Y97814D01*
X139574Y97795D01*
X139596Y97693D01*
X139612Y97591D01*
X139622Y97574D01*
X139626Y97554D01*
X139679Y97465D01*
X139728Y97374D01*
X139742Y97360D01*
X139752Y97343D01*
X139831Y97276D01*
X139906Y97204D01*
X139924Y97196D01*
X139939Y97183D01*
X140035Y97144D01*
X140129Y97101D01*
X140149Y97099D01*
X140167Y97091D01*
X140334Y97073D01*
X249666Y97073D01*
X249686Y97076D01*
G37*
%LPC*%
G36*
X149857Y101282D02*
X149857Y101282D01*
X146496Y102674D01*
X143924Y105246D01*
X142531Y108607D01*
X142531Y112245D01*
X143924Y115607D01*
X146496Y118179D01*
X149857Y119571D01*
X153495Y119571D01*
X155156Y118883D01*
X155270Y118856D01*
X155384Y118828D01*
X155390Y118828D01*
X155396Y118827D01*
X155513Y118838D01*
X155629Y118847D01*
X155635Y118849D01*
X155641Y118850D01*
X155748Y118898D01*
X155855Y118943D01*
X155861Y118948D01*
X155866Y118950D01*
X155879Y118963D01*
X155986Y119048D01*
X160591Y123653D01*
X173728Y123653D01*
X173748Y123656D01*
X173768Y123654D01*
X173869Y123676D01*
X173971Y123693D01*
X173989Y123702D01*
X174008Y123706D01*
X174097Y123760D01*
X174189Y123808D01*
X174202Y123822D01*
X174219Y123833D01*
X174287Y123911D01*
X174358Y123986D01*
X174366Y124004D01*
X174379Y124020D01*
X174418Y124116D01*
X174462Y124209D01*
X174464Y124229D01*
X174471Y124248D01*
X174490Y124414D01*
X174490Y132486D01*
X175395Y133391D01*
X175464Y133393D01*
X175512Y133411D01*
X175563Y133419D01*
X175627Y133453D01*
X175695Y133478D01*
X175735Y133510D01*
X175780Y133534D01*
X175830Y133586D01*
X175886Y133632D01*
X175914Y133675D01*
X175950Y133712D01*
X175980Y133778D01*
X176019Y133839D01*
X176032Y133889D01*
X176053Y133935D01*
X176061Y134007D01*
X176079Y134077D01*
X176075Y134129D01*
X176081Y134180D01*
X176065Y134250D01*
X176059Y134322D01*
X176039Y134370D01*
X176028Y134420D01*
X175991Y134482D01*
X175963Y134549D01*
X175919Y134604D01*
X175902Y134631D01*
X175884Y134647D01*
X175858Y134679D01*
X175847Y134691D01*
X156972Y153566D01*
X156877Y153634D01*
X156783Y153704D01*
X156777Y153706D01*
X156772Y153709D01*
X156661Y153743D01*
X156549Y153780D01*
X156543Y153780D01*
X156537Y153782D01*
X156420Y153779D01*
X156303Y153777D01*
X156296Y153775D01*
X156291Y153775D01*
X156273Y153769D01*
X156142Y153731D01*
X153719Y152727D01*
X150081Y152727D01*
X146719Y154119D01*
X144147Y156692D01*
X142755Y160053D01*
X142755Y163691D01*
X144147Y167052D01*
X146719Y169624D01*
X150081Y171016D01*
X153719Y171016D01*
X157080Y169624D01*
X159652Y167052D01*
X161044Y163691D01*
X161044Y160053D01*
X160040Y157629D01*
X160014Y157516D01*
X159985Y157402D01*
X159986Y157396D01*
X159984Y157390D01*
X159995Y157273D01*
X160004Y157157D01*
X160007Y157151D01*
X160007Y157145D01*
X160055Y157037D01*
X160101Y156931D01*
X160105Y156925D01*
X160107Y156920D01*
X160120Y156906D01*
X160205Y156800D01*
X179080Y137925D01*
X179154Y137872D01*
X179224Y137812D01*
X179254Y137800D01*
X179280Y137781D01*
X179367Y137754D01*
X179452Y137720D01*
X179493Y137716D01*
X179515Y137709D01*
X179547Y137710D01*
X179619Y137702D01*
X202445Y137702D01*
X206545Y133602D01*
X206619Y133549D01*
X206688Y133490D01*
X206719Y133477D01*
X206745Y133459D01*
X206832Y133432D01*
X206917Y133398D01*
X206957Y133393D01*
X206980Y133386D01*
X207012Y133387D01*
X207083Y133379D01*
X211146Y133379D01*
X211726Y132799D01*
X211742Y132787D01*
X211755Y132772D01*
X211842Y132716D01*
X211926Y132656D01*
X211945Y132650D01*
X211962Y132639D01*
X212062Y132614D01*
X212161Y132583D01*
X212181Y132584D01*
X212200Y132579D01*
X212303Y132587D01*
X212407Y132590D01*
X212426Y132596D01*
X212445Y132598D01*
X212540Y132638D01*
X212638Y132674D01*
X212654Y132686D01*
X212672Y132694D01*
X212803Y132799D01*
X213383Y133379D01*
X223646Y133379D01*
X224539Y132486D01*
X224539Y108723D01*
X223646Y107830D01*
X213383Y107830D01*
X212803Y108410D01*
X212787Y108422D01*
X212774Y108437D01*
X212687Y108493D01*
X212603Y108553D01*
X212584Y108559D01*
X212567Y108570D01*
X212467Y108595D01*
X212368Y108626D01*
X212348Y108625D01*
X212329Y108630D01*
X212226Y108622D01*
X212122Y108619D01*
X212103Y108613D01*
X212083Y108611D01*
X211989Y108571D01*
X211891Y108535D01*
X211875Y108522D01*
X211857Y108515D01*
X211726Y108410D01*
X211146Y107830D01*
X200883Y107830D01*
X200053Y108660D01*
X200037Y108672D01*
X200024Y108687D01*
X199937Y108743D01*
X199853Y108803D01*
X199834Y108809D01*
X199817Y108820D01*
X199717Y108845D01*
X199618Y108876D01*
X199598Y108875D01*
X199579Y108880D01*
X199476Y108872D01*
X199372Y108869D01*
X199353Y108863D01*
X199333Y108861D01*
X199239Y108821D01*
X199141Y108785D01*
X199125Y108772D01*
X199107Y108765D01*
X198976Y108660D01*
X198146Y107830D01*
X187883Y107830D01*
X187303Y108410D01*
X187287Y108422D01*
X187274Y108437D01*
X187187Y108493D01*
X187103Y108553D01*
X187084Y108559D01*
X187067Y108570D01*
X186967Y108595D01*
X186868Y108626D01*
X186848Y108625D01*
X186829Y108630D01*
X186726Y108622D01*
X186622Y108619D01*
X186603Y108613D01*
X186583Y108611D01*
X186489Y108571D01*
X186391Y108535D01*
X186375Y108522D01*
X186357Y108515D01*
X186226Y108410D01*
X185646Y107830D01*
X175383Y107830D01*
X174490Y108723D01*
X174490Y116794D01*
X174486Y116814D01*
X174489Y116834D01*
X174467Y116935D01*
X174450Y117037D01*
X174441Y117055D01*
X174436Y117074D01*
X174383Y117163D01*
X174335Y117255D01*
X174320Y117268D01*
X174310Y117285D01*
X174232Y117353D01*
X174157Y117424D01*
X174138Y117432D01*
X174123Y117445D01*
X174027Y117484D01*
X173933Y117528D01*
X173914Y117530D01*
X173895Y117537D01*
X173728Y117556D01*
X163432Y117556D01*
X163342Y117541D01*
X163251Y117534D01*
X163221Y117521D01*
X163190Y117516D01*
X163109Y117473D01*
X163025Y117438D01*
X162993Y117412D01*
X162972Y117401D01*
X162950Y117378D01*
X162894Y117333D01*
X160298Y114736D01*
X160230Y114642D01*
X160160Y114548D01*
X160158Y114542D01*
X160154Y114537D01*
X160120Y114426D01*
X160084Y114314D01*
X160084Y114308D01*
X160082Y114302D01*
X160085Y114185D01*
X160086Y114068D01*
X160088Y114061D01*
X160088Y114056D01*
X160095Y114038D01*
X160133Y113907D01*
X160821Y112245D01*
X160821Y108607D01*
X159429Y105246D01*
X156856Y102674D01*
X153495Y101282D01*
X149857Y101282D01*
G37*
%LPD*%
%LPC*%
G36*
X187883Y156280D02*
X187883Y156280D01*
X186990Y157173D01*
X186990Y161336D01*
X186978Y161406D01*
X186976Y161478D01*
X186958Y161527D01*
X186950Y161578D01*
X186916Y161642D01*
X186892Y161709D01*
X186859Y161750D01*
X186835Y161796D01*
X186783Y161845D01*
X186738Y161901D01*
X186694Y161929D01*
X186657Y161965D01*
X186591Y161995D01*
X186531Y162034D01*
X186481Y162047D01*
X186433Y162069D01*
X186362Y162077D01*
X186293Y162094D01*
X186241Y162090D01*
X186189Y162096D01*
X186119Y162081D01*
X186047Y162075D01*
X186000Y162055D01*
X185949Y162044D01*
X185887Y162007D01*
X185821Y161979D01*
X185765Y161934D01*
X185738Y161917D01*
X185722Y161900D01*
X185690Y161874D01*
X185646Y161830D01*
X175383Y161830D01*
X174490Y162723D01*
X174490Y185092D01*
X174486Y185112D01*
X174489Y185132D01*
X174467Y185233D01*
X174450Y185335D01*
X174441Y185353D01*
X174436Y185372D01*
X174383Y185461D01*
X174335Y185553D01*
X174320Y185566D01*
X174310Y185583D01*
X174232Y185651D01*
X174157Y185722D01*
X174138Y185730D01*
X174123Y185743D01*
X174027Y185782D01*
X173933Y185826D01*
X173914Y185828D01*
X173895Y185835D01*
X173728Y185854D01*
X162212Y185854D01*
X162097Y185835D01*
X161981Y185818D01*
X161975Y185815D01*
X161969Y185814D01*
X161866Y185760D01*
X161761Y185706D01*
X161757Y185702D01*
X161751Y185699D01*
X161672Y185615D01*
X161589Y185531D01*
X161585Y185524D01*
X161582Y185521D01*
X161574Y185504D01*
X161508Y185384D01*
X160333Y182546D01*
X157760Y179974D01*
X154399Y178582D01*
X150761Y178582D01*
X147400Y179974D01*
X144828Y182546D01*
X143436Y185907D01*
X143436Y189545D01*
X144828Y192906D01*
X147400Y195479D01*
X150761Y196871D01*
X154399Y196871D01*
X157760Y195479D01*
X160333Y192906D01*
X161165Y190897D01*
X161227Y190797D01*
X161287Y190698D01*
X161291Y190693D01*
X161295Y190688D01*
X161385Y190613D01*
X161474Y190538D01*
X161479Y190535D01*
X161484Y190531D01*
X161593Y190490D01*
X161702Y190446D01*
X161709Y190445D01*
X161714Y190443D01*
X161732Y190442D01*
X161868Y190427D01*
X216004Y190427D01*
X218829Y187602D01*
X218903Y187549D01*
X218972Y187490D01*
X219002Y187477D01*
X219029Y187459D01*
X219115Y187432D01*
X219200Y187398D01*
X219241Y187393D01*
X219264Y187386D01*
X219296Y187387D01*
X219367Y187379D01*
X223646Y187379D01*
X224539Y186486D01*
X224539Y162723D01*
X223646Y161830D01*
X213329Y161830D01*
X213322Y161835D01*
X213302Y161841D01*
X213286Y161852D01*
X213185Y161877D01*
X213086Y161907D01*
X213066Y161907D01*
X213047Y161912D01*
X212944Y161904D01*
X212841Y161901D01*
X212822Y161894D01*
X212802Y161893D01*
X212707Y161852D01*
X212610Y161817D01*
X212594Y161804D01*
X212576Y161796D01*
X212445Y161691D01*
X212074Y161321D01*
X211495Y160987D01*
X210849Y160814D01*
X207538Y160814D01*
X207538Y173842D01*
X207534Y173862D01*
X207537Y173882D01*
X207515Y173983D01*
X207498Y174085D01*
X207489Y174103D01*
X207484Y174122D01*
X207431Y174211D01*
X207383Y174302D01*
X207368Y174316D01*
X207358Y174333D01*
X207279Y174401D01*
X207204Y174472D01*
X207186Y174480D01*
X207171Y174493D01*
X207075Y174532D01*
X206981Y174575D01*
X206962Y174578D01*
X206943Y174585D01*
X206776Y174604D01*
X205252Y174604D01*
X205233Y174600D01*
X205213Y174603D01*
X205112Y174581D01*
X205010Y174564D01*
X204992Y174555D01*
X204973Y174550D01*
X204884Y174497D01*
X204792Y174449D01*
X204779Y174434D01*
X204762Y174424D01*
X204694Y174345D01*
X204623Y174270D01*
X204615Y174252D01*
X204602Y174237D01*
X204563Y174141D01*
X204519Y174047D01*
X204517Y174028D01*
X204510Y174009D01*
X204491Y173842D01*
X204491Y160814D01*
X201180Y160814D01*
X200534Y160987D01*
X200181Y161191D01*
X200092Y161224D01*
X200005Y161264D01*
X199977Y161268D01*
X199951Y161278D01*
X199856Y161281D01*
X199761Y161292D01*
X199733Y161286D01*
X199705Y161287D01*
X199614Y161260D01*
X199521Y161239D01*
X199496Y161225D01*
X199469Y161217D01*
X199391Y161162D01*
X199309Y161113D01*
X199291Y161092D01*
X199268Y161075D01*
X199212Y160999D01*
X199150Y160926D01*
X199139Y160900D01*
X199122Y160877D01*
X199093Y160787D01*
X199058Y160698D01*
X199054Y160663D01*
X199047Y160643D01*
X199048Y160610D01*
X199039Y160531D01*
X199039Y157173D01*
X198146Y156280D01*
X187883Y156280D01*
G37*
%LPD*%
%LPC*%
G36*
X235795Y163860D02*
X235795Y163860D01*
X232434Y165252D01*
X229862Y167824D01*
X228470Y171185D01*
X228470Y174823D01*
X229862Y178185D01*
X232434Y180757D01*
X234858Y181761D01*
X234957Y181822D01*
X235057Y181882D01*
X235061Y181887D01*
X235067Y181890D01*
X235141Y181980D01*
X235217Y182069D01*
X235220Y182075D01*
X235224Y182080D01*
X235265Y182188D01*
X235309Y182297D01*
X235310Y182305D01*
X235312Y182310D01*
X235313Y182328D01*
X235328Y182464D01*
X235328Y193428D01*
X235313Y193519D01*
X235306Y193609D01*
X235293Y193639D01*
X235288Y193671D01*
X235245Y193752D01*
X235210Y193836D01*
X235184Y193868D01*
X235173Y193889D01*
X235150Y193911D01*
X235105Y193967D01*
X223487Y205585D01*
X223413Y205638D01*
X223343Y205697D01*
X223313Y205710D01*
X223287Y205728D01*
X223200Y205755D01*
X223115Y205789D01*
X223074Y205794D01*
X223052Y205801D01*
X223020Y205800D01*
X222948Y205808D01*
X220749Y205808D01*
X220634Y205789D01*
X220518Y205772D01*
X220512Y205769D01*
X220506Y205768D01*
X220404Y205714D01*
X220299Y205660D01*
X220294Y205656D01*
X220289Y205653D01*
X220209Y205569D01*
X220126Y205485D01*
X220123Y205478D01*
X220119Y205475D01*
X220112Y205458D01*
X220046Y205338D01*
X219042Y202914D01*
X216469Y200342D01*
X213108Y198950D01*
X209470Y198950D01*
X206109Y200342D01*
X203537Y202914D01*
X202145Y206276D01*
X202145Y209914D01*
X203537Y213275D01*
X206109Y215847D01*
X209470Y217239D01*
X213108Y217239D01*
X216469Y215847D01*
X219042Y213275D01*
X220046Y210851D01*
X220107Y210752D01*
X220167Y210652D01*
X220172Y210647D01*
X220175Y210642D01*
X220265Y210568D01*
X220354Y210492D01*
X220360Y210489D01*
X220365Y210485D01*
X220473Y210444D01*
X220582Y210400D01*
X220590Y210399D01*
X220594Y210397D01*
X220613Y210396D01*
X220749Y210381D01*
X225158Y210381D01*
X226720Y208819D01*
X226721Y208819D01*
X239901Y195638D01*
X239901Y182464D01*
X239920Y182349D01*
X239937Y182233D01*
X239940Y182228D01*
X239941Y182221D01*
X239995Y182119D01*
X240049Y182014D01*
X240053Y182009D01*
X240056Y182004D01*
X240140Y181924D01*
X240224Y181842D01*
X240231Y181838D01*
X240234Y181835D01*
X240251Y181827D01*
X240371Y181761D01*
X242795Y180757D01*
X245367Y178185D01*
X246759Y174823D01*
X246759Y171185D01*
X245367Y167824D01*
X242795Y165252D01*
X239433Y163860D01*
X235795Y163860D01*
G37*
%LPD*%
%LPC*%
G36*
X187278Y209661D02*
X187278Y209661D01*
X187278Y218184D01*
X188134Y218048D01*
X189655Y217554D01*
X191080Y216828D01*
X192374Y215888D01*
X193505Y214757D01*
X194445Y213463D01*
X195171Y212038D01*
X195665Y210517D01*
X195801Y209661D01*
X187278Y209661D01*
G37*
%LPD*%
%LPC*%
G36*
X153504Y137863D02*
X153504Y137863D01*
X153504Y146386D01*
X154360Y146250D01*
X155881Y145756D01*
X157306Y145030D01*
X158600Y144090D01*
X159731Y142959D01*
X160671Y141665D01*
X161397Y140240D01*
X161891Y138719D01*
X162027Y137863D01*
X153504Y137863D01*
G37*
%LPD*%
%LPC*%
G36*
X239138Y123728D02*
X239138Y123728D01*
X239138Y132251D01*
X239994Y132115D01*
X241515Y131621D01*
X242940Y130895D01*
X244234Y129955D01*
X245365Y128824D01*
X246305Y127530D01*
X247031Y126105D01*
X247525Y124584D01*
X247661Y123728D01*
X239138Y123728D01*
G37*
%LPD*%
%LPC*%
G36*
X175708Y209661D02*
X175708Y209661D01*
X175844Y210517D01*
X176338Y212038D01*
X177064Y213463D01*
X178004Y214757D01*
X179135Y215888D01*
X180429Y216828D01*
X181854Y217554D01*
X183375Y218048D01*
X184231Y218184D01*
X184231Y209661D01*
X175708Y209661D01*
G37*
%LPD*%
%LPC*%
G36*
X187278Y206615D02*
X187278Y206615D01*
X195801Y206615D01*
X195665Y205759D01*
X195171Y204237D01*
X194445Y202812D01*
X193505Y201518D01*
X192374Y200388D01*
X191080Y199448D01*
X189655Y198721D01*
X188134Y198227D01*
X187278Y198092D01*
X187278Y206615D01*
G37*
%LPD*%
%LPC*%
G36*
X141935Y137863D02*
X141935Y137863D01*
X142070Y138719D01*
X142565Y140240D01*
X143291Y141665D01*
X144231Y142959D01*
X145362Y144090D01*
X146656Y145030D01*
X148080Y145756D01*
X149602Y146250D01*
X150458Y146386D01*
X150458Y137863D01*
X141935Y137863D01*
G37*
%LPD*%
%LPC*%
G36*
X153504Y134816D02*
X153504Y134816D01*
X162027Y134816D01*
X161891Y133960D01*
X161397Y132439D01*
X160671Y131014D01*
X159731Y129720D01*
X158600Y128589D01*
X157306Y127649D01*
X155881Y126923D01*
X154360Y126429D01*
X153504Y126293D01*
X153504Y134816D01*
G37*
%LPD*%
%LPC*%
G36*
X227568Y123728D02*
X227568Y123728D01*
X227704Y124584D01*
X228198Y126105D01*
X228924Y127530D01*
X229864Y128824D01*
X230995Y129955D01*
X232289Y130895D01*
X233714Y131621D01*
X235235Y132115D01*
X236091Y132251D01*
X236091Y123728D01*
X227568Y123728D01*
G37*
%LPD*%
%LPC*%
G36*
X239138Y120681D02*
X239138Y120681D01*
X247661Y120681D01*
X247525Y119825D01*
X247031Y118304D01*
X246305Y116879D01*
X245365Y115585D01*
X244234Y114454D01*
X242940Y113514D01*
X241515Y112788D01*
X239994Y112294D01*
X239138Y112158D01*
X239138Y120681D01*
G37*
%LPD*%
%LPC*%
G36*
X183375Y198227D02*
X183375Y198227D01*
X181854Y198721D01*
X180429Y199448D01*
X179135Y200388D01*
X178004Y201518D01*
X177064Y202812D01*
X176338Y204237D01*
X175844Y205759D01*
X175708Y206615D01*
X184231Y206615D01*
X184231Y198092D01*
X183375Y198227D01*
G37*
%LPD*%
%LPC*%
G36*
X149602Y126429D02*
X149602Y126429D01*
X148080Y126923D01*
X146656Y127649D01*
X145362Y128589D01*
X144231Y129720D01*
X143291Y131014D01*
X142565Y132439D01*
X142070Y133960D01*
X141935Y134816D01*
X150458Y134816D01*
X150458Y126293D01*
X149602Y126429D01*
G37*
%LPD*%
%LPC*%
G36*
X235235Y112294D02*
X235235Y112294D01*
X233714Y112788D01*
X232289Y113514D01*
X230995Y114454D01*
X229864Y115585D01*
X228924Y116879D01*
X228198Y118304D01*
X227704Y119825D01*
X227568Y120681D01*
X236091Y120681D01*
X236091Y112158D01*
X235235Y112294D01*
G37*
%LPD*%
%LPC*%
G36*
X185754Y208137D02*
X185754Y208137D01*
X185754Y208139D01*
X185755Y208139D01*
X185755Y208137D01*
X185754Y208137D01*
G37*
%LPD*%
%LPC*%
G36*
X151980Y136339D02*
X151980Y136339D01*
X151980Y136340D01*
X151982Y136340D01*
X151982Y136339D01*
X151980Y136339D01*
G37*
%LPD*%
%LPC*%
G36*
X237614Y122204D02*
X237614Y122204D01*
X237614Y122205D01*
X237615Y122205D01*
X237615Y122204D01*
X237614Y122204D01*
G37*
%LPD*%
D10*
X237614Y122204D03*
D11*
X180514Y120604D03*
X193014Y120604D03*
X206014Y120604D03*
X218514Y120604D03*
X180514Y174604D03*
X206014Y174604D03*
X218514Y174604D03*
D12*
X193014Y171804D03*
D10*
X152580Y187726D03*
X151900Y161872D03*
X237614Y173004D03*
X151676Y110426D03*
X211289Y208095D03*
X185755Y208138D03*
X151981Y136340D03*
D13*
X180514Y120604D02*
X193014Y120604D01*
X180514Y120604D02*
X161854Y120604D01*
X151676Y110426D01*
D14*
X206014Y120604D02*
X206014Y130899D01*
X178356Y135415D02*
X151900Y161872D01*
X201498Y135415D02*
X206014Y130899D01*
X201498Y135415D02*
X178356Y135415D01*
X218514Y174604D02*
X218484Y174635D01*
X218484Y184713D01*
X215057Y188140D01*
X152995Y188140D02*
X152580Y187726D01*
X152995Y188140D02*
X215057Y188140D01*
X237614Y194691D02*
X237614Y173004D01*
X237614Y194691D02*
X224211Y208095D01*
X211289Y208095D01*
M02*
