M48
;GenerationSoftware,Autodesk,EAGLE,9.5.1*%
;CreationDate,2021-05-05T22:19:18Z*%
FMAT,2
ICI,OFF
METRIC,TZ,000.000
T7C0.350
T6C0.750
T5C0.800
T4C0.813
T3C0.900
T2C1.016
T1C3.000
%
G90
M71
T1
X15000Y40000
X15000Y16000
X88000Y16000
X88000Y40000
T2
X45530Y35880
X37910Y16060
X40450Y16060
X42990Y16060
X58230Y35880
X68390Y16060
X55690Y35880
X53150Y35880
X50610Y35880
X48070Y35880
X45530Y16060
X73770Y12250
X71230Y12250
X89500Y20460
X89500Y23000
X89500Y25540
X35370Y16060
X73470Y16060
X70930Y16060
X60770Y35880
X65850Y16060
X63310Y16060
X60770Y16060
X58230Y16060
X55690Y16060
X53150Y16060
X50610Y16060
X48070Y16060
X73470Y35880
X70930Y35880
X68390Y35880
X65850Y35880
X63310Y35880
T3
X16000Y27440
X13750Y20940
X89500Y35560
X89500Y27940
X47690Y22750
X47690Y19250
X55310Y19250
X55310Y22750
X16000Y35060
X13750Y28560
T4
X79882Y30030
X77342Y30030
X74802Y30030
X72262Y30030
X69722Y30030
X69722Y22410
X72262Y22410
X84962Y22410
X84962Y30030
X74802Y22410
X77342Y22410
X82422Y22410
X79882Y22410
X82422Y30030
T5
X20540Y36165
X20540Y38165
T6
X21250Y30000
X21250Y13250
X21250Y15250
X21250Y17250
X21250Y19250
X21250Y28000
X21250Y26000
T7
X40850Y32650
X17000Y22750
X19250Y22250
X50255Y31319
X68750Y20500
X59500Y19000
X59250Y24500
X33250Y25750
X26750Y21250
X33250Y28500
X40750Y28500
X39250Y30750
X27000Y17000
X30000Y25750
X78000Y35000
X35250Y30750
X44750Y31000
X43250Y23500
X41533Y33817
X40000Y12250
X46750Y33250
X44250Y32250
X35000Y18750
X51750Y12250
X63500Y12250
X64750Y26000
X84250Y19000
X59750Y22750
X58250Y34000
X60500Y27000
X51500Y25250
X43250Y28750
M30