0
SECTION
2
HEADER
9
$INSUNITS
70
4
9
$ACADVER
1
AC1014
9
$HANDSEED
5
FFFF
0
ENDSEC
0
SECTION
2
TABLES
0
TABLE
2
VPORT
5
8
100
AcDbSymbolTable
0
ENDTAB
0
TABLE
2
LTYPE
5
5
100
AcDbSymbolTable
0
LTYPE
5
14
100
AcDbSymbolTableRecord
100
AcDbLinetypeTableRecord
2
BYBLOCK
70
0
0
LTYPE
5
15
100
AcDbSymbolTableRecord
100
AcDbLinetypeTableRecord
2
BYLAYER
70
0
0
ENDTAB
0
TABLE
2
LAYER
5
2
100
AcDbSymbolTable
70
2
0
LAYER
5
50
100
AcDbSymbolTableRecord
100
AcDbLayerTableRecord
2
0
70
0
6
CONTINUOUS
0
ENDTAB
0
TABLE
2
STYLE
5
3
100
AcDbSymbolTable
70
1
0
STYLE
5
11
100
AcDbSymbolTableRecord
100
AcDbTextStyleTableRecord
2
STANDARD
70
0
0
ENDTAB
0
TABLE
2
VIEW
5
6
100
AcDbSymbolTable
70
0
0
ENDTAB
0
TABLE
2
UCS
5
7
100
AcDbSymbolTable
70
0
0
ENDTAB
0
TABLE
2
APPID
5
9
100
AcDbSymbolTable
70
2
0
APPID
5
12
100
AcDbSymbolTableRecord
100
AcDbRegAppTableRecord
2
ACAD
70
0
0
ENDTAB
0
TABLE
2
DIMSTYLE
5
A
100
AcDbSymbolTable
70
1
0
ENDTAB
0
TABLE
2
BLOCK_RECORD
5
1
100
AcDbSymbolTable
70
1
0
BLOCK_RECORD
5
1F
100
AcDbSymbolTableRecord
100
AcDbBlockTableRecord
2
*MODEL_SPACE
0
BLOCK_RECORD
5
1B
100
AcDbSymbolTableRecord
100
AcDbBlockTableRecord
2
*PAPER_SPACE
0
ENDTAB
0
ENDSEC
0
SECTION
2
BLOCKS
0
BLOCK
5
20
100
AcDbEntity
100
AcDbBlockBegin
2
*MODEL_SPACE
0
ENDBLK
5
21
100
AcDbEntity
100
AcDbBlockEnd
0
BLOCK
5
1C
100
AcDbEntity
100
AcDbBlockBegin
2
*PAPER_SPACE
0
ENDBLK
5
1D
100
AcDbEntity
100
AcDbBlockEnd
0
ENDSEC
0
SECTION
2
ENTITIES
0
LWPOLYLINE
5
100
100
AcDbEntity
8
0
100
AcDbPolyline
90
4
70
1
43
0.0
10
-24.000000000000774
20
5.749999999999682
10
-24.000000000000774
20
2.749999999999682
10
-39.000000000000774
20
2.749999999999682
10
-39.000000000000774
20
5.749999999999682
0
LWPOLYLINE
5
101
100
AcDbEntity
8
0
100
AcDbPolyline
90
4
70
1
43
0.0
10
35.999999999999226
20
5.749999999999682
10
45.999999999999226
20
5.749999999999682
10
45.999999999999226
20
2.7499999999996829
10
35.999999999999226
20
2.7499999999996829
0
LWPOLYLINE
5
102
100
AcDbEntity
8
0
100
AcDbPolyline
90
31
70
1
43
0.0
10
-39.121320343560406
20
18.871320343559329
42
0.19891236737965787
10
-41.242640687120058
20
19.74999999999968
10
-49.000000000000774
20
19.749999999999684
10
-49.000000000000774
20
9.9999999999999964
10
-53.750000000000774
20
9.9999999999999964
10
-53.750000000000774
20
-10.000000000000004
10
-49.000000000000774
20
-10.000000000000004
10
-49.000000000000774
20
-19.75000000000032
10
-46.242640687120073
20
-19.75000000000032
42
0.19891236737966081
10
-44.121320343560427
20
-18.871320343559962
10
-33.878679656441129
20
-8.6286796564406725
42
0.19891236737965903
10
-33.000000000000782
20
-6.5073593128810252
10
-33.000000000000767
20
-4.2500000000003082
42
-0.41421356237309503
10
-30.000000000000774
20
-1.2500000000003075
10
37.999999999999233
20
-1.2500000000003142
42
-0.41421356237309503
10
40.999999999999233
20
-4.2500000000003126
10
40.999999999999233
20
-16.750000000000309
42
0.41421356237309892
10
43.99999999999924
20
-19.750000000000302
10
48.999999999999233
20
-19.750000000000309
10
48.999999999999233
20
-10.000000000000316
10
52.149999999999238
20
-10.000000000000316
10
52.149999999999238
20
9.9999999999996838
10
48.999999999999233
20
9.9999999999996838
10
48.999999999999233
20
19.749999999999687
10
43.999999999999233
20
19.749999999999687
42
0.41421356237309725
10
40.999999999999233
20
16.749999999999687
10
40.999999999999233
20
11.74999999999968
42
-0.41421356237309503
10
37.999999999999233
20
8.7499999999996803
10
-30.000000000000767
20
8.7499999999996803
42
-0.40216677148356367
10
-32.997441236598817
20
11.626120893038081
42
0.18819922900701808
10
-33.873562129637214
20
13.623562129636127
0
ENDSEC
0
SECTION
2
OBJECTS
0
DICTIONARY
5
C
100
AcDbDictionary
3
ACAD_GROUP
350
D
3
ACAD_MLINESTYLE
350
17
0
DICTIONARY
5
D
100
AcDbDictionary
0
DICTIONARY
5
1A
330
C
100
AcDbDictionary
0
DICTIONARY
5
17
100
AcDbDictionary
0
ENDSEC
0
EOF
