<svg version="1.1" xmlns="http://www.w3.org/2000/svg" xmlns:xlink="http://www.w3.org/1999/xlink" stroke-linecap="round" stroke-linejoin="round" stroke-width="0" fill-rule="evenodd" clip-rule="evenodd" id="dsfSTSIumEgZuLcXuCHB_bottom" viewBox="-5842 -5842 11684 11684" width="11.684mm" height="11.684mm" class="w-100 h-100"><defs><style>.dsfSTSIumEgZuLcXuCHB_fr4 {color: #666666;}
.dsfSTSIumEgZuLcXuCHB_cu {color: #cccccc;}
.dsfSTSIumEgZuLcXuCHB_cf {color: #cc9933;}
.dsfSTSIumEgZuLcXuCHB_sm {color: #004200; opacity: 0.75;}
.dsfSTSIumEgZuLcXuCHB_ss {color: #ffffff;}
.dsfSTSIumEgZuLcXuCHB_sp {color: #999999;}
.dsfSTSIumEgZuLcXuCHB_out {color: #000000;}</style><mask id="PpSdqSXt-aP587nn07b4_clear-1" fill="#000" stroke="#000"><g><rect x="-4643" y="-4573" width="9392.3" height="9314.7" fill="#fff"/><path d="M 1102.3 3152.3 1102.3 3152.3 1102.3 4004.1 1633.4 4004.1 1698.1 3986.8 1756 3953.3 1803.3 3906 1836.8 3848.1 1854.1 3783.4 1854.1 3152.3 1102.3 3152.3"/></g></mask><mask id="PpSdqSXt-aP587nn07b4_clear-2" fill="#000" stroke="#000"><g><rect x="-4643" y="-4573" width="9392.3" height="9314.7" fill="#fff"/><path d="M 1102.3 152.3 1102.3 152.3 1102.3 1004.1 1633.4 1004.1 1698.1 986.8 1756 953.3 1803.3 906 1836.8 848.1 1854.1 783.4 1854.1 152.3 1102.3 152.3"/></g></mask><mask id="PpSdqSXt-aP587nn07b4_clear-3" fill="#000" stroke="#000"><g><rect x="-4643" y="-4573" width="9392.3" height="9314.7" fill="#fff"/><path d="M 1102.3 -1004.1 1102.3 -1004.1 1102.3 -152.3 1854.1 -152.3 1854.1 -783.4 1836.8 -848.1 1803.3 -906 1756 -953.3 1698.1 -986.8 1633.4 -1004.1 1102.3 -1004.1"/></g></mask><mask id="PpSdqSXt-aP587nn07b4_clear-4" fill="#000" stroke="#000"><g><rect x="-4643" y="-4573" width="9392.3" height="9314.7" fill="#fff"/><path d="M 1102.3 1995.9 1102.3 1995.9 1102.3 2847.7 1854.1 2847.7 1854.1 2216.6 1836.8 2151.9 1803.3 2094 1756 2046.7 1698.1 2013.2 1633.4 1995.9 1102.3 1995.9"/></g></mask><mask id="PpSdqSXt-aP587nn07b4_clear-5" fill="#000" stroke="#000"><g><rect x="-4643" y="-4573" width="9392.3" height="9314.7" fill="#fff"/><path d="M 1102.3 -2847.7 1102.3 -2847.7 1102.3 -1995.9 1633.4 -1995.9 1698.1 -2013.2 1756 -2046.7 1803.3 -2094 1836.8 -2151.9 1854.1 -2216.6 1854.1 -2847.7 1102.3 -2847.7"/></g></mask><mask id="PpSdqSXt-aP587nn07b4_clear-6" fill="#000" stroke="#000"><g><rect x="-4643" y="-4573" width="9392.3" height="9314.7" fill="#fff"/><path d="M -3657.7 -2387.7 -3657.7 -2387.7 -3657.7 -1535.4 -3572.1 -1548.9 -3420 -1598.4 -3277.5 -1671 -3148.1 -1765 -3035 -1878.1 -2941 -2007.5 -2868.4 -2150 -2818.9 -2302.1 -2805.4 -2387.7 -3657.7 -2387.7"/></g></mask><rect x="-650" y="-750" width="1300" height="1500" id="PpSdqSXt-aP587nn07b4_pad-10"/><circle cx="0" cy="0" r="762" id="PpSdqSXt-aP587nn07b4_pad-11"/><rect x="-751.6" y="-851.6" width="1503.2" height="1703.2" id="oz47Jl3m93Ipiue5LwFo_pad-10"/><circle cx="0" cy="0" r="863.6" id="oz47Jl3m93Ipiue5LwFo_pad-11"/><rect x="-650" y="-750" width="1300" height="1500" id="zAwdXxD4alJpnCGZqpzv_pad-10"/><circle cx="0" cy="0" r="508" id="rLIawDqT2lIAz23eap5Q_pad-2"/><g id="dsfSTSIumEgZuLcXuCHB_bottom_copper"><g mask="url(#PpSdqSXt-aP587nn07b4_clear-6)"><g mask="url(#PpSdqSXt-aP587nn07b4_clear-5)"><g mask="url(#PpSdqSXt-aP587nn07b4_clear-4)"><g mask="url(#PpSdqSXt-aP587nn07b4_clear-3)"><g mask="url(#PpSdqSXt-aP587nn07b4_clear-2)"><g mask="url(#PpSdqSXt-aP587nn07b4_clear-1)"><path d="M -1224.5 -4572.7 -1224.5 -4572.7 -1213.6 -4572.9 -1212.2 -4572.4 -1210.8 -4572.4 -1200.6 -4568.7 -1190.2 -4565.3 -1189.1 -4564.4 -1187.7 -4563.9 -1179.2 -4557.2 -1170.5 -4550.7 -1169.6 -4549.5 -1168.5 -4548.6 -1162.6 -4539.4 -1156.4 -4530.5 -1156 -4529.1 -1155.2 -4527.9 -1152.5 -4517.4 -1149.5 -4506.9 -1149.5 -4505.4 -1149.2 -4504 -1150 -4493.2 -1150.4 -4482.3 -1151 -4481 -1151.1 -4479.5 -1155.3 -4469.5 -1159.2 -4459.4 -1160.1 -4458.2 -1160.7 -4456.9 -1171.2 -4443.8 -1197.9 -4417 -1416.2 -4198.8 -1416.2 -4131 -1416.5 -4129 -1416.3 -4127.1 -1418.5 -4116.9 -1420.1 -4106.7 -1421.1 -4105 -1421.5 -4103 -1426.8 -4094.1 -1431.6 -4085 -1433.1 -4083.6 -1434.1 -4081.9 -1442 -4075.2 -1449.5 -4068 -1451.3 -4067.2 -1452.8 -4065.9 -1462.4 -4062 -1471.8 -4057.7 -1473.8 -4057.5 -1475.6 -4056.7 -1492.3 -4054.9 -1726.3 -4054.9 -1904.9 -3876.3 -1904.9 -2123.7 -1726.3 -1945.1 -173.7 -1945.1 -17.9 -2100.9 -16.3 -2102.1 -15 -2103.7 -6.3 -2109.3 2.1 -2115.3 4 -2115.9 5.7 -2117 15.7 -2119.5 25.6 -2122.5 27.6 -2122.5 29.5 -2123 39.8 -2122.2 50.2 -2121.9 52 -2121.2 54 -2121 63.5 -2117 73.3 -2113.4 74.8 -2112.2 76.7 -2111.4 89.8 -2100.9 144 -2046.7 201.9 -2013.2 266.6 -1995.9 797.7 -1995.9 797.7 -2923.8 798 -2925.8 797.8 -2927.7 800 -2937.9 801.7 -2948.1 802.6 -2949.8 803 -2951.8 808.3 -2960.7 813.2 -2969.8 814.6 -2971.2 815.6 -2972.9 823.5 -2979.6 831 -2986.7 832.8 -2987.6 834.3 -2988.9 843.9 -2992.8 853.3 -2997.1 855.3 -2997.3 857.1 -2998.1 873.8 -2999.9 950.1 -2999.9 950.1 -3076.2 950.4 -3078.2 950.2 -3080.1 952.4 -3090.3 954.1 -3100.5 955 -3102.2 955.4 -3104.2 960.7 -3113.1 965.6 -3122.2 967 -3123.6 968 -3125.3 975.9 -3132 983.4 -3139.1 985.2 -3140 986.7 -3141.3 996.3 -3145.2 1005.7 -3149.5 1007.7 -3149.7 1009.5 -3150.5 1026.2 -3152.3 1854.1 -3152.3 1854.1 -3478.8 1855.2 -3485.8 1855.4 -3493 1857.2 -3497.9 1858 -3503 1861.4 -3509.4 1863.9 -3516.1 1867.1 -3520.2 1869.6 -3524.8 1874.7 -3529.7 1879.2 -3535.3 1883.6 -3538.1 1887.4 -3541.7 1893.9 -3544.7 1899.9 -3548.6 1905 -3549.9 1909.7 -3552.1 1916.8 -3552.9 1923.8 -3554.6 1929 -3554.2 1934.1 -3554.8 1941.2 -3553.3 1948.3 -3552.7 1953.1 -3550.7 1958.2 -3549.6 1964.3 -3545.9 1970.9 -3543.1 1976.5 -3538.6 1979.3 -3537 1980.8 -3535.2 1984 -3532.6 2720.8 -2795.8 2726.1 -2788.4 2732.1 -2781.5 2733.3 -2778.4 2735.2 -2775.8 2737.9 -2767.1 2741.3 -2758.6 2741.7 -2754.5 2742.4 -2752.3 2742.3 -2749.1 2743.1 -2742 2743.1 -2327.8 2905.5 -1935.7 3205.7 -1635.5 3597.8 -1473.1 4022.2 -1473.1 4350.7 -1609.2 4354.2 -1610 4357.5 -1611.6 4366.2 -1612.8 4374.6 -1614.8 4378.3 -1614.5 4381.9 -1614.9 4390.4 -1613.3 4399.1 -1612.5 4402.5 -1611 4406.1 -1610.3 4413.6 -1606 4421.6 -1602.5 4424.3 -1600 4427.5 -1598.2 4433.3 -1591.7 4439.7 -1585.8 4441.5 -1582.6 4443.9 -1579.9 4451.4 -1564.9 4619.2 -1103.8 4619.2 -1103.4 4619.5 -1103 4620.2 -1100 4620.9 -1098.3 4621.3 -1095 4623.2 -1086.6 4749.2 -8.8 4749.2 -8.4 4749.3 -7.9 4749.2 8.8 4623.2 1086.6 4623.1 1087.1 4623.1 1087.5 4619.2 1103.8 4451.4 1564.9 4449.6 1568.1 4448.5 1571.6 4443.6 1578.7 4439.3 1586.3 4436.6 1588.8 4434.5 1591.8 4427.5 1597 4421.1 1602.8 4417.7 1604.3 4414.8 1606.5 4406.5 1609.2 4398.5 1612.6 4394.9 1613 4391.4 1614.1 4382.7 1614 4374 1614.8 4370.5 1613.9 4366.8 1613.9 4350.7 1609.2 4022.2 1473.1 3597.8 1473.1 3205.7 1635.5 2905.5 1935.7 2743.1 2327.8 2743.1 2752.2 2905.5 3144.3 3159.3 3398.1 3161.2 3400.6 3163.5 3402.7 3168.3 3410.6 3173.7 3418.1 3174.6 3421.1 3176.2 3423.7 3178.2 3432.8 3180.9 3441.6 3180.9 3444.7 3181.5 3447.7 3180.5 3457 3180.3 3466.2 3179.2 3469.1 3178.9 3472.2 3175 3480.6 3171.9 3489.3 3169.9 3491.7 3168.6 3494.5 3157.8 3507.3 2843.1 3804.2 2842.7 3804.4 2842.5 3804.8 2828.9 3814.7 1889.2 4357.3 1888.8 4357.5 1888.4 4357.8 1873 4364.3 833.4 4675.5 832.9 4675.6 832.5 4675.8 816 4678.6 -267.3 4741.7 -267.8 4741.6 -268.2 4741.7 -285 4740.7 -1353.6 4552.2 -1354.1 4552.1 -1354.5 4552.1 -1370.6 4547.2 -2366.9 4117.4 -2367.3 4117.1 -2367.8 4117 -2382.3 4108.5 -3164.3 3526.3 -3169.5 3520.9 -3175.4 3516.2 -3178 3512.1 -3181.4 3508.6 -3184.6 3501.9 -3188.7 3495.5 -3189.9 3490.8 -3191.9 3486.4 -3192.8 3479 -3194.7 3471.7 -3194.3 3466.8 -3194.9 3462 -3193.3 3454.6 -3192.8 3447.2 -3190.9 3442.7 -3189.9 3437.9 -3186.1 3431.4 -3183.1 3424.5 -3179 3419.4 -3177.4 3416.7 -3175.5 3415 -3172.7 3411.4 -3164.5 3403.3 -3162.1 3401.6 -3160.3 3399.4 -3154.4 3395.8 -3150.1 3392.1 -3147.4 3391 -3144.5 3389 -3141.8 3388.1 -3139.3 3386.6 -3132.7 3385.1 -3127.3 3382.9 -3123.6 3382.5 -3121 3381.7 -3118.1 3381.8 -3115.3 3381.1 -3113.2 3381.4 -3110.6 3381.1 -1981 3381.1 -1979 3381.4 -1977.1 3381.2 -1966.9 3383.4 -1956.7 3385 -1955 3386 -1953 3386.4 -1944.1 3391.7 -1935 3396.6 -1933.6 3398 -1931.9 3399 -1925.2 3406.9 -1918 3414.4 -1917.2 3416.2 -1915.9 3417.7 -1912 3427.3 -1907.7 3436.7 -1907.5 3438.7 -1906.7 3440.5 -1904.9 3457.2 -1904.9 3876.3 -1726.3 4054.9 -173.7 4054.9 -17.9 3899.1 -16.3 3897.9 -15 3896.3 -6.3 3890.7 2.1 3884.7 4 3884.1 5.6 3883 15.7 3880.5 25.6 3877.5 27.6 3877.5 29.5 3877 39.8 3877.8 50.2 3878.1 52 3878.8 54 3879 63.5 3883 73.3 3886.6 74.8 3887.8 76.7 3888.6 89.7 3899.1 144 3953.3 201.9 3986.8 266.6 4004.1 797.7 4004.1 797.7 3076.2 798 3074.2 797.8 3072.3 800 3062.1 801.7 3051.9 802.6 3050.2 803 3048.2 808.3 3039.3 813.2 3030.2 814.6 3028.8 815.6 3027.1 823.5 3020.4 831 3013.3 832.8 3012.4 834.3 3011.1 843.9 3007.2 853.3 3002.9 855.3 3002.7 857.1 3001.9 873.8 3000.1 950.1 3000.1 950.1 2999.9 873.8 2999.9 871.8 2999.6 869.9 2999.8 859.7 2997.6 849.5 2995.9 847.8 2995 845.8 2994.6 836.9 2989.3 827.8 2984.4 826.4 2983 824.7 2982 818 2974.1 810.9 2966.6 810 2964.8 808.7 2963.3 804.8 2953.7 800.5 2944.3 800.3 2942.3 799.5 2940.5 797.7 2923.8 797.7 1995.9 266.6 1995.9 201.9 2013.2 144 2046.7 89.7 2100.9 88.1 2102.1 86.9 2103.7 78.2 2109.3 69.8 2115.3 67.9 2115.9 66.2 2117 56.2 2119.5 46.3 2122.5 44.3 2122.5 42.3 2123 32 2122.2 21.7 2121.9 19.8 2121.2 17.8 2121 8.3 2117 -1.4 2113.4 -3 2112.2 -4.8 2111.4 -17.9 2100.9 -173.7 1945.1 -1726.3 1945.1 -1904.9 2123.7 -1904.9 2542.8 -1905.2 2544.8 -1905 2546.7 -1907.2 2556.9 -1908.8 2567.1 -1909.8 2568.8 -1910.2 2570.8 -1915.5 2579.7 -1920.4 2588.8 -1921.8 2590.2 -1922.8 2591.9 -1930.7 2598.6 -1938.2 2605.8 -1940 2606.6 -1941.5 2607.9 -1951.1 2611.8 -1960.5 2616.1 -1962.5 2616.3 -1964.3 2617.1 -1981 2618.9 -2667 2618.9 -2669 2618.6 -2670.9 2618.8 -2681.1 2616.6 -2691.3 2615 -2693 2614 -2695 2613.6 -2703.9 2608.3 -2713 2603.4 -2714.4 2602 -2716.1 2601 -2722.8 2593.1 -2730 2585.6 -2730.8 2583.8 -2732.1 2582.3 -2736 2572.7 -2740.3 2563.3 -2740.5 2561.3 -2741.3 2559.5 -2743.1 2542.8 -2743.1 2327.8 -2905.5 1935.7 -3205.7 1635.5 -3597.8 1473.1 -4022.2 1473.1 -4374.4 1619 -4382.3 1620.9 -4389.9 1623.6 -4394.2 1623.6 -4398.4 1624.6 -4406.4 1623.9 -4414.4 1624 -4418.6 1622.7 -4422.9 1622.3 -4430.2 1619 -4437.9 1616.6 -4441.4 1614.1 -4445.3 1612.3 -4451.3 1606.9 -4457.8 1602.1 -4460.3 1598.6 -4463.4 1595.7 -4467.3 1588.6 -4472 1582 -4473.9 1576.7 -4475.3 1574.1 -4475.8 1571.3 -4477.6 1566.2 -4640.9 877.1 -4641.2 873.5 -4642.3 869.9 -4642.1 861.2 -4642.7 852.6 -4641.7 849 -4641.7 845.3 -4638.7 837.2 -4636.5 828.8 -4634.5 825.7 -4633.2 822.2 -4627.8 815.5 -4623 808.2 -4620.1 805.9 -4617.8 803 -4610.6 798.3 -4603.7 793 -4600.2 791.7 -4597.1 789.7 -4588.7 787.6 -4580.6 784.7 -4576.9 784.6 -4573.3 783.7 -4564.7 784.4 -4556 784.2 -4552.4 785.3 -4548.8 785.6 -4540.8 789 -4532.5 791.6 -4529.5 793.8 -4526.1 795.3 -4513 805.7 -4414.3 904.5 -4022.2 1066.9 -3597.8 1066.9 -3205.7 904.5 -2905.5 604.3 -2832.5 428.1 -2826.3 418.1 -2820.4 408.1 -2819.9 407.7 -2819.6 407.2 -2810.5 399.7 -2801.7 392.1 -2801.1 391.9 -2800.6 391.5 -2789.8 387.3 -2778.9 382.9 -2778.1 382.8 -2777.7 382.7 -2775.8 382.6 -2762.2 381.1 -1981 381.1 -1979 381.4 -1977.1 381.2 -1966.9 383.4 -1956.7 385 -1955 386 -1953 386.4 -1944.1 391.7 -1935 396.6 -1933.6 398 -1931.9 399 -1925.2 406.9 -1918 414.4 -1917.2 416.2 -1915.9 417.7 -1912 427.3 -1907.7 436.7 -1907.5 438.7 -1906.7 440.5 -1904.9 457.2 -1904.9 876.3 -1726.3 1054.9 -173.7 1054.9 -17.9 899.1 -16.3 897.9 -15 896.3 -6.3 890.7 2.1 884.7 4 884.1 5.6 883 15.7 880.5 25.6 877.5 27.6 877.5 29.5 877 39.8 877.8 50.2 878.1 52 878.8 54 879 63.5 883 73.3 886.6 74.8 887.8 76.7 888.6 89.7 899.1 144 953.3 201.9 986.8 266.6 1004.1 797.7 1004.1 797.7 76.2 798 74.2 797.8 72.3 800 62.1 801.7 51.9 802.6 50.2 803 48.2 808.3 39.3 813.2 30.2 814.6 28.8 815.6 27.1 823.5 20.4 831 13.3 832.8 12.4 834.3 11.1 843.9 7.2 853.3 2.9 855.3 2.7 857.1 1.9 873.8 0.1 950.1 0.1 950.1 -0.1 873.8 -0.1 871.8 -0.4 869.9 -0.2 859.7 -2.4 849.5 -4.1 847.8 -5 845.8 -5.4 836.9 -10.7 827.8 -15.6 826.4 -17 824.7 -18 818 -25.9 810.9 -33.4 810 -35.2 808.7 -36.7 804.8 -46.3 800.5 -55.7 800.3 -57.7 799.5 -59.5 797.7 -76.2 797.7 -1004.1 266.6 -1004.1 201.9 -986.8 144 -953.3 89.7 -899.1 88.1 -897.9 86.9 -896.3 78.2 -890.7 69.8 -884.7 67.9 -884.1 66.2 -883 56.2 -880.5 46.3 -877.5 44.3 -877.5 42.3 -877 32 -877.8 21.7 -878.1 19.8 -878.8 17.8 -879 8.3 -883 -1.4 -886.6 -3 -887.8 -4.8 -888.6 -17.9 -899.1 -173.7 -1054.9 -1726.3 -1054.9 -1904.9 -876.3 -1904.9 -457.2 -1905.2 -455.2 -1905 -453.3 -1907.2 -443.1 -1908.8 -432.9 -1909.8 -431.2 -1910.2 -429.2 -1915.5 -420.3 -1920.4 -411.2 -1921.8 -409.8 -1922.8 -408.1 -1930.7 -401.4 -1938.2 -394.2 -1940 -393.4 -1941.5 -392.1 -1951.1 -388.2 -1960.5 -383.9 -1962.5 -383.7 -1964.3 -382.9 -1981 -381.1 -2762.2 -381.1 -2773.7 -383 -2785.3 -384.7 -2785.9 -384.9 -2786.5 -385 -2796.7 -390.5 -2807.2 -395.8 -2807.7 -396.3 -2808.2 -396.6 -2816.2 -405 -2824.4 -413.4 -2824.8 -414 -2825.2 -414.4 -2825.9 -416.1 -2832.5 -428.1 -2905.5 -604.3 -3205.7 -904.5 -3597.8 -1066.9 -4022.2 -1066.9 -4414.3 -904.5 -4513 -805.7 -4516 -803.6 -4518.5 -800.8 -4526 -796.4 -4533 -791.4 -4536.5 -790.3 -4539.7 -788.4 -4548.2 -786.7 -4556.5 -784.2 -4560.2 -784.3 -4563.8 -783.5 -4572.4 -784.6 -4581.1 -784.8 -4584.6 -786.1 -4588.2 -786.5 -4596.1 -790.3 -4604.2 -793.2 -4607.1 -795.5 -4610.4 -797.1 -4616.6 -803.2 -4623.4 -808.6 -4625.4 -811.7 -4628.1 -814.3 -4632 -822 -4636.7 -829.3 -4637.6 -832.9 -4639.3 -836.2 -4640.6 -844.7 -4642.7 -853.1 -4642.4 -856.8 -4643 -860.5 -4640.9 -877.1 -4465.8 -1616 -4465.6 -1616.4 -4465.6 -1616.9 -4459.8 -1632.6 -4454.6 -1643 -4449.8 -1649.6 -4445.7 -1656.7 -4442.6 -1659.5 -4440.1 -1662.9 -4433.4 -1667.7 -4427.3 -1673.1 -4423.5 -1674.8 -4420.1 -1677.2 -4412.2 -1679.6 -4404.7 -1682.8 -4400.6 -1683.1 -4396.5 -1684.3 -4388.3 -1684.1 -4380.2 -1684.7 -4376.1 -1683.7 -4372 -1683.6 -4364.3 -1680.7 -4356.3 -1678.7 -4351.6 -1676 -4348.9 -1675 -4346.6 -1673.2 -4344.5 -1672 -4200 -1598.4 -4047.9 -1548.9 -3962.3 -1535.4 -3962.3 -2463.8 -3962 -2465.8 -3962.2 -2467.7 -3960 -2477.9 -3958.3 -2488.1 -3957.4 -2489.8 -3957 -2491.8 -3951.7 -2500.7 -3946.8 -2509.8 -3945.4 -2511.2 -3944.4 -2512.9 -3936.5 -2519.6 -3929 -2526.7 -3927.2 -2527.6 -3925.7 -2528.9 -3916.1 -2532.7 -3906.7 -2537.1 -3904.7 -2537.3 -3902.9 -2538.1 -3886.2 -2539.9 -3809.9 -2539.9 -3809.9 -2616.2 -3809.6 -2618.2 -3809.8 -2620.1 -3807.6 -2630.3 -3805.9 -2640.5 -3805 -2642.2 -3804.6 -2644.2 -3799.3 -2653.1 -3794.4 -2662.2 -3793 -2663.6 -3792 -2665.3 -3784.1 -2672 -3776.6 -2679.1 -3774.8 -2680 -3773.3 -2681.3 -3763.7 -2685.2 -3754.3 -2689.5 -3752.3 -2689.7 -3750.5 -2690.5 -3733.8 -2692.3 -2805.4 -2692.3 -2818.9 -2777.9 -2868.4 -2930 -2941 -3072.5 -3035 -3201.9 -3148.1 -3315 -3216.2 -3364.5 -3217 -3365.3 -3218 -3365.9 -3225.6 -3374 -3233.5 -3382 -3234 -3383 -3234.8 -3383.9 -3239.4 -3394 -3244.3 -3404.1 -3244.5 -3405.2 -3244.9 -3406.3 -3246.1 -3417.4 -3247.5 -3428.5 -3247.3 -3429.6 -3247.4 -3430.7 -3245 -3441.6 -3242.8 -3452.6 -3242.2 -3453.6 -3242 -3454.7 -3236.2 -3464.2 -3230.6 -3474 -3229.8 -3474.7 -3229.2 -3475.7 -3216.9 -3487.2 -2382.3 -4108.5 -2381.9 -4108.7 -2381.5 -4109.1 -2367 -4117.4 -1370.6 -4547.2 -1370.1 -4547.3 -1369.7 -4547.5 -1353.6 -4552.2 -1238.2 -4572.6 -1236.8 -4572.6 -1235.4 -4573 -1224.5 -4572.7"/></g></g></g></g></g></g><use xlink:href="#PpSdqSXt-aP587nn07b4_pad-10" x="950" y="-3000"/><use xlink:href="#PpSdqSXt-aP587nn07b4_pad-10" x="-950" y="-3000"/><use xlink:href="#PpSdqSXt-aP587nn07b4_pad-11" x="3810" y="-2540"/><use xlink:href="#PpSdqSXt-aP587nn07b4_pad-10" x="-950" y="0"/><use xlink:href="#PpSdqSXt-aP587nn07b4_pad-10" x="950" y="0"/><use xlink:href="#PpSdqSXt-aP587nn07b4_pad-10" x="-950" y="3000"/><use xlink:href="#PpSdqSXt-aP587nn07b4_pad-10" x="950" y="3000"/><use xlink:href="#PpSdqSXt-aP587nn07b4_pad-11" x="-3810" y="2540"/><use xlink:href="#PpSdqSXt-aP587nn07b4_pad-11" x="-3810" y="0"/><use xlink:href="#PpSdqSXt-aP587nn07b4_pad-11" x="3810" y="2540"/><use xlink:href="#PpSdqSXt-aP587nn07b4_pad-11" x="-3810" y="-2540"/><path d="M -958.9 -4009.4 -718.4 -4249.9 M -958.9 -3008.9 -950 -3000 M -958.9 -3008.9 -958.9 -4009.4 M -718.4 -4249.9 1913.4 -4249.9 M 3623.3 -2540 3810 -2540 M 3623.3 -2540 1913.4 -4249.9" fill="none" stroke-width="304.8"/><path d="M -950 0 -3810 0 M -2921.2 3000 -950 3000 M -2921.2 3000 -3381.2 2540 -3810 2540" fill="none" stroke-width="152.4"/></g><g id="dsfSTSIumEgZuLcXuCHB_bottom_soldermask"><use xlink:href="#oz47Jl3m93Ipiue5LwFo_pad-10" x="950" y="-3000"/><use xlink:href="#oz47Jl3m93Ipiue5LwFo_pad-10" x="-950" y="-3000"/><use xlink:href="#oz47Jl3m93Ipiue5LwFo_pad-11" x="3810" y="-2540"/><use xlink:href="#oz47Jl3m93Ipiue5LwFo_pad-10" x="-950" y="0"/><use xlink:href="#oz47Jl3m93Ipiue5LwFo_pad-10" x="950" y="0"/><use xlink:href="#oz47Jl3m93Ipiue5LwFo_pad-10" x="-950" y="3000"/><use xlink:href="#oz47Jl3m93Ipiue5LwFo_pad-10" x="950" y="3000"/><use xlink:href="#oz47Jl3m93Ipiue5LwFo_pad-11" x="-3810" y="2540"/><use xlink:href="#oz47Jl3m93Ipiue5LwFo_pad-11" x="-3810" y="0"/><use xlink:href="#oz47Jl3m93Ipiue5LwFo_pad-11" x="3810" y="2540"/><use xlink:href="#oz47Jl3m93Ipiue5LwFo_pad-11" x="-3810" y="-2540"/></g><g id="dsfSTSIumEgZuLcXuCHB_bottom_silkscreen"><path d="M 155.2 -4574.6 299.4 -4574.6 307 -4574.4 314.5 -4573.8 322 -4572.8 329.4 -4571.4 336.7 -4569.7 344 -4567.5 351.1 -4565 358.1 -4562.1 364.9 -4558.9 371.6 -4555.3 378 -4551.3 384.2 -4547 390.2 -4542.4 396 -4537.5 401.4 -4532.3 406.6 -4526.9 411.5 -4521.1 416.1 -4515.1 420.4 -4508.9 424.4 -4502.4 428 -4495.8 431.2 -4489 434.1 -4482 436.6 -4474.9 438.8 -4467.6 440.5 -4460.3 441.9 -4452.9 442.9 -4445.4 443.5 -4437.9 443.7 -4430.3 443.7 -4069.7 443.5 -4062.1 442.9 -4054.6 441.9 -4047.1 440.5 -4039.7 438.8 -4032.4 436.6 -4025.1 434.1 -4018 431.2 -4011 428 -4004.2 424.4 -3997.6 420.4 -3991.1 416.1 -3984.9 411.5 -3978.9 406.6 -3973.1 401.4 -3967.7 396 -3962.5 390.2 -3957.6 384.2 -3953 378 -3948.7 371.6 -3944.7 364.9 -3941.1 358.1 -3937.9 351.1 -3935 344 -3932.5 336.8 -3930.3 329.4 -3928.6 322 -3927.2 314.5 -3926.2 307 -3925.6 299.4 -3925.4 155.2 -3925.4 M -83 -4069.7 -263.4 -3925.4 -263.4 -4574.6 M -443.7 -4574.6 -83 -4574.6 M 3573.9 -1283.9 3682.1 -1283.9 M 3573.9 -1283.9 3573.9 -1644.6 3790.3 -1644.6 3797.9 -1644.4 3805.4 -1643.8 3812.9 -1642.8 3820.3 -1641.4 3827.6 -1639.7 3834.9 -1637.5 3842 -1635 3849 -1632.1 3855.8 -1628.9 3862.5 -1625.3 3868.9 -1621.3 3875.1 -1617 3881.1 -1612.4 3886.9 -1607.5 3892.3 -1602.3 3897.5 -1596.9 3902.4 -1591.1 3907 -1585.1 3911.3 -1578.9 3915.3 -1572.4 3918.9 -1565.8 3922.1 -1559 3925 -1552 3927.5 -1544.9 3929.7 -1537.6 3931.4 -1530.3 3932.8 -1522.9 3933.8 -1515.4 3934.4 -1507.9 3934.6 -1500.3 3934.6 -1139.7 3934.4 -1132.1 3933.8 -1124.6 3932.8 -1117.1 3931.4 -1109.7 3929.7 -1102.4 3927.5 -1095.1 3925 -1088 3922.1 -1081 3918.9 -1074.2 3915.3 -1067.6 3911.3 -1061.1 3907 -1054.9 3902.4 -1048.9 3897.5 -1043.1 3892.3 -1037.7 3886.9 -1032.5 3881.1 -1027.6 3875.1 -1023 3868.9 -1018.7 3862.5 -1014.7 3855.8 -1011.1 3849 -1007.9 3842 -1005 3834.9 -1002.5 3827.7 -1000.3 3820.3 -998.6 3812.9 -997.2 3805.4 -996.2 3797.9 -995.6 3790.3 -995.4 3573.9 -995.4 M 3262.6 -995.4 3262.6 -1644.6 M 2901.9 -1644.6 3262.6 -995.4 M 2901.9 -995.4 2901.9 -1644.6 M 2590.6 -1644.6 2590.6 -995.4 2410.3 -995.4 2402 -995.6 2393.7 -996.2 2385.4 -997.1 2377.2 -998.5 2369 -1000.2 2361 -1002.3 2353 -1004.7 2345.2 -1007.6 2337.5 -1010.8 2329.9 -1014.3 2322.6 -1018.2 2315.4 -1022.4 2308.4 -1027 2301.6 -1031.8 2295.1 -1037 2288.8 -1042.5 2282.8 -1048.2 2277.1 -1054.2 2271.6 -1060.5 2266.4 -1067 2261.6 -1073.8 2257 -1080.8 2252.8 -1088 2248.9 -1095.3 2245.4 -1102.9 2242.2 -1110.6 2239.3 -1118.4 2236.9 -1126.4 2234.8 -1134.4 2233.1 -1142.6 2231.7 -1150.8 2230.8 -1159.1 2230.2 -1167.4 2230 -1175.7 M 2229.9 -1175.7 2229.9 -1464.3 M 2230 -1464.3 2230.2 -1472.6 2230.8 -1480.9 2231.7 -1489.2 2233.1 -1497.4 2234.8 -1505.6 2236.9 -1513.6 2239.3 -1521.6 2242.2 -1529.4 2245.4 -1537.1 2248.9 -1544.7 2252.8 -1552 2257 -1559.2 2261.6 -1566.2 2266.4 -1573 2271.6 -1579.5 2277.1 -1585.8 2282.8 -1591.8 2288.8 -1597.5 2295.1 -1603 2301.6 -1608.2 2308.4 -1613 2315.4 -1617.6 2322.6 -1621.8 2329.9 -1625.7 2337.5 -1629.2 2345.2 -1632.4 2353 -1635.3 2361 -1637.7 2369 -1639.8 2377.2 -1641.5 2385.4 -1642.9 2393.7 -1643.8 2402 -1644.4 2410.3 -1644.6 2590.6 -1644.6 M 493.4 -1574.6 493.4 -925.4 313.1 -925.4 304.8 -925.6 296.5 -926.2 288.2 -927.1 280 -928.5 271.8 -930.2 263.8 -932.3 255.8 -934.7 248 -937.6 240.3 -940.8 232.7 -944.3 225.4 -948.2 218.2 -952.4 211.2 -957 204.4 -961.8 197.9 -967 191.6 -972.5 185.6 -978.2 179.9 -984.2 174.4 -990.5 169.2 -997 164.4 -1003.8 159.8 -1010.8 155.6 -1018 151.7 -1025.3 148.2 -1032.9 145 -1040.6 142.1 -1048.4 139.7 -1056.4 137.6 -1064.4 135.9 -1072.6 134.5 -1080.8 133.6 -1089.1 133 -1097.4 132.8 -1105.7 133 -1114 133.6 -1122.3 134.5 -1130.6 135.9 -1138.8 137.6 -1147 139.7 -1155 142.1 -1163 145 -1170.8 148.2 -1178.5 151.7 -1186.1 155.6 -1193.4 159.8 -1200.6 164.4 -1207.6 169.2 -1214.4 174.4 -1220.9 179.9 -1227.2 185.6 -1233.2 191.6 -1238.9 197.9 -1244.4 204.4 -1249.6 211.2 -1254.4 218.2 -1259 225.4 -1263.2 232.7 -1267.1 240.3 -1270.6 248 -1273.8 255.8 -1276.7 263.8 -1279.1 271.8 -1281.2 280 -1282.9 288.2 -1284.3 296.5 -1285.2 304.8 -1285.8 313.1 -1286 M 313.1 -1286.1 493.4 -1286.1 M 277 -1286.1 132.7 -1574.6 M -132.7 -1069.7 -313.1 -925.4 -313.1 -1574.6 M -493.4 -1574.6 -132.7 -1574.6 M 482.2 1425.4 482.2 2074.6 301.9 2074.6 293.6 2074.4 285.3 2073.8 277 2072.9 268.8 2071.5 260.6 2069.8 252.6 2067.7 244.6 2065.3 236.8 2062.4 229.1 2059.2 221.5 2055.7 214.2 2051.8 207 2047.6 200 2043 193.2 2038.2 186.7 2033 180.4 2027.5 174.4 2021.8 168.7 2015.8 163.2 2009.5 158 2003 153.2 1996.2 148.6 1989.2 144.4 1982 140.5 1974.7 137 1967.1 133.8 1959.4 130.9 1951.6 128.5 1943.6 126.4 1935.6 124.7 1927.4 123.3 1919.2 122.4 1910.9 121.8 1902.6 121.6 1894.3 121.8 1886 122.4 1877.7 123.3 1869.4 124.7 1861.2 126.4 1853 128.5 1845 130.9 1837 133.8 1829.2 137 1821.5 140.5 1813.9 144.4 1806.6 148.6 1799.4 153.2 1792.4 158 1785.6 163.2 1779.1 168.7 1772.8 174.4 1766.8 180.4 1761.1 186.7 1755.6 193.2 1750.4 200 1745.6 207 1741 214.2 1736.8 221.5 1732.9 229.1 1729.4 236.8 1726.2 244.6 1723.3 252.6 1720.9 260.6 1718.8 268.8 1717.1 277 1715.7 285.3 1714.8 293.6 1714.2 301.9 1714 M 301.9 1713.9 482.2 1713.9 M 265.8 1713.9 121.6 1425.4 M -504.6 1912.3 -504.4 1920.3 -503.8 1928.2 -502.8 1936.1 -501.5 1944 -499.7 1951.7 -497.6 1959.4 -495.1 1967 -492.2 1974.4 -489 1981.7 -485.4 1988.8 -481.5 1995.7 -477.2 2002.5 -472.7 2009 -467.8 2015.3 -462.6 2021.3 -457.1 2027.1 -451.3 2032.6 -445.3 2037.8 -439 2042.7 -432.5 2047.2 -425.7 2051.5 -418.8 2055.4 -411.7 2059 -404.4 2062.2 -397 2065.1 -389.4 2067.6 -381.7 2069.7 -374 2071.5 -366.1 2072.8 -358.2 2073.8 -350.3 2074.4 -342.3 2074.6 -333.3 2074.4 -324.2 2073.8 -315.3 2072.8 -306.3 2071.5 -297.4 2069.7 -288.7 2067.6 -280 2065.1 -271.4 2062.2 -263 2058.9 -254.7 2055.3 -246.6 2051.3 -238.6 2047 -230.9 2042.3 -223.3 2037.3 -216 2032 -209 2026.4 -202.1 2020.5 -195.6 2014.2 -189.3 2007.7 -183.3 2001 -177.6 1994 -172.2 1986.7 -167.1 1979.2 -162.4 1971.5 -158 1963.6 -154 1955.5 -150.3 1947.3 -146.9 1938.9 -143.9 1930.3 M -450.4 1786.1 -456 1791.6 -461.3 1797.4 -466.3 1803.4 -471.1 1809.6 -475.5 1816.1 -479.7 1822.7 -483.6 1829.5 -487.2 1836.5 -490.4 1843.6 -493.3 1850.9 -495.9 1858.3 -498.2 1865.8 -500.1 1873.4 -501.7 1881.1 -502.9 1888.8 -503.8 1896.6 -504.3 1904.5 -504.5 1912.3 M -450.5 1786.1 -143.9 1425.4 -504.6 1425.4 M -2301.8 3425.4 -2309.4 3425.6 -2316.9 3426.2 -2324.4 3427.2 -2331.8 3428.6 -2339.2 3430.3 -2346.4 3432.5 -2353.5 3435 -2360.5 3437.9 -2367.3 3441.1 -2374 3444.7 -2380.4 3448.7 -2386.6 3453 -2392.6 3457.6 -2398.4 3462.5 -2403.8 3467.7 -2409 3473.1 -2413.9 3478.9 -2418.5 3484.9 -2422.8 3491.1 -2426.8 3497.6 -2430.4 3504.2 -2433.6 3511 -2436.5 3518 -2439 3525.1 -2441.2 3532.4 -2442.9 3539.7 -2444.3 3547.1 -2445.3 3554.6 -2445.9 3562.1 -2446.1 3569.7 M -2301.8 3425.4 -2290.9 3425.6 -2280 3426.2 -2269.1 3427.2 -2258.2 3428.5 -2247.4 3430.3 -2236.7 3432.4 -2226.1 3435 -2215.5 3437.9 -2205.1 3441.2 -2194.8 3444.8 -2184.6 3448.8 -2174.6 3453.2 -2164.7 3458 -2155.1 3463.1 -2145.6 3468.5 -2136.3 3474.3 -2127.2 3480.4 -2118.4 3486.8 -2109.8 3493.5 -2101.4 3500.6 -2093.3 3507.9 -2085.4 3515.6 M -2103.4 3930.3 -2103.6 3937.9 -2104.2 3945.4 -2105.2 3952.9 -2106.6 3960.3 -2108.3 3967.6 -2110.5 3974.9 -2113 3982 -2115.9 3989 -2119.1 3995.8 -2122.7 4002.5 -2126.7 4008.9 -2131 4015.1 -2135.6 4021.1 -2140.5 4026.9 -2145.7 4032.3 -2151.1 4037.5 -2156.9 4042.4 -2162.9 4047 -2169.1 4051.3 -2175.6 4055.3 -2182.2 4058.9 -2189 4062.1 -2196 4065 -2203.1 4067.5 -2210.4 4069.7 -2217.7 4071.4 -2225.1 4072.8 -2232.6 4073.8 -2240.1 4074.4 -2247.7 4074.6 -2257.9 4074.4 -2268.2 4073.8 -2278.4 4072.9 -2288.5 4071.5 -2298.6 4069.8 -2308.6 4067.7 -2318.5 4065.2 -2328.4 4062.3 -2338.1 4059.1 -2347.7 4055.5 -2357.1 4051.5 -2366.4 4047.2 -2375.5 4042.5 -2384.4 4037.5 -2393.2 4032.2 -2401.7 4026.5 -2410 4020.5 M -2175.5 3804.1 -2169.1 3808.1 -2162.8 3812.5 -2156.8 3817.1 -2151.1 3822.1 -2145.6 3827.4 -2140.4 3833 -2135.5 3838.8 -2130.9 3844.8 -2126.6 3851.1 -2122.7 3857.6 -2119.1 3864.3 -2115.9 3871.2 -2113 3878.2 -2110.5 3885.4 -2108.3 3892.7 -2106.5 3900.1 -2105.2 3907.6 -2104.2 3915.1 -2103.6 3922.7 -2103.4 3930.3 M -2373.9 3695.9 -2380.3 3691.9 -2386.6 3687.5 -2392.6 3682.9 -2398.3 3677.9 -2403.8 3672.6 -2409 3667 -2413.9 3661.2 -2418.5 3655.2 -2422.8 3648.9 -2426.7 3642.4 -2430.3 3635.7 -2433.5 3628.8 -2436.4 3621.8 -2439 3614.6 -2441.1 3607.3 -2442.9 3599.9 -2444.2 3592.4 -2445.2 3584.9 -2445.8 3577.3 -2446 3569.7 M -2373.9 3695.9 -2175.6 3804.1 M -2836.9 3425.4 -2981.2 3425.4 M -2836.9 3425.4 -2829.3 3425.6 -2821.8 3426.2 -2814.3 3427.2 -2806.9 3428.6 -2799.6 3430.3 -2792.3 3432.5 -2785.2 3435 -2778.2 3437.9 -2771.4 3441.1 -2764.7 3444.7 -2758.3 3448.7 -2752.1 3453 -2746.1 3457.6 -2740.3 3462.5 -2734.9 3467.7 -2729.7 3473.1 -2724.8 3478.9 -2720.2 3484.9 -2715.9 3491.1 -2711.9 3497.6 -2708.3 3504.2 -2705.1 3511 -2702.2 3518 -2699.7 3525.1 -2697.5 3532.4 -2695.8 3539.7 -2694.4 3547.1 -2693.4 3554.6 -2692.8 3562.1 -2692.6 3569.7 M -2692.7 3569.7 -2692.7 3930.3 M -2692.6 3930.3 -2692.8 3937.9 -2693.4 3945.4 -2694.4 3952.9 -2695.8 3960.3 -2697.5 3967.6 -2699.7 3974.9 -2702.2 3982 -2705.1 3989 -2708.3 3995.8 -2711.9 4002.4 -2715.9 4008.9 -2720.2 4015.1 -2724.8 4021.1 -2729.7 4026.9 -2734.9 4032.3 -2740.3 4037.5 -2746.1 4042.4 -2752.1 4047 -2758.3 4051.3 -2764.7 4055.3 -2771.4 4058.9 -2778.2 4062.1 -2785.2 4065 -2792.3 4067.5 -2799.5 4069.7 -2806.9 4071.4 -2814.3 4072.8 -2821.8 4073.8 -2829.3 4074.4 -2836.9 4074.6 -2981.2 4074.6 M -3241.6 4074.6 -3241.6 3425.4 -3530.1 3425.4 M -2446.1 969.7 -2445.9 962.1 -2445.3 954.6 -2444.3 947.1 -2442.9 939.7 -2441.2 932.4 -2439 925.1 -2436.5 918 -2433.6 911 -2430.4 904.2 -2426.8 897.6 -2422.8 891.1 -2418.5 884.9 -2413.9 878.9 -2409 873.1 -2403.8 867.7 -2398.4 862.5 -2392.6 857.6 -2386.6 853 -2380.4 848.7 -2374 844.7 -2367.3 841.1 -2360.5 837.9 -2353.5 835 -2346.4 832.5 -2339.2 830.3 -2331.8 828.6 -2324.4 827.2 -2316.9 826.2 -2309.4 825.6 -2301.8 825.4 -2290.9 825.6 -2280 826.2 -2269.1 827.2 -2258.2 828.5 -2247.4 830.3 -2236.7 832.4 -2226.1 835 -2215.5 837.9 -2205.1 841.2 -2194.8 844.8 -2184.6 848.8 -2174.6 853.2 -2164.7 858 -2155.1 863.1 -2145.6 868.5 -2136.3 874.3 -2127.2 880.4 -2118.4 886.8 -2109.8 893.5 -2101.4 900.6 -2093.3 907.9 -2085.4 915.6 M -2103.4 1330.3 -2103.6 1337.9 -2104.2 1345.4 -2105.2 1352.9 -2106.6 1360.3 -2108.3 1367.6 -2110.5 1374.9 -2113 1382 -2115.9 1389 -2119.1 1395.8 -2122.7 1402.5 -2126.7 1408.9 -2131 1415.1 -2135.6 1421.1 -2140.5 1426.9 -2145.7 1432.3 -2151.1 1437.5 -2156.9 1442.4 -2162.9 1447 -2169.1 1451.3 -2175.6 1455.3 -2182.2 1458.9 -2189 1462.1 -2196 1465 -2203.1 1467.5 -2210.4 1469.7 -2217.7 1471.4 -2225.1 1472.8 -2232.6 1473.8 -2240.1 1474.4 -2247.7 1474.6 -2257.9 1474.4 -2268.2 1473.8 -2278.4 1472.9 -2288.5 1471.5 -2298.6 1469.8 -2308.6 1467.7 -2318.5 1465.2 -2328.4 1462.3 -2338.1 1459.1 -2347.7 1455.5 -2357.1 1451.5 -2366.4 1447.2 -2375.5 1442.5 -2384.4 1437.5 -2393.2 1432.2 -2401.7 1426.5 -2410 1420.5 M -2175.5 1204.1 -2169.1 1208.1 -2162.8 1212.5 -2156.8 1217.1 -2151.1 1222.1 -2145.6 1227.4 -2140.4 1233 -2135.5 1238.8 -2130.9 1244.8 -2126.6 1251.1 -2122.7 1257.6 -2119.1 1264.3 -2115.9 1271.2 -2113 1278.2 -2110.5 1285.4 -2108.3 1292.7 -2106.5 1300.1 -2105.2 1307.6 -2104.2 1315.1 -2103.6 1322.7 -2103.4 1330.3 M -2373.9 1095.9 -2380.3 1091.9 -2386.6 1087.5 -2392.6 1082.9 -2398.3 1077.9 -2403.8 1072.6 -2409 1067 -2413.9 1061.2 -2418.5 1055.2 -2422.8 1048.9 -2426.7 1042.4 -2430.3 1035.7 -2433.5 1028.8 -2436.4 1021.8 -2439 1014.6 -2441.1 1007.3 -2442.9 999.9 -2444.2 992.4 -2445.2 984.9 -2445.8 977.3 -2446 969.7 M -2373.9 1095.9 -2175.6 1204.1 M -2715.4 1474.6 -2715.4 825.4 M -2715.4 1474.6 -2895.7 1474.6 -2904 1474.4 -2912.3 1473.8 -2920.6 1472.9 -2928.8 1471.5 -2937 1469.8 -2945 1467.7 -2953 1465.3 -2960.8 1462.4 -2968.5 1459.2 -2976.1 1455.7 -2983.4 1451.8 -2990.6 1447.6 -2997.6 1443 -3004.4 1438.2 -3010.9 1433 -3017.2 1427.5 -3023.2 1421.8 -3028.9 1415.8 -3034.4 1409.5 -3039.6 1403 -3044.4 1396.2 -3049 1389.2 -3053.2 1382 -3057.1 1374.7 -3060.6 1367.1 -3063.8 1359.4 -3066.7 1351.6 -3069.1 1343.6 -3071.2 1335.6 -3072.9 1327.4 -3074.3 1319.2 -3075.2 1310.9 -3075.8 1302.6 -3076 1294.3 M -3076.1 1294.3 -3076.1 1005.7 M -3076 1005.7 -3075.8 997.4 -3075.2 989.1 -3074.3 980.8 -3072.9 972.6 -3071.2 964.4 -3069.1 956.4 -3066.7 948.4 -3063.8 940.6 -3060.6 932.9 -3057.1 925.3 -3053.2 918 -3049 910.8 -3044.4 903.8 -3039.6 897 -3034.4 890.5 -3028.9 884.2 -3023.2 878.2 -3017.2 872.5 -3010.9 867 -3004.4 861.8 -2997.6 857 -2990.6 852.4 -2983.4 848.2 -2976.1 844.3 -2968.5 840.8 -2960.8 837.6 -2953 834.7 -2945 832.3 -2937 830.2 -2928.8 828.5 -2920.6 827.1 -2912.3 826.2 -2904 825.6 -2895.7 825.4 -2715.4 825.4 M -3330.3 825.4 -3546.7 1474.6 -3763.1 825.4 M -3709 987.7 -3384.4 987.7 M 3646.1 3475.4 3934.6 3475.4 3934.6 4124.6 3646.1 4124.6 M 3718.2 3836.1 3934.6 3836.1 M 3268.3 3475.4 3124 3475.4 M 3268.3 3475.4 3275.6 3475.6 3282.9 3476.1 3290.2 3477.1 3297.3 3478.4 3304.5 3480 3311.5 3482 3318.4 3484.4 3325.2 3487.1 3331.8 3490.1 3338.3 3493.5 3344.6 3497.2 3350.7 3501.3 3356.6 3505.6 3362.3 3510.2 3367.7 3515.1 3372.9 3520.3 3377.8 3525.7 3382.4 3531.4 3386.7 3537.3 3390.8 3543.4 3394.5 3549.7 3397.9 3556.2 3400.9 3562.8 3403.6 3569.6 3406 3576.5 3408 3583.5 3409.6 3590.7 3410.9 3597.9 3411.9 3605.1 3412.4 3612.4 3412.6 3619.7 M 3412.5 3619.7 3412.5 3980.3 M 3412.6 3980.3 3412.4 3987.9 3411.8 3995.4 3410.8 4002.9 3409.4 4010.3 3407.7 4017.6 3405.5 4024.9 3403 4032 3400.1 4039 3396.9 4045.8 3393.3 4052.4 3389.3 4058.9 3385 4065.1 3380.4 4071.1 3375.5 4076.9 3370.3 4082.3 3364.9 4087.5 3359.1 4092.4 3353.1 4097 3346.9 4101.3 3340.5 4105.3 3333.8 4108.9 3327 4112.1 3320 4115 3312.9 4117.5 3305.7 4119.7 3298.3 4121.4 3290.9 4122.8 3283.4 4123.8 3275.9 4124.4 3268.3 4124.6 3124 4124.6 M -2085.4 -1025.4 -2301.8 -1674.6 -2518.2 -1025.4 M -2894 -1674.6 -3038.3 -1674.6 M -2894 -1674.6 -2886.4 -1674.4 -2878.9 -1673.8 -2871.4 -1672.8 -2864 -1671.4 -2856.7 -1669.7 -2849.4 -1667.5 -2842.3 -1665 -2835.3 -1662.1 -2828.5 -1658.9 -2821.9 -1655.3 -2815.4 -1651.3 -2809.2 -1647 -2803.2 -1642.4 -2797.4 -1637.5 -2792 -1632.3 -2786.8 -1626.9 -2781.9 -1621.1 -2777.3 -1615.1 -2773 -1608.9 -2769 -1602.5 -2765.4 -1595.8 -2762.2 -1589 -2759.3 -1582 -2756.8 -1574.9 -2754.6 -1567.7 -2752.9 -1560.3 -2751.5 -1552.9 -2750.5 -1545.4 -2749.9 -1537.9 -2749.7 -1530.3 -2749.7 -1169.7 -2749.9 -1162.1 -2750.5 -1154.6 -2751.5 -1147.1 -2752.9 -1139.7 -2754.6 -1132.4 -2756.8 -1125.1 -2759.3 -1118 -2762.2 -1111 -2765.4 -1104.2 -2769 -1097.6 -2773 -1091.1 -2777.3 -1084.9 -2781.9 -1078.9 -2786.8 -1073.1 -2792 -1067.7 -2797.4 -1062.5 -2803.2 -1057.6 -2809.2 -1053 -2815.4 -1048.7 -2821.8 -1044.7 -2828.5 -1041.1 -2835.3 -1037.9 -2842.3 -1035 -2849.4 -1032.5 -2856.6 -1030.3 -2864 -1028.6 -2871.4 -1027.2 -2878.9 -1026.2 -2886.4 -1025.6 -2894 -1025.4 -3038.3 -1025.4 M -3419 -1674.6 -3563.3 -1674.6 M -3419 -1674.6 -3411.4 -1674.4 -3403.9 -1673.8 -3396.4 -1672.8 -3389 -1671.4 -3381.7 -1669.7 -3374.4 -1667.5 -3367.3 -1665 -3360.3 -1662.1 -3353.5 -1658.9 -3346.9 -1655.3 -3340.4 -1651.3 -3334.2 -1647 -3328.2 -1642.4 -3322.4 -1637.5 -3317 -1632.3 -3311.8 -1626.9 -3306.9 -1621.1 -3302.3 -1615.1 -3298 -1608.9 -3294 -1602.5 -3290.4 -1595.8 -3287.2 -1589 -3284.3 -1582 -3281.8 -1574.9 -3279.6 -1567.7 -3277.9 -1560.3 -3276.5 -1552.9 -3275.5 -1545.4 -3274.9 -1537.9 -3274.7 -1530.3 -3274.7 -1169.7 -3274.9 -1162.1 -3275.5 -1154.6 -3276.5 -1147.1 -3277.9 -1139.7 -3279.6 -1132.4 -3281.8 -1125.1 -3284.3 -1118 -3287.2 -1111 -3290.4 -1104.2 -3294 -1097.6 -3298 -1091.1 -3302.3 -1084.9 -3306.9 -1078.9 -3311.8 -1073.1 -3317 -1067.7 -3322.4 -1062.5 -3328.2 -1057.6 -3334.2 -1053 -3340.4 -1048.7 -3346.8 -1044.7 -3353.5 -1041.1 -3360.3 -1037.9 -3367.3 -1035 -3374.4 -1032.5 -3381.6 -1030.3 -3389 -1028.6 -3396.4 -1027.2 -3403.9 -1026.2 -3411.4 -1025.6 -3419 -1025.4 -3563.3 -1025.4" fill="none" stroke-width="50.8"/></g><g id="dsfSTSIumEgZuLcXuCHB_bottom_solderpaste"><use xlink:href="#zAwdXxD4alJpnCGZqpzv_pad-10" x="950" y="-3000"/><use xlink:href="#zAwdXxD4alJpnCGZqpzv_pad-10" x="-950" y="-3000"/><use xlink:href="#zAwdXxD4alJpnCGZqpzv_pad-10" x="-950" y="0"/><use xlink:href="#zAwdXxD4alJpnCGZqpzv_pad-10" x="950" y="0"/><use xlink:href="#zAwdXxD4alJpnCGZqpzv_pad-10" x="-950" y="3000"/><use xlink:href="#zAwdXxD4alJpnCGZqpzv_pad-10" x="950" y="3000"/></g><g id="dsfSTSIumEgZuLcXuCHB_bottom_drill1"><use xlink:href="#rLIawDqT2lIAz23eap5Q_pad-2" x="3810" y="-2540"/><use xlink:href="#rLIawDqT2lIAz23eap5Q_pad-2" x="-3810" y="2540"/><use xlink:href="#rLIawDqT2lIAz23eap5Q_pad-2" x="-3810" y="0"/><use xlink:href="#rLIawDqT2lIAz23eap5Q_pad-2" x="3810" y="2540"/><use xlink:href="#rLIawDqT2lIAz23eap5Q_pad-2" x="-3810" y="-2540"/></g><clipPath id="dsfSTSIumEgZuLcXuCHB_bottom_outline"><path d="M 5842 -104.3 5842 104.3 5834.6 312.7 5819.7 520.8 5797.4 728.2 5767.7 934.6 5730.7 1139.9 5686.3 1343.7 5634.7 1545.8 5576 1745.9 5510.1 1943.9 5437.2 2139.3 5357.4 2332 5270.7 2521.7 5177.4 2708.2 5077.4 2891.3 4971 3070.7 4858.2 3246.2 4739.3 3417.5 4614.3 3584.5 4483.4 3746.9 4346.8 3904.5 4204.7 4057.2 4057.2 4204.7 3904.5 4346.8 3746.9 4483.4 3584.5 4614.3 3417.5 4739.3 3246.2 4858.2 3070.7 4971 2891.3 5077.4 2708.2 5177.4 2521.7 5270.7 2332 5357.4 2139.3 5437.2 1943.9 5510.1 1745.9 5576 1545.8 5634.7 1343.7 5686.3 1139.9 5730.7 934.6 5767.7 728.2 5797.4 520.8 5819.7 312.7 5834.6 104.3 5842 -104.3 5842 -312.7 5834.6 -520.8 5819.7 -728.2 5797.4 -934.6 5767.7 -1139.9 5730.7 -1343.7 5686.3 -1545.8 5634.7 -1745.9 5576 -1943.9 5510.1 -2139.3 5437.2 -2332 5357.4 -2521.7 5270.7 -2708.2 5177.4 -2891.3 5077.4 -3070.7 4971 -3246.2 4858.2 -3417.5 4739.3 -3584.5 4614.3 -3746.9 4483.4 -3904.5 4346.8 -4057.2 4204.7 -4204.7 4057.2 -4346.8 3904.5 -4483.4 3746.9 -4614.3 3584.5 -4739.3 3417.5 -4858.2 3246.2 -4971 3070.7 -5077.4 2891.3 -5177.4 2708.2 -5270.7 2521.7 -5357.4 2332 -5437.2 2139.3 -5510.1 1943.9 -5576 1745.9 -5634.7 1545.8 -5686.3 1343.7 -5730.7 1139.9 -5767.7 934.6 -5797.4 728.2 -5819.7 520.8 -5834.6 312.7 -5842 104.3 -5842 -104.3 -5834.6 -312.7 -5819.7 -520.8 -5797.4 -728.2 -5767.7 -934.6 -5730.7 -1139.9 -5686.3 -1343.7 -5634.7 -1545.8 -5576 -1745.9 -5510.1 -1943.9 -5437.2 -2139.3 -5357.4 -2332 -5270.7 -2521.7 -5177.4 -2708.2 -5077.4 -2891.3 -4971 -3070.7 -4858.2 -3246.2 -4739.3 -3417.5 -4614.3 -3584.5 -4483.4 -3746.9 -4346.8 -3904.5 -4204.7 -4057.2 -4057.2 -4204.7 -3904.5 -4346.8 -3746.9 -4483.4 -3584.5 -4614.3 -3417.5 -4739.3 -3246.2 -4858.2 -3070.7 -4971 -2891.3 -5077.4 -2708.2 -5177.4 -2521.7 -5270.7 -2332 -5357.4 -2139.3 -5437.2 -1943.9 -5510.1 -1745.9 -5576 -1545.8 -5634.7 -1343.7 -5686.3 -1139.9 -5730.7 -934.6 -5767.7 -728.2 -5797.4 -520.8 -5819.7 -312.7 -5834.6 -104.3 -5842 104.3 -5842 312.7 -5834.6 520.8 -5819.7 728.2 -5797.4 934.6 -5767.7 1139.9 -5730.7 1343.7 -5686.3 1545.8 -5634.7 1745.9 -5576 1943.9 -5510.1 2139.3 -5437.2 2332 -5357.4 2521.7 -5270.7 2708.2 -5177.4 2891.3 -5077.4 3070.7 -4971 3246.2 -4858.2 3417.5 -4739.3 3584.5 -4614.3 3746.9 -4483.4 3904.5 -4346.8 4057.2 -4204.7 4204.7 -4057.2 4346.8 -3904.5 4483.4 -3746.9 4614.3 -3584.5 4739.3 -3417.5 4858.2 -3246.2 4971 -3070.7 5077.4 -2891.3 5177.4 -2708.2 5270.7 -2521.7 5357.4 -2332 5437.2 -2139.3 5510.1 -1943.9 5576 -1745.9 5634.7 -1545.8 5686.3 -1343.7 5730.7 -1139.9 5767.7 -934.6 5797.4 -728.2 5819.7 -520.8 5834.6 -312.7 5842 -104.3" fill="none" stroke-width="254"/></clipPath><mask id="dsfSTSIumEgZuLcXuCHB_bottom_mech-mask"><g fill="#000" stroke="#000"><rect x="-5842" y="-5842" width="11684" height="11684" fill="#fff"/><use xlink:href="#dsfSTSIumEgZuLcXuCHB_bottom_drill1"/></g></mask><mask id="dsfSTSIumEgZuLcXuCHB_bottom_cf-mask"><g fill="#fff" stroke="#fff"><use xlink:href="#dsfSTSIumEgZuLcXuCHB_bottom_soldermask"/></g></mask><mask id="dsfSTSIumEgZuLcXuCHB_bottom_sm-mask"><g fill="#000" stroke="#000"><rect x="-5842" y="-5842" width="11684" height="11684" fill="#fff"/><use xlink:href="#dsfSTSIumEgZuLcXuCHB_bottom_soldermask"/></g></mask></defs><g transform="translate(0,0) scale(1,-1)"><g mask="url(#dsfSTSIumEgZuLcXuCHB_bottom_mech-mask)" clip-path="url(#dsfSTSIumEgZuLcXuCHB_bottom_outline)" transform="translate(0,0) scale(-1,1)"><rect x="-5842" y="-5842" width="11684" height="11684" fill="currentColor" class="dsfSTSIumEgZuLcXuCHB_fr4"/><use xlink:href="#dsfSTSIumEgZuLcXuCHB_bottom_copper" fill="currentColor" stroke="currentColor" class="dsfSTSIumEgZuLcXuCHB_cu"/><use xlink:href="#dsfSTSIumEgZuLcXuCHB_bottom_copper" fill="currentColor" stroke="currentColor" class="dsfSTSIumEgZuLcXuCHB_cf" mask="url(#dsfSTSIumEgZuLcXuCHB_bottom_cf-mask)"/><g mask="url(#dsfSTSIumEgZuLcXuCHB_bottom_sm-mask)"><rect x="-5842" y="-5842" width="11684" height="11684" fill="currentColor" class="dsfSTSIumEgZuLcXuCHB_sm"/><use xlink:href="#dsfSTSIumEgZuLcXuCHB_bottom_silkscreen" fill="currentColor" stroke="currentColor" class="dsfSTSIumEgZuLcXuCHB_ss"/></g><use xlink:href="#dsfSTSIumEgZuLcXuCHB_bottom_solderpaste" fill="currentColor" stroke="currentColor" class="dsfSTSIumEgZuLcXuCHB_sp"/></g></g></svg>