<svg version="1.1" xmlns="http://www.w3.org/2000/svg" xmlns:xlink="http://www.w3.org/1999/xlink" stroke-linecap="round" stroke-linejoin="round" stroke-width="0" fill-rule="evenodd" width="9.392mm" height="7.9548000000000005mm" viewBox="-4642.7 -3825 9392 7954.8" id="UeUhLyvcUhcW2HpOSAbO"><defs><circle cx="0" cy="0" r="762" id="UeUhLyvcUhcW2HpOSAbO_pad-10"/><rect x="-450" y="-1125" width="900" height="2250" id="UeUhLyvcUhcW2HpOSAbO_pad-11"/><rect x="-450" y="-1400" width="900" height="2800" id="UeUhLyvcUhcW2HpOSAbO_pad-12"/></defs><g transform="translate(0,304.8000000000002) scale(1,-1)" fill="currentColor" stroke="currentColor"><path d="M 3888.2 -2539.6 3888.2 -2539.6 3890.1 -2539.8 3900.3 -2537.6 3910.5 -2535.9 3912.2 -2535 3914.2 -2534.6 3923.1 -2529.3 3932.2 -2524.4 3933.6 -2523 3935.3 -2522 3942 -2514.1 3949.1 -2506.6 3950 -2504.8 3951.3 -2503.3 3955.2 -2493.7 3959.5 -2484.3 3959.7 -2482.3 3960.5 -2480.5 3962.3 -2463.8 3962.3 -1535.4 4047.9 -1548.9 4200 -1598.4 4325.1 -1662.1 4331.4 -1664.1 4337.4 -1667 4343.1 -1667.8 4348.5 -1669.6 4355.2 -1669.5 4361.7 -1670.4 4367.4 -1669.3 4373.1 -1669.2 4379.4 -1667 4385.9 -1665.7 4390.9 -1662.9 4396.3 -1661 4401.5 -1656.9 4407.3 -1653.6 4411.1 -1649.4 4415.7 -1645.8 4419.3 -1640.3 4423.7 -1635.3 4427.4 -1628 4429.2 -1625.3 4429.7 -1623.3 4431.2 -1620.3 4619.2 -1103.8 4619.2 -1103.4 4619.5 -1103 4620.2 -1100 4620.9 -1098.3 4621.3 -1095 4623.2 -1086.6 4749.2 -8.8 4749.2 -8.4 4749.3 -7.9 4749.2 8.8 4623.2 1086.6 4623.1 1087.1 4623.1 1087.5 4619.2 1103.8 4451.4 1564.9 4449.6 1568.1 4448.5 1571.6 4443.6 1578.7 4439.3 1586.3 4436.6 1588.8 4434.5 1591.8 4427.5 1597 4421.1 1602.8 4417.7 1604.3 4414.8 1606.5 4406.5 1609.2 4398.5 1612.6 4394.9 1613 4391.4 1614.1 4382.7 1614 4374 1614.8 4370.5 1613.9 4366.8 1613.9 4350.7 1609.2 4022.2 1473.1 3597.8 1473.1 3205.7 1635.5 2905.5 1935.7 2801.3 2187.3 2796.2 2195.6 2791.6 2204.2 2789.8 2206 2788.4 2208.2 2780.8 2214.4 2773.8 2221.1 2771.4 2222.2 2769.4 2223.9 2760.3 2227.4 2751.5 2231.5 2748.9 2231.7 2746.5 2232.7 2736.7 2233.1 2727.1 2234.2 2724.5 2233.6 2721.9 2233.7 2712.5 2231 2703 2228.9 2700.8 2227.6 2698.3 2226.9 2690.3 2221.3 2681.9 2216.3 2680.2 2214.3 2678.1 2212.8 2672.2 2205 2665.9 2197.6 2664.9 2195.2 2663.4 2193.1 2660.4 2183.9 2656.7 2174.8 2656.4 2171.6 2655.8 2169.7 2655.8 2166.4 2654.9 2158.1 2654.9 1448.7 2476.3 1270.1 1323.7 1270.1 1274.5 1319.3 1269 1323.3 1264.2 1328 1259.1 1330.4 1254.5 1333.7 1248.1 1335.7 1242 1338.6 1236.4 1339.3 1231 1340.9 1224.3 1340.7 1217.6 1341.6 1209.7 1340.4 1206.5 1340.3 1204.5 1339.6 1201 1339 1133.4 1320.9 802.3 1320.9 802.3 2623.8 802 2625.8 802.2 2627.7 800 2637.9 798.3 2648.1 797.4 2649.8 797 2651.8 791.7 2660.7 786.8 2669.8 785.4 2671.2 784.4 2672.9 776.5 2679.6 769 2686.7 767.2 2687.6 765.7 2688.9 756.1 2692.8 746.7 2697.1 744.7 2697.3 742.9 2698.1 726.2 2699.9 573.8 2699.9 571.8 2699.6 569.9 2699.8 559.7 2697.6 549.5 2695.9 547.8 2695 545.8 2694.6 536.9 2689.3 527.8 2684.4 526.4 2683 524.7 2682 518 2674.1 510.9 2666.6 510 2664.8 508.7 2663.3 504.8 2653.7 500.5 2644.3 500.3 2642.3 499.5 2640.5 497.7 2623.8 497.7 1320.9 181 1320.9 179 1320.6 177.1 1320.8 166.9 1318.6 156.7 1317 155 1316 153 1315.6 144.1 1310.3 135 1305.4 133.6 1304 131.9 1303 125.2 1295.1 118 1287.6 117.2 1285.8 115.9 1284.3 112 1274.7 107.7 1265.3 107.5 1263.3 106.7 1261.5 104.9 1244.8 104.9 893.7 -73.7 715.1 -1226.3 715.1 -1404.9 893.7 -1404.9 1194 -1405.2 1196 -1405 1197.9 -1407.2 1208.1 -1408.8 1218.3 -1409.8 1220 -1410.2 1222 -1415.5 1230.9 -1420.4 1240 -1421.8 1241.4 -1422.8 1243.1 -1430.7 1249.8 -1438.2 1257 -1440 1257.8 -1441.5 1259.1 -1451.1 1263 -1460.5 1267.3 -1462.5 1267.5 -1464.3 1268.3 -1481 1270.1 -2476.3 1270.1 -2654.9 1448.7 -2654.9 2158.1 -2656.4 2167.8 -2657.4 2177.4 -2658.4 2179.8 -2658.8 2182.4 -2663.4 2191 -2667.4 2199.9 -2669.1 2201.8 -2670.4 2204.2 -2677.4 2210.9 -2684 2218 -2686.3 2219.3 -2688.2 2221.1 -2697 2225.2 -2705.6 2229.9 -2708.1 2230.4 -2710.5 2231.5 -2720.2 2232.5 -2729.8 2234.3 -2732.4 2233.9 -2734.9 2234.2 -2744.5 2232.1 -2754.1 2230.7 -2756.4 2229.5 -2759 2228.9 -2767.3 2223.9 -2776 2219.5 -2777.9 2217.7 -2780.1 2216.3 -2786.4 2208.9 -2793.2 2202 -2794.8 2199.1 -2796.1 2197.6 -2797.3 2194.6 -2801.3 2187.3 -2905.5 1935.7 -3205.7 1635.5 -3597.8 1473.1 -4022.2 1473.1 -4374.4 1619 -4382.3 1620.9 -4389.9 1623.6 -4394.2 1623.6 -4398.4 1624.6 -4406.4 1623.9 -4414.4 1624 -4418.6 1622.7 -4422.9 1622.3 -4430.2 1619 -4437.9 1616.6 -4441.4 1614.1 -4445.3 1612.3 -4451.3 1606.9 -4457.8 1602.1 -4460.3 1598.6 -4463.4 1595.7 -4467.3 1588.6 -4472 1582 -4473.9 1576.7 -4475.3 1574.1 -4475.8 1571.3 -4477.6 1566.2 -4640.9 877.1 -4641.2 873.5 -4642.3 869.9 -4642.1 861.2 -4642.7 852.6 -4641.7 849 -4641.7 845.3 -4638.7 837.2 -4636.5 828.8 -4634.5 825.7 -4633.2 822.2 -4627.8 815.5 -4623 808.2 -4620.1 805.9 -4617.8 803 -4610.6 798.3 -4603.7 793 -4600.2 791.7 -4597.1 789.7 -4588.7 787.6 -4580.6 784.7 -4576.9 784.6 -4573.3 783.7 -4564.7 784.4 -4556 784.2 -4552.4 785.3 -4548.8 785.6 -4540.8 789 -4532.5 791.6 -4529.5 793.8 -4526.1 795.3 -4513 805.7 -4414.3 904.5 -4022.2 1066.9 -3597.8 1066.9 -3205.7 904.5 -2905.5 604.3 -2743.1 212.2 -2743.1 -212.2 -2816.1 -388.5 -2818.8 -399.9 -2821.7 -411.2 -2821.6 -411.8 -2821.8 -412.4 -2820.7 -424.1 -2819.8 -435.7 -2819.5 -436.3 -2819.4 -436.9 -2814.7 -447.6 -2810.1 -458.3 -2809.7 -458.9 -2809.4 -459.4 -2808.2 -460.8 -2799.6 -471.4 -2455.5 -815.6 -2448.1 -820.9 -2441.2 -826.8 -2438.2 -828 -2435.5 -829.9 -2426.8 -832.6 -2418.3 -836 -2414.3 -836.5 -2412 -837.2 -2408.8 -837.1 -2401.7 -837.9 356.2 -837.9 601.7 -1083.4 766.2 -1247.8 773.6 -1253.1 780.5 -1259.1 783.5 -1260.3 786.1 -1262.2 794.9 -1264.9 803.3 -1268.3 807.4 -1268.7 809.7 -1269.4 812.9 -1269.3 820 -1270.1 1227.8 -1270.1 1232.8 -1273.3 1241.1 -1279.4 1243 -1279.9 1244.7 -1281 1254.8 -1283.6 1264.6 -1286.6 1266.6 -1286.6 1268.6 -1287 1278.9 -1286.2 1289.2 -1286 1291.1 -1285.3 1293.1 -1285.1 1302.6 -1281.1 1312.3 -1277.5 1313.9 -1276.3 1315.7 -1275.5 1322.4 -1270.1 2476.3 -1270.1 2654.9 -1448.7 2654.9 -2370.7 2655.9 -2377 2655.9 -2383.4 2657.9 -2389.1 2658.8 -2395 2661.8 -2400.6 2663.9 -2406.7 2667.6 -2411.5 2670.4 -2416.7 2675 -2421.1 2678.9 -2426.2 2683.8 -2429.6 2688.2 -2433.7 2694 -2436.4 2699.3 -2439.9 2705.1 -2441.5 2710.5 -2444 2716.8 -2444.7 2723 -2446.4 2729 -2446.1 2734.9 -2446.8 2741.2 -2445.4 2747.6 -2445 2753.1 -2442.8 2759 -2441.5 2764.5 -2438.2 2770.4 -2435.9 2774.9 -2432 2780.1 -2428.9 2784.2 -2424.1 2789.1 -2419.9 2792.2 -2414.8 2796.1 -2410.2 2798.5 -2404.3 2801.8 -2398.8 2804 -2390.5 2805.3 -2387.4 2805.5 -2385 2806.2 -2382.6 2818.9 -2302.1 2868.4 -2150 2941 -2007.5 3035 -1878.1 3148.1 -1765 3277.5 -1671 3420 -1598.4 3572.1 -1548.9 3657.7 -1535.4 3657.7 -2463.8 3658 -2465.8 3657.8 -2467.7 3660 -2477.9 3661.7 -2488.1 3662.6 -2489.8 3663 -2491.8 3668.3 -2500.7 3673.2 -2509.8 3674.6 -2511.2 3675.6 -2512.9 3683.5 -2519.6 3691 -2526.7 3692.8 -2527.6 3694.3 -2528.9 3703.9 -2532.7 3713.3 -2537.1 3715.3 -2537.3 3717.1 -2538.1 3733.8 -2539.9 3886.2 -2539.9 3888.2 -2539.6"/><use xlink:href="#UeUhLyvcUhcW2HpOSAbO_pad-10" x="3810" y="-2540"/><use xlink:href="#UeUhLyvcUhcW2HpOSAbO_pad-11" x="-1900" y="-2700"/><use xlink:href="#UeUhLyvcUhcW2HpOSAbO_pad-11" x="-650" y="-2700"/><use xlink:href="#UeUhLyvcUhcW2HpOSAbO_pad-11" x="650" y="-2700"/><use xlink:href="#UeUhLyvcUhcW2HpOSAbO_pad-11" x="1900" y="-2700"/><use xlink:href="#UeUhLyvcUhcW2HpOSAbO_pad-11" x="-1900" y="2700"/><use xlink:href="#UeUhLyvcUhcW2HpOSAbO_pad-11" x="650" y="2700"/><use xlink:href="#UeUhLyvcUhcW2HpOSAbO_pad-11" x="1900" y="2700"/><use xlink:href="#UeUhLyvcUhcW2HpOSAbO_pad-12" x="-650" y="2420"/><use xlink:href="#UeUhLyvcUhcW2HpOSAbO_pad-10" x="-3810" y="2540"/><use xlink:href="#UeUhLyvcUhcW2HpOSAbO_pad-10" x="-3810" y="0"/><use xlink:href="#UeUhLyvcUhcW2HpOSAbO_pad-10" x="3810" y="2540"/><use xlink:href="#UeUhLyvcUhcW2HpOSAbO_pad-10" x="-3810" y="-2540"/><path d="M -1900 -2700 -650 -2700 M -1900 -2700 -3650 -2700 -3810 -2540" fill="none" stroke-width="304.8"/><path d="M 650 -2700 650 -1670.6 M -2591.1 -1218.9 -3810 0 M 198.4 -1218.9 650 -1670.6 M 198.4 -1218.9 -2591.1 -1218.9 M 1897 2703 1900 2700 M 1897 2703 1897 3710.9 1554.2 4053.6 -2459.2 4053.6 M -3810 2702.8 -3810 2540 M -3810 2702.8 -2459.2 4053.6" fill="none" stroke-width="152.4"/></g></svg>