<svg version="1.1" xmlns="http://www.w3.org/2000/svg" xmlns:xlink="http://www.w3.org/1999/xlink" stroke-linecap="round" stroke-linejoin="round" stroke-width="0" fill-rule="evenodd" width="11.684mm" height="11.684mm" viewBox="-5842 -5842 11684 11684" id="r0RYV2F-Mc_us__ytQ2c"><g transform="translate(0,0) scale(1,-1)" fill="currentColor" stroke="currentColor"><path d="M 5842 -104.3 5842 104.3 5834.6 312.7 5819.7 520.8 5797.4 728.2 5767.7 934.6 5730.7 1139.9 5686.3 1343.7 5634.7 1545.8 5576 1745.9 5510.1 1943.9 5437.2 2139.3 5357.4 2332 5270.7 2521.7 5177.4 2708.2 5077.4 2891.3 4971 3070.7 4858.2 3246.2 4739.3 3417.5 4614.3 3584.5 4483.4 3746.9 4346.8 3904.5 4204.7 4057.2 4057.2 4204.7 3904.5 4346.8 3746.9 4483.4 3584.5 4614.3 3417.5 4739.3 3246.2 4858.2 3070.7 4971 2891.3 5077.4 2708.2 5177.4 2521.7 5270.7 2332 5357.4 2139.3 5437.2 1943.9 5510.1 1745.9 5576 1545.8 5634.7 1343.7 5686.3 1139.9 5730.7 934.6 5767.7 728.2 5797.4 520.8 5819.7 312.7 5834.6 104.3 5842 -104.3 5842 -312.7 5834.6 -520.8 5819.7 -728.2 5797.4 -934.6 5767.7 -1139.9 5730.7 -1343.7 5686.3 -1545.8 5634.7 -1745.9 5576 -1943.9 5510.1 -2139.3 5437.2 -2332 5357.4 -2521.7 5270.7 -2708.2 5177.4 -2891.3 5077.4 -3070.7 4971 -3246.2 4858.2 -3417.5 4739.3 -3584.5 4614.3 -3746.9 4483.4 -3904.5 4346.8 -4057.2 4204.7 -4204.7 4057.2 -4346.8 3904.5 -4483.4 3746.9 -4614.3 3584.5 -4739.3 3417.5 -4858.2 3246.2 -4971 3070.7 -5077.4 2891.3 -5177.4 2708.2 -5270.7 2521.7 -5357.4 2332 -5437.2 2139.3 -5510.1 1943.9 -5576 1745.9 -5634.7 1545.8 -5686.3 1343.7 -5730.7 1139.9 -5767.7 934.6 -5797.4 728.2 -5819.7 520.8 -5834.6 312.7 -5842 104.3 -5842 -104.3 -5834.6 -312.7 -5819.7 -520.8 -5797.4 -728.2 -5767.7 -934.6 -5730.7 -1139.9 -5686.3 -1343.7 -5634.7 -1545.8 -5576 -1745.9 -5510.1 -1943.9 -5437.2 -2139.3 -5357.4 -2332 -5270.7 -2521.7 -5177.4 -2708.2 -5077.4 -2891.3 -4971 -3070.7 -4858.2 -3246.2 -4739.3 -3417.5 -4614.3 -3584.5 -4483.4 -3746.9 -4346.8 -3904.5 -4204.7 -4057.2 -4057.2 -4204.7 -3904.5 -4346.8 -3746.9 -4483.4 -3584.5 -4614.3 -3417.5 -4739.3 -3246.2 -4858.2 -3070.7 -4971 -2891.3 -5077.4 -2708.2 -5177.4 -2521.7 -5270.7 -2332 -5357.4 -2139.3 -5437.2 -1943.9 -5510.1 -1745.9 -5576 -1545.8 -5634.7 -1343.7 -5686.3 -1139.9 -5730.7 -934.6 -5767.7 -728.2 -5797.4 -520.8 -5819.7 -312.7 -5834.6 -104.3 -5842 104.3 -5842 312.7 -5834.6 520.8 -5819.7 728.2 -5797.4 934.6 -5767.7 1139.9 -5730.7 1343.7 -5686.3 1545.8 -5634.7 1745.9 -5576 1943.9 -5510.1 2139.3 -5437.2 2332 -5357.4 2521.7 -5270.7 2708.2 -5177.4 2891.3 -5077.4 3070.7 -4971 3246.2 -4858.2 3417.5 -4739.3 3584.5 -4614.3 3746.9 -4483.4 3904.5 -4346.8 4057.2 -4204.7 4204.7 -4057.2 4346.8 -3904.5 4483.4 -3746.9 4614.3 -3584.5 4739.3 -3417.5 4858.2 -3246.2 4971 -3070.7 5077.4 -2891.3 5177.4 -2708.2 5270.7 -2521.7 5357.4 -2332 5437.2 -2139.3 5510.1 -1943.9 5576 -1745.9 5634.7 -1545.8 5686.3 -1343.7 5730.7 -1139.9 5767.7 -934.6 5797.4 -728.2 5819.7 -520.8 5834.6 -312.7 5842 -104.3" fill="none" stroke-width="254"/></g></svg>