<svg version="1.1" xmlns="http://www.w3.org/2000/svg" xmlns:xlink="http://www.w3.org/1999/xlink" stroke-linecap="round" stroke-linejoin="round" stroke-width="0" fill-rule="evenodd" width="6.8886mm" height="9.4501mm" viewBox="-3444.3 -4725 6888.6 9450.1" id="n05LNwLhzcxuLIiBmYZ_"><g transform="translate(0,0.1000000000003638) scale(1,-1)" fill="currentColor" stroke="currentColor"><path d="M -2532.3 -4519.3 -2532.3 -4230.7 -2532.1 -4222.4 -2531.5 -4214.1 -2530.6 -4205.8 -2529.2 -4197.6 -2527.5 -4189.4 -2525.4 -4181.4 -2523 -4173.4 -2520.1 -4165.6 -2516.9 -4157.9 -2513.4 -4150.3 -2509.5 -4143 -2505.3 -4135.8 -2500.7 -4128.8 -2495.9 -4122 -2490.7 -4115.5 -2485.2 -4109.2 -2479.5 -4103.2 -2473.5 -4097.5 -2467.2 -4092 -2460.7 -4086.8 -2453.9 -4082 -2446.9 -4077.4 -2439.7 -4073.2 -2432.4 -4069.3 -2424.8 -4065.8 -2417.1 -4062.6 -2409.3 -4059.7 -2401.3 -4057.3 -2393.3 -4055.2 -2385.1 -4053.5 -2376.9 -4052.1 -2368.6 -4051.2 -2360.3 -4050.6 -2352 -4050.4 -2343.7 -4050.6 -2335.4 -4051.2 -2327.1 -4052.1 -2318.9 -4053.5 -2310.7 -4055.2 -2302.7 -4057.3 -2294.7 -4059.7 -2286.9 -4062.6 -2279.2 -4065.8 -2271.6 -4069.3 -2264.3 -4073.2 -2257.1 -4077.4 -2250.1 -4082 -2243.3 -4086.8 -2236.8 -4092 -2230.5 -4097.5 -2224.5 -4103.2 -2218.8 -4109.2 -2213.3 -4115.5 -2208.1 -4122 -2203.3 -4128.8 -2198.7 -4135.8 -2194.5 -4143 -2190.6 -4150.3 -2187.1 -4157.9 -2183.9 -4165.6 -2181 -4173.4 -2178.6 -4181.4 -2176.5 -4189.4 -2174.8 -4197.6 -2173.4 -4205.8 -2172.5 -4214.1 -2171.9 -4222.4 -2171.7 -4230.7 -2171.7 -4519.3 -2171.9 -4527.6 -2172.5 -4535.9 -2173.4 -4544.2 -2174.8 -4552.4 -2176.5 -4560.6 -2178.6 -4568.6 -2181 -4576.6 -2183.9 -4584.4 -2187.1 -4592.1 -2190.6 -4599.7 -2194.5 -4607 -2198.7 -4614.2 -2203.3 -4621.2 -2208.1 -4628 -2213.3 -4634.5 -2218.8 -4640.8 -2224.5 -4646.8 -2230.5 -4652.5 -2236.8 -4658 -2243.3 -4663.2 -2250.1 -4668 -2257.1 -4672.6 -2264.3 -4676.8 -2271.6 -4680.7 -2279.2 -4684.2 -2286.9 -4687.4 -2294.7 -4690.3 -2302.7 -4692.7 -2310.7 -4694.8 -2318.9 -4696.5 -2327.1 -4697.9 -2335.4 -4698.8 -2343.7 -4699.4 -2352 -4699.6 -2360.3 -4699.4 -2368.6 -4698.8 -2376.9 -4697.9 -2385.1 -4696.5 -2393.3 -4694.8 -2401.3 -4692.7 -2409.3 -4690.3 -2417.1 -4687.4 -2424.8 -4684.2 -2432.4 -4680.7 -2439.7 -4676.8 -2446.9 -4672.6 -2453.9 -4668 -2460.7 -4663.2 -2467.2 -4658 -2473.5 -4652.5 -2479.5 -4646.8 -2485.2 -4640.8 -2490.7 -4634.5 -2495.9 -4628 -2500.7 -4621.2 -2505.3 -4614.2 -2509.5 -4607 -2513.4 -4599.7 -2516.9 -4592.1 -2520.1 -4584.4 -2523 -4576.6 -2525.4 -4568.6 -2527.5 -4560.6 -2529.2 -4552.4 -2530.6 -4544.2 -2531.5 -4535.9 -2532.1 -4527.6 -2532.3 -4519.3 M -1872.4 -4699.6 -1872.4 -4050.4 -1692.1 -4050.4 -1683.8 -4050.6 -1675.5 -4051.2 -1667.2 -4052.1 -1659 -4053.5 -1650.8 -4055.2 -1642.8 -4057.3 -1634.8 -4059.7 -1627 -4062.6 -1619.3 -4065.8 -1611.7 -4069.3 -1604.4 -4073.2 -1597.2 -4077.4 -1590.2 -4082 -1583.4 -4086.8 -1576.9 -4092 -1570.6 -4097.5 -1564.6 -4103.2 -1558.9 -4109.2 -1553.4 -4115.5 -1548.2 -4122 -1543.4 -4128.8 -1538.8 -4135.8 -1534.6 -4143 -1530.7 -4150.3 -1527.2 -4157.9 -1524 -4165.6 -1521.1 -4173.4 -1518.7 -4181.4 -1516.6 -4189.4 -1514.9 -4197.6 -1513.5 -4205.8 -1512.6 -4214.1 -1512 -4222.4 -1511.8 -4230.7 -1512 -4239 -1512.6 -4247.3 -1513.5 -4255.6 -1514.9 -4263.8 -1516.6 -4272 -1518.7 -4280 -1521.1 -4288 -1524 -4295.8 -1527.2 -4303.5 -1530.7 -4311.1 -1534.6 -4318.4 -1538.8 -4325.6 -1543.4 -4332.6 -1548.2 -4339.4 -1553.4 -4345.9 -1558.9 -4352.2 -1564.6 -4358.2 -1570.6 -4363.9 -1576.9 -4369.4 -1583.4 -4374.6 -1590.2 -4379.4 -1597.2 -4384 -1604.4 -4388.2 -1611.7 -4392.1 -1619.3 -4395.6 -1627 -4398.8 -1634.8 -4401.7 -1642.8 -4404.1 -1650.8 -4406.2 -1659 -4407.9 -1667.2 -4409.3 -1675.5 -4410.2 -1683.8 -4410.8 -1692.1 -4411 M -1692.1 -4411.1 -1872.4 -4411.1 M -1250.1 -4699.6 -961.6 -4699.6 M -1250.1 -4699.6 -1250.1 -4050.4 -961.6 -4050.4 M -1033.7 -4338.9 -1250.1 -4338.9 M -711.3 -4266.8 -711.3 -4699.6 M -711.3 -4266.8 -530.9 -4266.8 -524.6 -4267 -518.3 -4267.5 -512.1 -4268.4 -505.9 -4269.7 -499.9 -4271.3 -493.9 -4273.3 -488 -4275.6 -482.3 -4278.3 -476.8 -4281.3 -471.4 -4284.6 -466.3 -4288.2 -461.4 -4292.1 -456.6 -4296.3 -452.2 -4300.7 -448 -4305.5 -444.1 -4310.4 -440.5 -4315.5 -437.2 -4320.9 -434.2 -4326.4 -431.5 -4332.1 -429.2 -4338 -427.2 -4344 -425.6 -4350 -424.3 -4356.2 -423.4 -4362.4 -422.9 -4368.7 -422.7 -4375 -422.7 -4699.6 M 57.1 -4699.6 64.7 -4699.4 72.2 -4698.8 79.7 -4697.8 87.1 -4696.4 94.4 -4694.7 101.7 -4692.5 108.8 -4690 115.8 -4687.1 122.6 -4683.9 129.3 -4680.3 135.7 -4676.3 141.9 -4672 147.9 -4667.4 153.7 -4662.5 159.1 -4657.3 164.3 -4651.9 169.2 -4646.1 173.8 -4640.1 178.1 -4633.9 182.1 -4627.4 185.7 -4620.8 188.9 -4614 191.8 -4607 194.3 -4599.9 196.5 -4592.6 198.2 -4585.3 199.6 -4577.9 200.6 -4570.4 201.2 -4562.9 201.4 -4555.3 M 57.1 -4699.6 46.2 -4699.4 35.2 -4698.8 24.3 -4697.8 13.5 -4696.5 2.7 -4694.7 -8 -4692.6 -18.7 -4690 -29.2 -4687.1 -39.6 -4683.8 -50 -4680.2 -60.1 -4676.2 -70.1 -4671.8 -80 -4667 -89.7 -4661.9 -99.2 -4656.5 -108.5 -4650.7 -117.5 -4644.6 -126.4 -4638.2 -135 -4631.4 -143.4 -4624.4 -151.5 -4617.1 -159.3 -4609.4 M -141.3 -4194.7 -141.1 -4187.1 -140.5 -4179.6 -139.5 -4172.1 -138.1 -4164.7 -136.4 -4157.4 -134.2 -4150.1 -131.7 -4143 -128.8 -4136 -125.6 -4129.2 -122 -4122.6 -118 -4116.1 -113.7 -4109.9 -109.1 -4103.9 -104.2 -4098.1 -99 -4092.7 -93.6 -4087.5 -87.8 -4082.6 -81.8 -4078 -75.6 -4073.7 -69.2 -4069.7 -62.5 -4066.1 -55.7 -4062.9 -48.7 -4060 -41.6 -4057.5 -34.3 -4055.3 -27 -4053.6 -19.6 -4052.2 -12.1 -4051.2 -4.6 -4050.6 3 -4050.4 13.2 -4050.6 23.5 -4051.2 33.7 -4052.1 43.8 -4053.5 53.9 -4055.2 63.9 -4057.3 73.8 -4059.8 83.7 -4062.7 93.4 -4065.9 103 -4069.5 112.4 -4073.5 121.7 -4077.8 130.8 -4082.5 139.7 -4087.5 148.5 -4092.8 157 -4098.5 165.3 -4104.5 M -69.2 -4320.9 -75.6 -4316.9 -81.9 -4312.5 -87.9 -4307.9 -93.6 -4302.9 -99.1 -4297.6 -104.3 -4292 -109.2 -4286.2 -113.8 -4280.2 -118.1 -4273.9 -122 -4267.4 -125.6 -4260.7 -128.8 -4253.8 -131.7 -4246.8 -134.3 -4239.6 -136.4 -4232.3 -138.2 -4224.9 -139.5 -4217.4 -140.5 -4209.9 -141.1 -4202.3 -141.3 -4194.7 M 129.2 -4429.1 135.6 -4433.1 141.9 -4437.5 147.9 -4442.2 153.6 -4447.1 159.1 -4452.4 164.3 -4458 169.2 -4463.8 173.8 -4469.8 178.1 -4476.1 182 -4482.6 185.6 -4489.3 188.8 -4496.2 191.7 -4503.2 194.3 -4510.4 196.4 -4517.7 198.2 -4525.1 199.5 -4532.6 200.5 -4540.1 201.1 -4547.7 201.3 -4555.3 M 129.2 -4429.1 -69.2 -4320.9 M 758.7 -4266.8 903 -4699.6 1047.3 -4266.8 M 1488 -4050.4 1496 -4050.6 1503.9 -4051.2 1511.8 -4052.2 1519.7 -4053.5 1527.4 -4055.3 1535.1 -4057.4 1542.7 -4059.9 1550.1 -4062.8 1557.4 -4066 1564.5 -4069.6 1571.4 -4073.5 1578.2 -4077.8 1584.7 -4082.3 1591 -4087.2 1597 -4092.4 1602.8 -4097.9 1608.3 -4103.7 1613.5 -4109.7 1618.4 -4116 1622.9 -4122.5 1627.2 -4129.3 1631.1 -4136.2 1634.7 -4143.3 1637.9 -4150.6 1640.8 -4158 1643.3 -4165.6 1645.4 -4173.3 1647.2 -4181 1648.5 -4188.9 1649.5 -4196.8 1650.1 -4204.7 1650.3 -4212.7 M 1488 -4050.4 1479 -4050.6 1469.9 -4051.2 1461 -4052.2 1452 -4053.5 1443.1 -4055.3 1434.4 -4057.4 1425.7 -4059.9 1417.1 -4062.8 1408.7 -4066.1 1400.4 -4069.7 1392.3 -4073.7 1384.3 -4078 1376.6 -4082.7 1369 -4087.7 1361.7 -4093 1354.7 -4098.6 1347.8 -4104.5 1341.3 -4110.8 1335 -4117.3 1329 -4124 1323.3 -4131 1317.9 -4138.3 1312.8 -4145.8 1308.1 -4153.5 1303.7 -4161.4 1299.7 -4169.5 1296 -4177.7 1292.6 -4186.1 1289.6 -4194.7 M 1596.2 -4338.9 1601.8 -4333.4 1607.1 -4327.6 1612.1 -4321.6 1616.9 -4315.4 1621.3 -4308.9 1625.5 -4302.3 1629.4 -4295.5 1633 -4288.5 1636.2 -4281.4 1639.1 -4274.1 1641.7 -4266.7 1644 -4259.2 1645.9 -4251.6 1647.5 -4243.9 1648.7 -4236.2 1649.6 -4228.4 1650.1 -4220.5 1650.3 -4212.7 M 1596.2 -4338.9 1289.7 -4699.6 1650.3 -4699.6 M 1893 -4699.6 1893 -4663.5 1929 -4663.5 1929 -4699.6 1893 -4699.6 M 2171.6 -4375 2171.8 -4360.7 2172.4 -4346.5 2173.3 -4332.2 2174.6 -4318 2176.4 -4303.8 2178.4 -4289.7 2180.9 -4275.7 2183.7 -4261.7 2187 -4247.8 2190.5 -4233.9 2194.5 -4220.2 2198.8 -4206.6 2203.5 -4193.1 2208.5 -4179.8 2213.9 -4166.5 2219.6 -4153.5 2225.7 -4140.6 M 2225.8 -4140.5 2228.3 -4133.8 2231.2 -4127.2 2234.4 -4120.8 2238 -4114.5 2241.9 -4108.5 2246.1 -4102.7 2250.6 -4097.1 2255.5 -4091.7 2260.6 -4086.7 2265.9 -4081.9 2271.6 -4077.4 2277.4 -4073.2 2283.5 -4069.3 2289.8 -4065.8 2296.2 -4062.6 2302.8 -4059.8 2309.6 -4057.3 2316.5 -4055.2 2323.4 -4053.5 2330.5 -4052.1 2337.6 -4051.2 2344.8 -4050.6 2352 -4050.4 2359.2 -4050.6 2366.4 -4051.2 2373.5 -4052.1 2380.6 -4053.5 2387.5 -4055.2 2394.4 -4057.3 2401.2 -4059.8 2407.8 -4062.6 2414.2 -4065.8 2420.5 -4069.3 2426.6 -4073.2 2432.4 -4077.4 2438.1 -4081.9 2443.4 -4086.7 2448.5 -4091.7 2453.4 -4097.1 2457.9 -4102.7 2462.1 -4108.5 2466 -4114.5 2469.6 -4120.8 2472.8 -4127.2 2475.7 -4133.8 2478.2 -4140.5 M 2478.2 -4140.6 2484.3 -4153.5 2490 -4166.5 2495.4 -4179.8 2500.4 -4193.1 2505.1 -4206.6 2509.4 -4220.2 2513.4 -4233.9 2516.9 -4247.8 2520.2 -4261.7 2523 -4275.7 2525.5 -4289.7 2527.5 -4303.8 2529.3 -4318 2530.6 -4332.2 2531.5 -4346.5 2532.1 -4360.7 2532.3 -4375 M 2171.6 -4375 2171.8 -4389.3 2172.4 -4403.5 2173.3 -4417.8 2174.6 -4432 2176.4 -4446.2 2178.4 -4460.3 2180.9 -4474.3 2183.7 -4488.3 2187 -4502.2 2190.5 -4516.1 2194.5 -4529.8 2198.8 -4543.4 2203.5 -4556.9 2208.5 -4570.2 2213.9 -4583.5 2219.6 -4596.5 2225.7 -4609.4 M 2225.8 -4609.5 2228.3 -4616.2 2231.2 -4622.8 2234.4 -4629.2 2238 -4635.5 2241.9 -4641.5 2246.1 -4647.3 2250.6 -4652.9 2255.5 -4658.3 2260.6 -4663.3 2265.9 -4668.1 2271.6 -4672.6 2277.4 -4676.8 2283.5 -4680.7 2289.8 -4684.2 2296.2 -4687.4 2302.8 -4690.2 2309.6 -4692.7 2316.5 -4694.8 2323.4 -4696.5 2330.5 -4697.9 2337.6 -4698.8 2344.8 -4699.4 2352 -4699.6 M 2478.2 -4609.4 2484.3 -4596.5 2490 -4583.5 2495.4 -4570.2 2500.4 -4556.9 2505.1 -4543.4 2509.4 -4529.8 2513.4 -4516.1 2516.9 -4502.2 2520.2 -4488.3 2523 -4474.3 2525.5 -4460.3 2527.5 -4446.2 2529.3 -4432 2530.6 -4417.8 2531.5 -4403.5 2532.1 -4389.3 2532.3 -4375 M 2478.2 -4609.5 2475.7 -4616.2 2472.8 -4622.8 2469.6 -4629.2 2466 -4635.5 2462.1 -4641.5 2457.9 -4647.3 2453.4 -4652.9 2448.5 -4658.3 2443.4 -4663.3 2438.1 -4668.1 2432.4 -4672.6 2426.6 -4676.8 2420.5 -4680.7 2414.2 -4684.2 2407.8 -4687.4 2401.2 -4690.2 2394.4 -4692.7 2387.5 -4694.8 2380.6 -4696.5 2373.5 -4697.9 2366.4 -4698.8 2359.2 -4699.4 2352 -4699.6 M 2207.7 -4555.3 2496.3 -4194.7" fill="none" stroke-width="50.8"/><path d="M 1550.3 3520 1550.5 3528.2 1551.1 3536.4 1552.1 3544.5 1553.5 3552.6 1555.2 3560.6 1557.4 3568.5 1559.9 3576.3 1562.8 3584 1566.1 3591.5 1569.7 3598.9 1573.7 3606 1578.1 3613 1582.7 3619.7 1587.7 3626.3 1593 3632.5 1598.6 3638.5 1604.4 3644.3 1610.6 3649.7 1617 3654.8 1623.6 3659.7 1630.5 3664.2 1637.5 3668.3 1644.8 3672.1 1652.2 3675.6 1659.8 3678.7 1667.6 3681.4 1675.4 3683.7 1683.4 3685.7 1691.4 3687.3 1699.5 3688.5 1707.7 3689.3 1715.9 3689.7 1724.1 3689.7 1732.3 3689.3 1740.5 3688.5 1748.6 3687.3 1756.6 3685.7 1764.6 3683.7 1772.4 3681.4 1780.2 3678.7 1787.8 3675.6 1795.2 3672.1 1802.5 3668.3 1809.5 3664.2 1816.4 3659.7 1823 3654.8 1829.4 3649.7 1835.6 3644.3 1841.4 3638.5 1847 3632.5 1852.3 3626.3 1857.3 3619.7 1861.9 3613 1866.3 3606 1870.3 3598.9 1873.9 3591.5 1877.2 3584 1880.1 3576.3 1882.6 3568.5 1884.8 3560.6 1886.5 3552.6 1887.9 3544.5 1888.9 3536.4 1889.5 3528.2 1889.7 3520 1889.5 3511.8 1888.9 3503.6 1887.9 3495.5 1886.5 3487.4 1884.8 3479.4 1882.6 3471.5 1880.1 3463.7 1877.2 3456 1873.9 3448.5 1870.3 3441.1 1866.3 3434 1861.9 3427 1857.3 3420.3 1852.3 3413.7 1847 3407.5 1841.4 3401.5 1835.6 3395.7 1829.4 3390.3 1823 3385.2 1816.4 3380.3 1809.5 3375.8 1802.5 3371.7 1795.2 3367.9 1787.8 3364.4 1780.2 3361.3 1772.4 3358.6 1764.6 3356.3 1756.6 3354.3 1748.6 3352.7 1740.5 3351.5 1732.3 3350.7 1724.1 3350.3 1715.9 3350.3 1707.7 3350.7 1699.5 3351.5 1691.4 3352.7 1683.4 3354.3 1675.4 3356.3 1667.6 3358.6 1659.8 3361.3 1652.2 3364.4 1644.8 3367.9 1637.5 3371.7 1630.5 3375.8 1623.6 3380.3 1617 3385.2 1610.6 3390.3 1604.4 3395.7 1598.6 3401.5 1593 3407.5 1587.7 3413.7 1582.7 3420.3 1578.1 3427 1573.7 3434 1569.7 3441.1 1566.1 3448.5 1562.8 3456 1559.9 3463.7 1557.4 3471.5 1555.2 3479.4 1553.5 3487.4 1552.1 3495.5 1551.1 3503.6 1550.5 3511.8 1550.3 3520" fill="none" stroke-width="127"/><path d="M -3200 3100 -3200 -3100 M 3200 -3100 3200 3100 M -3200 3100 -3200 2600 M -3200 3100 -2700 3100 M -3200 -2600 -3200 -3100 -2700 -3100 M 2700 -3100 3200 -3100 3200 -2600 M 3200 3100 2700 3100 M 3200 3100 3200 2600" fill="none" stroke-width="30"/><path d="M -3418.9 4050.4 -3418.9 4699.6 -3202.5 4338.9 -2986.1 4699.6 -2986.1 4050.4 M -2494.4 4050.4 -2486.8 4050.6 -2479.3 4051.2 -2471.8 4052.2 -2464.4 4053.6 -2457.1 4055.3 -2449.8 4057.5 -2442.7 4060 -2435.7 4062.9 -2428.9 4066.1 -2422.2 4069.7 -2415.8 4073.7 -2409.6 4078 -2403.6 4082.6 -2397.8 4087.5 -2392.4 4092.7 -2387.2 4098.1 -2382.3 4103.9 -2377.7 4109.9 -2373.4 4116.1 -2369.4 4122.6 -2365.8 4129.2 -2362.6 4136 -2359.7 4143 -2357.2 4150.1 -2355 4157.4 -2353.3 4164.7 -2351.9 4172.1 -2350.9 4179.6 -2350.3 4187.1 -2350.1 4194.7 M -2494.4 4050.4 -2505.3 4050.6 -2516.3 4051.2 -2527.2 4052.2 -2538 4053.5 -2548.8 4055.3 -2559.5 4057.4 -2570.2 4060 -2580.7 4062.9 -2591.1 4066.2 -2601.5 4069.8 -2611.6 4073.8 -2621.6 4078.2 -2631.5 4083 -2641.2 4088.1 -2650.7 4093.5 -2660 4099.3 -2669 4105.4 -2677.9 4111.8 -2686.5 4118.6 -2694.9 4125.6 -2703 4132.9 -2710.8 4140.6 M -2692.8 4555.3 -2692.6 4562.9 -2692 4570.4 -2691 4577.9 -2689.6 4585.3 -2687.9 4592.6 -2685.7 4599.9 -2683.2 4607 -2680.3 4614 -2677.1 4620.8 -2673.5 4627.5 -2669.5 4633.9 -2665.2 4640.1 -2660.6 4646.1 -2655.7 4651.9 -2650.5 4657.3 -2645.1 4662.5 -2639.3 4667.4 -2633.3 4672 -2627.1 4676.3 -2620.7 4680.3 -2614 4683.9 -2607.2 4687.1 -2600.2 4690 -2593.1 4692.5 -2585.8 4694.7 -2578.5 4696.4 -2571.1 4697.8 -2563.6 4698.8 -2556.1 4699.4 -2548.5 4699.6 -2538.3 4699.4 -2528 4698.8 -2517.8 4697.9 -2507.7 4696.5 -2497.6 4694.8 -2487.6 4692.7 -2477.7 4690.2 -2467.8 4687.3 -2458.1 4684.1 -2448.5 4680.5 -2439.1 4676.5 -2429.8 4672.2 -2420.7 4667.5 -2411.8 4662.5 -2403 4657.2 -2394.5 4651.5 -2386.2 4645.5 M -2620.7 4429.1 -2627.1 4433.1 -2633.4 4437.5 -2639.4 4442.1 -2645.1 4447.1 -2650.6 4452.4 -2655.8 4458 -2660.7 4463.8 -2665.3 4469.8 -2669.6 4476.1 -2673.5 4482.6 -2677.1 4489.3 -2680.3 4496.2 -2683.2 4503.2 -2685.8 4510.4 -2687.9 4517.7 -2689.7 4525.1 -2691 4532.6 -2692 4540.1 -2692.6 4547.7 -2692.8 4555.3 M -2422.3 4320.9 -2415.9 4316.9 -2409.6 4312.5 -2403.6 4307.9 -2397.9 4302.9 -2392.4 4297.6 -2387.2 4292 -2382.3 4286.2 -2377.7 4280.2 -2373.4 4273.9 -2369.5 4267.4 -2365.9 4260.7 -2362.7 4253.8 -2359.8 4246.8 -2357.3 4239.6 -2355.1 4232.3 -2353.3 4224.9 -2352 4217.4 -2351 4209.9 -2350.4 4202.3 -2350.2 4194.7 M -2422.3 4320.9 -2620.7 4429.1 M -2101.8 4050.4 -1885.4 4050.4 -1877.8 4050.6 -1870.3 4051.2 -1862.8 4052.2 -1855.4 4053.6 -1848.1 4055.3 -1840.8 4057.5 -1833.7 4060 -1826.7 4062.9 -1819.9 4066.1 -1813.2 4069.7 -1806.8 4073.7 -1800.6 4078 -1794.6 4082.6 -1788.8 4087.5 -1783.4 4092.7 -1778.2 4098.1 -1773.3 4103.9 -1768.7 4109.9 -1764.4 4116.1 -1760.4 4122.6 -1756.8 4129.2 -1753.6 4136 -1750.7 4143 -1748.2 4150.1 -1746 4157.4 -1744.3 4164.7 -1742.9 4172.1 -1741.9 4179.6 -1741.3 4187.1 -1741.1 4194.7 M -1741.2 4194.7 -1741.2 4266.8 M -1741.1 4266.8 -1741.3 4274.1 -1741.8 4281.4 -1742.8 4288.7 -1744.1 4295.8 -1745.7 4303 -1747.7 4310 -1750.1 4316.9 -1752.8 4323.7 -1755.8 4330.3 -1759.2 4336.8 -1762.9 4343.1 -1767 4349.2 -1771.3 4355.1 -1775.9 4360.8 -1780.8 4366.2 -1786 4371.4 -1791.4 4376.3 -1797.1 4380.9 -1803 4385.2 -1809.1 4389.3 -1815.4 4393 -1821.9 4396.4 -1828.5 4399.4 -1835.3 4402.1 -1842.2 4404.5 -1849.2 4406.5 -1856.4 4408.1 -1863.6 4409.4 -1870.8 4410.4 -1878.1 4410.9 -1885.4 4411.1 -2101.8 4411.1 -2101.8 4699.6 -1741.2 4699.6 M -1471.8 4230.7 -1471.6 4239 -1471 4247.3 -1470.1 4255.6 -1468.7 4263.8 -1467 4272 -1464.9 4280 -1462.5 4288 -1459.6 4295.8 -1456.4 4303.5 -1452.9 4311.1 -1449 4318.4 -1444.8 4325.6 -1440.2 4332.6 -1435.4 4339.4 -1430.2 4345.9 -1424.7 4352.2 -1419 4358.2 -1413 4363.9 -1406.7 4369.4 -1400.2 4374.6 -1393.4 4379.4 -1386.4 4384 -1379.2 4388.2 -1371.9 4392.1 -1364.3 4395.6 -1356.6 4398.8 -1348.8 4401.7 -1340.8 4404.1 -1332.8 4406.2 -1324.6 4407.9 -1316.4 4409.3 -1308.1 4410.2 -1299.8 4410.8 -1291.5 4411 -1283.2 4410.8 -1274.9 4410.2 -1266.6 4409.3 -1258.4 4407.9 -1250.2 4406.2 -1242.2 4404.1 -1234.2 4401.7 -1226.4 4398.8 -1218.7 4395.6 -1211.1 4392.1 -1203.8 4388.2 -1196.6 4384 -1189.6 4379.4 -1182.8 4374.6 -1176.3 4369.4 -1170 4363.9 -1164 4358.2 -1158.3 4352.2 -1152.8 4345.9 -1147.6 4339.4 -1142.8 4332.6 -1138.2 4325.6 -1134 4318.4 -1130.1 4311.1 -1126.6 4303.5 -1123.4 4295.8 -1120.5 4288 -1118.1 4280 -1116 4272 -1114.3 4263.8 -1112.9 4255.6 -1112 4247.3 -1111.4 4239 -1111.2 4230.7 -1111.4 4222.4 -1112 4214.1 -1112.9 4205.8 -1114.3 4197.6 -1116 4189.4 -1118.1 4181.4 -1120.5 4173.4 -1123.4 4165.6 -1126.6 4157.9 -1130.1 4150.3 -1134 4143 -1138.2 4135.8 -1142.8 4128.8 -1147.6 4122 -1152.8 4115.5 -1158.3 4109.2 -1164 4103.2 -1170 4097.5 -1176.3 4092 -1182.8 4086.8 -1189.6 4082 -1196.6 4077.4 -1203.8 4073.2 -1211.1 4069.3 -1218.7 4065.8 -1226.4 4062.6 -1234.2 4059.7 -1242.2 4057.3 -1250.2 4055.2 -1258.4 4053.5 -1266.6 4052.1 -1274.9 4051.2 -1283.2 4050.6 -1291.5 4050.4 -1299.8 4050.6 -1308.1 4051.2 -1316.4 4052.1 -1324.6 4053.5 -1332.8 4055.2 -1340.8 4057.3 -1348.8 4059.7 -1356.6 4062.6 -1364.3 4065.8 -1371.9 4069.3 -1379.2 4073.2 -1386.4 4077.4 -1393.4 4082 -1400.2 4086.8 -1406.7 4092 -1413 4097.5 -1419 4103.2 -1424.7 4109.2 -1430.2 4115.5 -1435.4 4122 -1440.2 4128.8 -1444.8 4135.8 -1449 4143 -1452.9 4150.3 -1456.4 4157.9 -1459.6 4165.6 -1462.5 4173.4 -1464.9 4181.4 -1467 4189.4 -1468.7 4197.6 -1470.1 4205.8 -1471 4214.1 -1471.6 4222.4 -1471.8 4230.7 M -1435.8 4555.3 -1435.6 4562.9 -1435 4570.4 -1434 4577.9 -1432.6 4585.3 -1430.9 4592.6 -1428.7 4599.9 -1426.2 4607 -1423.3 4614 -1420.1 4620.8 -1416.5 4627.5 -1412.5 4633.9 -1408.2 4640.1 -1403.6 4646.1 -1398.7 4651.9 -1393.5 4657.3 -1388.1 4662.5 -1382.3 4667.4 -1376.3 4672 -1370.1 4676.3 -1363.7 4680.3 -1357 4683.9 -1350.2 4687.1 -1343.2 4690 -1336.1 4692.5 -1328.8 4694.7 -1321.5 4696.4 -1314.1 4697.8 -1306.6 4698.8 -1299.1 4699.4 -1291.5 4699.6 -1283.9 4699.4 -1276.4 4698.8 -1268.9 4697.8 -1261.5 4696.4 -1254.2 4694.7 -1246.9 4692.5 -1239.8 4690 -1232.8 4687.1 -1226 4683.9 -1219.4 4680.3 -1212.9 4676.3 -1206.7 4672 -1200.7 4667.4 -1194.9 4662.5 -1189.5 4657.3 -1184.3 4651.9 -1179.4 4646.1 -1174.8 4640.1 -1170.5 4633.9 -1166.5 4627.5 -1162.9 4620.8 -1159.7 4614 -1156.8 4607 -1154.3 4599.9 -1152.1 4592.6 -1150.4 4585.3 -1149 4577.9 -1148 4570.4 -1147.4 4562.9 -1147.2 4555.3 -1147.4 4547.7 -1148 4540.2 -1149 4532.7 -1150.4 4525.3 -1152.1 4518 -1154.3 4510.7 -1156.8 4503.6 -1159.7 4496.6 -1162.9 4489.8 -1166.5 4483.2 -1170.5 4476.7 -1174.8 4470.5 -1179.4 4464.5 -1184.3 4458.7 -1189.5 4453.3 -1194.9 4448.1 -1200.7 4443.2 -1206.7 4438.6 -1212.9 4434.3 -1219.3 4430.3 -1226 4426.7 -1232.8 4423.5 -1239.8 4420.6 -1246.9 4418.1 -1254.2 4415.9 -1261.5 4414.2 -1268.9 4412.8 -1276.4 4411.8 -1283.9 4411.2 -1291.5 4411 -1299.1 4411.2 -1306.6 4411.8 -1314.1 4412.8 -1321.5 4414.2 -1328.8 4415.9 -1336.1 4418.1 -1343.2 4420.6 -1350.2 4423.5 -1357 4426.7 -1363.7 4430.3 -1370.1 4434.3 -1376.3 4438.6 -1382.3 4443.2 -1388.1 4448.1 -1393.5 4453.3 -1398.7 4458.7 -1403.6 4464.5 -1408.2 4470.5 -1412.5 4476.7 -1416.5 4483.2 -1420.1 4489.8 -1423.3 4496.6 -1426.2 4503.6 -1428.7 4510.7 -1430.9 4518 -1432.6 4525.3 -1434 4532.7 -1435 4540.2 -1435.6 4547.7 -1435.8 4555.3 M -841.9 4375 -841.7 4389.3 -841.1 4403.5 -840.2 4417.8 -838.9 4432 -837.1 4446.2 -835.1 4460.3 -832.6 4474.3 -829.8 4488.3 -826.5 4502.2 -823 4516.1 -819 4529.8 -814.7 4543.4 -810 4556.9 -805 4570.2 -799.6 4583.5 -793.9 4596.5 -787.8 4609.4 M -787.7 4609.5 -785.2 4616.2 -782.3 4622.8 -779.1 4629.2 -775.5 4635.5 -771.6 4641.5 -767.4 4647.3 -762.9 4652.9 -758 4658.3 -752.9 4663.3 -747.6 4668.1 -741.9 4672.6 -736.1 4676.8 -730 4680.7 -723.7 4684.2 -717.3 4687.4 -710.7 4690.2 -703.9 4692.7 -697 4694.8 -690.1 4696.5 -683 4697.9 -675.9 4698.8 -668.7 4699.4 -661.5 4699.6 M -661.5 4699.7 -654.3 4699.5 -647.1 4698.9 -640 4698 -632.9 4696.6 -625.9 4694.9 -619 4692.8 -612.3 4690.3 -605.7 4687.5 -599.2 4684.3 -592.9 4680.7 -586.9 4676.9 -581 4672.7 -575.4 4668.2 -570 4663.4 -564.9 4658.3 -560.1 4653 -555.5 4647.4 -551.3 4641.6 -547.4 4635.5 -543.8 4629.3 -540.6 4622.8 -537.7 4616.2 -535.2 4609.5 M -535.2 4609.4 -529.1 4596.5 -523.4 4583.5 -518 4570.2 -513 4556.9 -508.3 4543.4 -504 4529.8 -500 4516.1 -496.5 4502.2 -493.2 4488.3 -490.4 4474.3 -487.9 4460.3 -485.9 4446.2 -484.1 4432 -482.8 4417.8 -481.9 4403.5 -481.3 4389.3 -481.1 4375 M -841.8 4375 -841.6 4360.7 -841 4346.5 -840.1 4332.2 -838.8 4318 -837 4303.8 -835 4289.7 -832.5 4275.7 -829.7 4261.7 -826.4 4247.8 -822.9 4233.9 -818.9 4220.2 -814.6 4206.6 -809.9 4193.1 -804.9 4179.8 -799.5 4166.5 -793.8 4153.5 -787.7 4140.6 M -787.7 4140.5 -785.2 4133.8 -782.3 4127.2 -779.1 4120.8 -775.5 4114.5 -771.6 4108.5 -767.4 4102.7 -762.9 4097.1 -758 4091.7 -752.9 4086.7 -747.6 4081.9 -741.9 4077.4 -736.1 4073.2 -730 4069.3 -723.7 4065.8 -717.3 4062.6 -710.7 4059.8 -703.9 4057.3 -697 4055.2 -690.1 4053.5 -683 4052.1 -675.9 4051.2 -668.7 4050.6 -661.5 4050.4 M -535.3 4140.6 -529.2 4153.5 -523.5 4166.5 -518.1 4179.8 -513.1 4193.1 -508.4 4206.6 -504.1 4220.2 -500.1 4233.9 -496.6 4247.8 -493.3 4261.7 -490.5 4275.7 -488 4289.7 -486 4303.8 -484.2 4318 -482.9 4332.2 -482 4346.5 -481.4 4360.7 -481.2 4375 M -535.2 4140.6 -537.7 4133.9 -540.6 4127.3 -543.8 4120.8 -547.4 4114.6 -551.3 4108.5 -555.5 4102.7 -560.1 4097.1 -564.9 4091.8 -570 4086.7 -575.4 4081.9 -581 4077.4 -586.9 4073.2 -592.9 4069.4 -599.2 4065.8 -605.7 4062.6 -612.3 4059.8 -619 4057.3 -625.9 4055.2 -632.9 4053.5 -640 4052.1 -647.1 4051.2 -654.3 4050.6 -661.5 4050.4 M -805.8 4194.7 -517.2 4555.3 M -211.8 4050.4 -31.5 4050.4 -23.2 4050.6 -14.9 4051.2 -6.6 4052.1 1.6 4053.5 9.8 4055.2 17.8 4057.3 25.8 4059.7 33.6 4062.6 41.3 4065.8 48.9 4069.3 56.2 4073.2 63.4 4077.4 70.4 4082 77.2 4086.8 83.7 4092 90 4097.5 96 4103.2 101.7 4109.2 107.2 4115.5 112.4 4122 117.2 4128.8 121.8 4135.8 126 4143 129.9 4150.3 133.4 4157.9 136.6 4165.6 139.5 4173.4 141.9 4181.4 144 4189.4 145.7 4197.6 147.1 4205.8 148 4214.1 148.6 4222.4 148.8 4230.7 148.6 4239 148 4247.3 147.1 4255.6 145.7 4263.8 144 4272 141.9 4280 139.5 4288 136.6 4295.8 133.4 4303.5 129.9 4311.1 126 4318.4 121.8 4325.6 117.2 4332.6 112.4 4339.4 107.2 4345.9 101.7 4352.2 96 4358.2 90 4363.9 83.7 4369.4 77.2 4374.6 70.4 4379.4 63.4 4384 56.2 4388.2 48.9 4392.1 41.3 4395.6 33.6 4398.8 25.8 4401.7 17.8 4404.1 9.8 4406.2 1.6 4407.9 -6.6 4409.3 -14.9 4410.2 -23.2 4410.8 -31.5 4411 M 4.6 4699.6 -211.8 4699.6 M 4.6 4699.6 12.2 4699.4 19.7 4698.8 27.2 4697.8 34.6 4696.4 41.9 4694.7 49.2 4692.5 56.3 4690 63.3 4687.1 70.1 4683.9 76.7 4680.3 83.2 4676.3 89.4 4672 95.4 4667.4 101.2 4662.5 106.6 4657.3 111.8 4651.9 116.7 4646.1 121.3 4640.1 125.6 4633.9 129.6 4627.5 133.2 4620.8 136.4 4614 139.3 4607 141.8 4599.9 144 4592.6 145.7 4585.3 147.1 4577.9 148.1 4570.4 148.7 4562.9 148.9 4555.3 148.7 4547.7 148.1 4540.2 147.1 4532.7 145.7 4525.3 144 4518 141.8 4510.7 139.3 4503.6 136.4 4496.6 133.2 4489.8 129.6 4483.2 125.6 4476.7 121.3 4470.5 116.7 4464.5 111.8 4458.7 106.6 4453.3 101.2 4448.1 95.4 4443.2 89.4 4438.6 83.2 4434.3 76.8 4430.3 70.1 4426.7 63.3 4423.5 56.3 4420.6 49.2 4418.1 41.9 4415.9 34.6 4414.2 27.2 4412.8 19.7 4411.8 12.2 4411.2 4.6 4411 M 4.6 4411.1 -139.7 4411.1 M 424.1 4302.9 856.9 4302.9 M 1132.1 4375 1132.3 4389.3 1132.9 4403.5 1133.8 4417.8 1135.1 4432 1136.9 4446.2 1138.9 4460.3 1141.4 4474.3 1144.2 4488.3 1147.5 4502.2 1151 4516.1 1155 4529.8 1159.3 4543.4 1164 4556.9 1169 4570.2 1174.4 4583.5 1180.1 4596.5 1186.2 4609.4 M 1186.3 4609.5 1188.8 4616.2 1191.7 4622.8 1194.9 4629.2 1198.5 4635.5 1202.4 4641.5 1206.6 4647.3 1211.1 4652.9 1216 4658.3 1221.1 4663.3 1226.4 4668.1 1232.1 4672.6 1237.9 4676.8 1244 4680.7 1250.3 4684.2 1256.7 4687.4 1263.3 4690.2 1270.1 4692.7 1277 4694.8 1283.9 4696.5 1291 4697.9 1298.1 4698.8 1305.3 4699.4 1312.5 4699.6 1319.7 4699.4 1326.9 4698.8 1334 4697.9 1341.1 4696.5 1348 4694.8 1354.9 4692.7 1361.7 4690.2 1368.3 4687.4 1374.7 4684.2 1381 4680.7 1387.1 4676.8 1392.9 4672.6 1398.6 4668.1 1403.9 4663.3 1409 4658.3 1413.9 4652.9 1418.4 4647.3 1422.6 4641.5 1426.5 4635.5 1430.1 4629.2 1433.3 4622.8 1436.2 4616.2 1438.7 4609.5 M 1438.7 4609.4 1444.8 4596.5 1450.5 4583.5 1455.9 4570.2 1460.9 4556.9 1465.6 4543.4 1469.9 4529.8 1473.9 4516.1 1477.4 4502.2 1480.7 4488.3 1483.5 4474.3 1486 4460.3 1488 4446.2 1489.8 4432 1491.1 4417.8 1492 4403.5 1492.6 4389.3 1492.8 4375 M 1132.2 4375 1132.4 4360.7 1133 4346.5 1133.9 4332.2 1135.2 4318 1137 4303.8 1139 4289.7 1141.5 4275.7 1144.3 4261.7 1147.6 4247.8 1151.1 4233.9 1155.1 4220.2 1159.4 4206.6 1164.1 4193.1 1169.1 4179.8 1174.5 4166.5 1180.2 4153.5 1186.3 4140.6 M 1186.3 4140.5 1188.8 4133.8 1191.7 4127.2 1194.9 4120.8 1198.5 4114.5 1202.4 4108.5 1206.6 4102.7 1211.1 4097.1 1216 4091.7 1221.1 4086.7 1226.4 4081.9 1232.1 4077.4 1237.9 4073.2 1244 4069.3 1250.3 4065.8 1256.7 4062.6 1263.3 4059.8 1270.1 4057.3 1277 4055.2 1283.9 4053.5 1291 4052.1 1298.1 4051.2 1305.3 4050.6 1312.5 4050.4 M 1438.7 4140.6 1444.8 4153.5 1450.5 4166.5 1455.9 4179.8 1460.9 4193.1 1465.6 4206.6 1469.9 4220.2 1473.9 4233.9 1477.4 4247.8 1480.7 4261.7 1483.5 4275.7 1486 4289.7 1488 4303.8 1489.8 4318 1491.1 4332.2 1492 4346.5 1492.6 4360.7 1492.8 4375 M 1438.7 4140.5 1436.2 4133.8 1433.3 4127.2 1430.1 4120.8 1426.5 4114.5 1422.6 4108.5 1418.4 4102.7 1413.9 4097.1 1409 4091.7 1403.9 4086.7 1398.6 4081.9 1392.9 4077.4 1387.1 4073.2 1381 4069.3 1374.7 4065.8 1368.3 4062.6 1361.7 4059.8 1354.9 4057.3 1348 4055.2 1341.1 4053.5 1334 4052.1 1326.9 4051.2 1319.7 4050.6 1312.5 4050.4 M 1168.2 4194.7 1456.8 4555.3 M 1960.5 4699.6 1968.5 4699.4 1976.4 4698.8 1984.3 4697.8 1992.2 4696.5 1999.9 4694.7 2007.6 4692.6 2015.2 4690.1 2022.6 4687.2 2029.9 4684 2037 4680.4 2043.9 4676.5 2050.7 4672.2 2057.2 4667.7 2063.5 4662.8 2069.5 4657.6 2075.3 4652.1 2080.8 4646.3 2086 4640.3 2090.9 4634 2095.4 4627.5 2099.7 4620.7 2103.6 4613.8 2107.2 4606.7 2110.4 4599.4 2113.3 4592 2115.8 4584.4 2117.9 4576.7 2119.7 4569 2121 4561.1 2122 4553.2 2122.6 4545.3 2122.8 4537.3 M 1960.5 4699.6 1951.5 4699.4 1942.4 4698.8 1933.5 4697.8 1924.5 4696.5 1915.6 4694.7 1906.9 4692.6 1898.2 4690.1 1889.6 4687.2 1881.2 4683.9 1872.9 4680.3 1864.8 4676.3 1856.8 4672 1849.1 4667.3 1841.5 4662.3 1834.2 4657 1827.2 4651.4 1820.3 4645.5 1813.8 4639.2 1807.5 4632.7 1801.5 4626 1795.8 4619 1790.4 4611.7 1785.3 4604.2 1780.6 4596.5 1776.2 4588.6 1772.2 4580.5 1768.5 4572.3 1765.1 4563.9 1762.1 4555.3 M 2068.7 4411.1 2074.3 4416.6 2079.6 4422.4 2084.6 4428.4 2089.4 4434.6 2093.8 4441.1 2098 4447.7 2101.9 4454.5 2105.5 4461.5 2108.7 4468.6 2111.6 4475.9 2114.2 4483.3 2116.5 4490.8 2118.4 4498.4 2120 4506.1 2121.2 4513.8 2122.1 4521.6 2122.6 4529.5 2122.8 4537.3 M 2068.7 4411.1 1762.2 4050.4 2122.8 4050.4 M 2422.1 4411.1 2602.4 4411.1 M 2602.4 4411 2610.7 4410.8 2619 4410.2 2627.3 4409.3 2635.5 4407.9 2643.7 4406.2 2651.7 4404.1 2659.7 4401.7 2667.5 4398.8 2675.2 4395.6 2682.8 4392.1 2690.1 4388.2 2697.3 4384 2704.3 4379.4 2711.1 4374.6 2717.6 4369.4 2723.9 4363.9 2729.9 4358.2 2735.6 4352.2 2741.1 4345.9 2746.3 4339.4 2751.1 4332.6 2755.7 4325.6 2759.9 4318.4 2763.8 4311.1 2767.3 4303.5 2770.5 4295.8 2773.4 4288 2775.8 4280 2777.9 4272 2779.6 4263.8 2781 4255.6 2781.9 4247.3 2782.5 4239 2782.7 4230.7 2782.5 4222.4 2781.9 4214.1 2781 4205.8 2779.6 4197.6 2777.9 4189.4 2775.8 4181.4 2773.4 4173.4 2770.5 4165.6 2767.3 4157.9 2763.8 4150.3 2759.9 4143 2755.7 4135.8 2751.1 4128.8 2746.3 4122 2741.1 4115.5 2735.6 4109.2 2729.9 4103.2 2723.9 4097.5 2717.6 4092 2711.1 4086.8 2704.3 4082 2697.3 4077.4 2690.1 4073.2 2682.8 4069.3 2675.2 4065.8 2667.5 4062.6 2659.7 4059.7 2651.7 4057.3 2643.7 4055.2 2635.5 4053.5 2627.3 4052.1 2619 4051.2 2610.7 4050.6 2602.4 4050.4 2422.1 4050.4 2422.1 4699.6 2602.4 4699.6 2610 4699.4 2617.5 4698.8 2625 4697.8 2632.4 4696.4 2639.7 4694.7 2647 4692.5 2654.1 4690 2661.1 4687.1 2667.9 4683.9 2674.5 4680.3 2681 4676.3 2687.2 4672 2693.2 4667.4 2699 4662.5 2704.4 4657.3 2709.6 4651.9 2714.5 4646.1 2719.1 4640.1 2723.4 4633.9 2727.4 4627.5 2731 4620.8 2734.2 4614 2737.1 4607 2739.6 4599.9 2741.8 4592.6 2743.5 4585.3 2744.9 4577.9 2745.9 4570.4 2746.5 4562.9 2746.7 4555.3 2746.5 4547.7 2745.9 4540.2 2744.9 4532.7 2743.5 4525.3 2741.8 4518 2739.6 4510.7 2737.1 4503.6 2734.2 4496.6 2731 4489.8 2727.4 4483.2 2723.4 4476.7 2719.1 4470.5 2714.5 4464.5 2709.6 4458.7 2704.4 4453.3 2699 4448.1 2693.2 4443.2 2687.2 4438.6 2681 4434.3 2674.6 4430.3 2667.9 4426.7 2661.1 4423.5 2654.1 4420.6 2647 4418.1 2639.7 4415.9 2632.4 4414.2 2625 4412.8 2617.5 4411.8 2610 4411.2 2602.4 4411 M 2986.1 4050.4 3202.5 4699.6 3418.9 4050.4 M 3364.8 4212.7 3040.2 4212.7" fill="none" stroke-width="50.8"/></g></svg>