G04 EAGLE Gerber RS-274X export*
G75*
%MOMM*%
%FSLAX34Y34*%
%LPD*%
%INSolderpaste Top*%
%IPPOS*%
%AMOC8*
5,1,8,0,0,1.08239X$1,22.5*%
G01*
%ADD10R,1.803000X1.600000*%
%ADD11R,1.600000X1.803000*%
%ADD12R,1.800000X1.600000*%
%ADD13R,1.600000X1.800000*%
%ADD14R,1.000000X0.250000*%
%ADD15R,0.650000X0.350000*%
%ADD16R,2.150000X0.950000*%
%ADD17R,2.150000X3.250000*%


D10*
X614150Y253710D03*
X614150Y225270D03*
X664150Y247870D03*
X664150Y219430D03*
X663830Y274430D03*
X663830Y302870D03*
D11*
X681380Y187470D03*
X709820Y187470D03*
X738770Y187470D03*
X767210Y187470D03*
X797220Y187440D03*
X825660Y187440D03*
X825530Y363020D03*
X797090Y363020D03*
X727530Y334550D03*
X699090Y334550D03*
X517860Y330820D03*
X489420Y330820D03*
D10*
X513800Y268380D03*
X513800Y296820D03*
X484670Y273460D03*
X484670Y301900D03*
D12*
X621330Y305990D03*
X621330Y277990D03*
D13*
X623300Y187470D03*
X651300Y187470D03*
D12*
X540470Y258440D03*
X540470Y286440D03*
D13*
X796690Y335430D03*
X824690Y335430D03*
X597510Y337050D03*
X625510Y337050D03*
X284230Y187470D03*
X312230Y187470D03*
D14*
X403491Y230450D03*
X403491Y235450D03*
X403491Y240450D03*
X403491Y245450D03*
X403491Y250450D03*
X361229Y250450D03*
X361229Y245450D03*
X361229Y240450D03*
X361229Y235450D03*
X361229Y230450D03*
D10*
X430810Y213920D03*
X430810Y185480D03*
D11*
X367310Y187470D03*
X395750Y187470D03*
D13*
X284820Y239620D03*
X312820Y239620D03*
D15*
X416220Y315170D03*
X416220Y308670D03*
X416220Y302170D03*
X436720Y315170D03*
X436720Y308670D03*
X436720Y302170D03*
D11*
X329220Y122500D03*
X300780Y122500D03*
X446720Y122500D03*
X418280Y122500D03*
X564220Y122500D03*
X535780Y122500D03*
X590780Y122500D03*
X619220Y122500D03*
X473280Y122500D03*
X501720Y122500D03*
X355780Y122500D03*
X384220Y122500D03*
D16*
X311000Y378000D03*
X311000Y355000D03*
X311000Y332000D03*
D17*
X369000Y355000D03*
D12*
X380000Y293500D03*
X380000Y321500D03*
D11*
X351720Y402500D03*
X323280Y402500D03*
X265780Y402500D03*
X294220Y402500D03*
D13*
X346500Y302500D03*
X318500Y302500D03*
M02*
